#N canvas 588 117 664 750 10;
#X declare -lib mrpeach;
#X declare -lib iemmatrix;
#X declare -lib iemmatrix;
#X declare -lib iemmatrix;
#N canvas 105 103 450 378 loadar-samples 0;
#X obj 75 199 coll ./load-samples.txt;
#C restore;
#X floatatom 75 173 5 0 0 0 - - -;
#X obj 75 10 r carrega;
#X obj 75 119 metro 10;
#X obj 75 94 tgl 15 0 empty empty empty 17 7 0 10 -262144 -1 -1 0 1
;
#X msg 75 67 1;
#X msg 105 67 0;
#X obj 75 327 soundfiler;
#X msg 165 163 read ./load-samples.txt;
#X obj 75 267 pack s s;
#X msg 34 119 0;
#X obj 50 20 bng 15 250 50 0 empty empty empty 17 7 0 10 -262144 -1
-1;
#N canvas 67 83 450 300 areas 0;
#X obj 48 97 table area04;
#X obj 48 77 table area03;
#X obj 48 57 table area02;
#X obj 48 37 table area01;
#X obj 48 117 table area05;
#X obj 48 137 table area06;
#X obj 48 157 table area07;
#X obj 48 177 table area08;
#X obj 48 197 table area09;
#X obj 48 17 table area00;
#X obj 138 17 table area10;
#X obj 138 37 table area11;
#X obj 138 57 table area12;
#X obj 138 77 table area13;
#X obj 138 97 table area14;
#X obj 138 117 table area15;
#X obj 138 137 table area16;
#X obj 138 157 table area17;
#X obj 138 177 table area18;
#X obj 138 197 table area19;
#X obj 228 17 table area20;
#X obj 228 37 table area21;
#X obj 228 57 table area22;
#X obj 228 77 table area23;
#X obj 228 97 table area24;
#X obj 228 117 table area25;
#X obj 228 137 table area26;
#X obj 228 157 table area27;
#X obj 228 177 table area28;
#X obj 228 197 table area29;
#X restore 231 56 pd areas;
#X obj 75 35 t b b b;
#X obj 75 236 unpack s f f s;
#X obj 75 146 counter 100;
#X msg 75 293 read -maxsize 1e+07 -resize /home/rfabbri/a/beck-repo/contato1/sons-contato/\$1
\$2;
#X connect 0 0 14 0;
#X connect 1 0 0 0;
#X connect 2 0 13 0;
#X connect 3 0 15 0;
#X connect 4 0 3 0;
#X connect 5 0 4 0;
#X connect 6 0 4 0;
#X connect 8 0 0 0;
#X connect 9 0 16 0;
#X connect 10 0 15 0;
#X connect 11 0 13 0;
#X connect 13 0 5 0;
#X connect 13 1 10 0;
#X connect 13 2 8 0;
#X connect 14 0 9 0;
#X connect 14 3 9 1;
#X connect 15 0 1 0;
#X connect 15 2 6 0;
#X connect 16 0 7 0;
#X restore 23 94 pd loadar-samples;
#X obj 442 4 bng 20 250 50 0 empty empty empty 17 7 0 10 -258113 -4034
-203904;
#X obj 442 29 s carrega;
#X floatatom 512 8 5 0 0 2 bema-ms - -;
#N canvas 0 0 450 300 keey 0;
#X obj 75 18 key;
#X floatatom 75 45 5 0 0 0 - - -;
#X obj 75 231 s keyr;
#X obj 99 211 s keyt;
#X obj 75 74 sel 27;
#X obj 75 118 gate;
#X obj 75 99 tgl 15 0 empty empty empty 17 7 0 10 -262144 -1 -1 0 1
;
#X obj 124 231 s keyR;
#X obj 149 211 s keyT;
#X msg 75 168 1;
#X msg 99 188 1;
#X obj 173 181 s keyg;
#X obj 193 201 s keyG;
#X obj 223 181 s keyf;
#X obj 243 201 s keys;
#X obj 253 221 s keyd;
#X obj 75 141 sel 114 116 82 84 103 71 102 115 100;
#X connect 0 0 1 0;
#X connect 1 0 4 0;
#X connect 4 0 6 0;
#X connect 4 1 5 1;
#X connect 5 0 16 0;
#X connect 6 0 5 0;
#X connect 9 0 2 0;
#X connect 10 0 3 0;
#X connect 16 0 9 0;
#X connect 16 1 10 0;
#X connect 16 2 7 0;
#X connect 16 3 8 0;
#X connect 16 4 11 0;
#X connect 16 5 12 0;
#X connect 16 6 13 0;
#X connect 16 7 14 0;
#X connect 16 8 15 0;
#X restore 23 121 pd keey;
#X obj 70 -23 r keyr;
#X obj 119 -23 r keyR;
#X obj 15 -23 r parte1;
#N canvas 0 0 450 300 efeitos 0;
#X obj 3 243 dac~;
#X obj 2 108 RM2~;
#X obj 170 159 vcf~ 100 10;
#X floatatom 201 88 5 0 0 0 - - -;
#X floatatom 233 108 5 0 0 0 - - -;
#X obj 169 225 dac~;
#X obj 201 111 sig~;
#X obj 169 60 noise~;
#X obj 78 178 r carrega;
#X msg 78 199 90;
#N canvas 0 0 450 300 randona 0;
#X obj 195 131 random 3000;
#X obj 196 105 metro 3000;
#X obj 195 84 tgl 15 0 empty empty empty 17 7 0 10 -262144 -1 -1 0
1;
#X obj 271 82 random 3000;
#X obj 271 35 tgl 15 0 empty empty empty 17 7 0 10 -262144 -1 -1 0
1;
#X obj 275 111 + 500;
#X obj 205 185 line;
#X msg 206 162 \$1 \$2;
#X obj 270 158 pack 1 2;
#X obj 272 56 metro 1000;
#X obj 320 119 bng 15 250 50 0 empty empty empty 17 7 0 10 -262144
-1 -1;
#X obj 246 222 bng 15 250 50 0 empty empty empty 17 7 0 10 -262144
-1 -1;
#X obj 191 222 outlet;
#X obj 192 25 inlet;
#X obj 259 194 + 500;
#X connect 0 0 14 0;
#X connect 0 0 11 0;
#X connect 1 0 0 0;
#X connect 2 0 1 0;
#X connect 3 0 5 0;
#X connect 3 0 10 0;
#X connect 4 0 9 0;
#X connect 5 0 1 1;
#X connect 5 0 8 1;
#X connect 6 0 12 0;
#X connect 7 0 6 0;
#X connect 8 0 7 0;
#X connect 9 0 3 0;
#X connect 13 0 4 0;
#X connect 13 0 2 0;
#X connect 14 0 8 0;
#X restore 242 83 pd randona;
#X obj 259 60 tgl 15 0 empty empty empty 17 7 0 10 -262144 -1 -1 0
1;
#X obj 2 218 rev3~ 100 90 3000 20;
#X obj 280 142 gate~ 14;
#X obj 75 56 gatt~ 80;
#X obj 2 176 gatt~;
#X obj 169 186 gatt~;
#X obj 169 138 gatt~;
#X connect 1 0 15 0;
#X connect 2 0 16 0;
#X connect 3 0 6 0;
#X connect 4 0 2 2;
#X connect 6 0 2 1;
#X connect 7 0 17 0;
#X connect 8 0 9 0;
#X connect 9 0 15 1;
#X connect 9 0 16 1;
#X connect 10 0 3 0;
#X connect 11 0 10 0;
#X connect 12 0 0 0;
#X connect 12 0 0 1;
#X connect 15 0 12 0;
#X connect 16 0 5 0;
#X connect 16 0 5 1;
#X connect 17 0 2 0;
#X restore 73 121 pd efeitos;
#X obj 512 29 s bema;
#X msg 546 7 125;
#X obj 477 108 s lob;
#X obj 477 81 loadbang;
#X obj 167 -23 r bema;
#X obj 15 -1 part1~ ./load-samples.txt 300;
#X obj 164 78 dac~;
#X obj 58 504 dac~;
#X obj 89 605 nbx 5 50 -1e+37 1e+37 0 0 empty empty empty 0 -8 0 50
-258113 -1 -1 0.485833 256;
#X obj 89 665 nbx 5 50 -1e+37 1e+37 0 0 empty empty volume 0 50 0 50
-258113 -1 -1 0.521094 256;
#X obj 58 448 r carrega;
#X obj 57 561 dac~;
#X obj 92 652 hsl 239 15 0 1 0 0 empty empty empty -2 -8 0 10 -262144
-1 -1 0 1;
#N canvas 282 183 965 664 tocador2 0;
#X obj 269 120 tgl 15 0 empty empty metro 17 7 0 10 -262144 -1 -1 1
1;
#X floatatom 102 134 5 0 100 2 vol - -;
#X floatatom 134 134 5 0 100 2 space - -;
#X floatatom 167 134 5 0 0 2 som - -;
#X obj 269 62 r keys;
#X floatatom 258 100 5 0 0 1 tempo - -;
#X obj 87 215 metro 1000;
#X msg 87 237 1;
#X msg 238 34 100;
#X msg 248 14 200;
#X msg 258 -6 300;
#X obj 37 215 r keyd;
#X obj 102 42 bng 15 250 50 0 empty empty empty 17 7 0 10 -262144 -1
-1;
#X obj 87 267 spigot;
#X obj 87 597 outlet~;
#X obj 102 13 t b b b;
#X obj 126 101 hsl 128 15 30 300 0 0 empty empty empty -2 -8 0 10 -262144
-1 -1 5644 1;
#X obj 192 216 * 1;
#X floatatom 267 134 5 0 0 1 multip-vel - -;
#X msg 121 42 1;
#X obj 102 -11 inlet carrega;
#X obj 162 9 inlet space;
#X obj 202 179 inlet velocidade do sample;
#X obj 338 238 inlet on-off;
#X obj 338 291 spigot;
#X msg 296 230 0;
#X obj 269 205 sel 0;
#X obj 162 28 * 100;
#X floatatom 371 271 5 0 0 0 - - -;
#X msg 269 230 1;
#X floatatom 120 242 5 0 0 0 - - -;
#X obj 262 520 inlet;
#X obj 262 545 * 100;
#X obj 100 151 bng 15 250 50 0 empty empty empty 17 7 0 10 -262144
-1 -1;
#X msg 61 153 1;
#X symbolatom 115 152 34 0 0 0 - - -;
#X obj 134 404 unpack s f f s;
#X obj 134 345 f;
#X obj 319 60 r bema-\$0;
#X floatatom 200 134 5 0 0 2 veloc - -;
#X obj 134 372 coll ./load-samples.txt;
#C restore;
#X obj 87 477 pack f f f f f s;
#X obj 193 298 unpack s f f s;
#X obj 193 266 coll ./load-samples.txt;
#C restore;
#X obj 87 295 t f b;
#X obj 166 240 t f f;
#X obj 87 524 space1~ 50;
#X obj 239 135 tgl 15 0 empty empty empty 17 7 0 10 -262144 -1 -1 0
1;
#X obj 87 497 cam-grupo1~ ./sons-contato/load-samples.txt;
#X msg 217 69 3000;
#X msg 142 71 9;
#X msg 58 74 150;
#X connect 0 0 6 0;
#X connect 0 0 26 0;
#X connect 1 0 41 1;
#X connect 2 0 41 2;
#X connect 2 0 46 2;
#X connect 3 0 45 0;
#X connect 4 0 0 0;
#X connect 5 0 6 1;
#X connect 6 0 7 0;
#X connect 7 0 13 0;
#X connect 8 0 5 0;
#X connect 9 0 5 0;
#X connect 10 0 5 0;
#X connect 11 0 7 0;
#X connect 12 0 50 0;
#X connect 12 0 51 0;
#X connect 12 0 49 0;
#X connect 13 0 44 0;
#X connect 15 0 12 0;
#X connect 15 1 19 0;
#X connect 16 0 5 0;
#X connect 17 0 39 0;
#X connect 18 0 17 1;
#X connect 19 0 0 0;
#X connect 20 0 15 0;
#X connect 21 0 27 0;
#X connect 22 0 17 0;
#X connect 23 0 30 0;
#X connect 23 0 24 0;
#X connect 24 0 41 0;
#X connect 25 0 28 0;
#X connect 26 0 29 0;
#X connect 26 1 25 0;
#X connect 27 0 2 0;
#X connect 28 0 24 1;
#X connect 29 0 28 0;
#X connect 30 0 13 1;
#X connect 31 0 32 0;
#X connect 32 0 1 0;
#X connect 33 0 34 0;
#X connect 34 0 44 0;
#X connect 36 1 41 4;
#X connect 36 3 41 5;
#X connect 37 0 40 0;
#X connect 38 0 18 0;
#X connect 39 0 41 3;
#X connect 40 0 36 0;
#X connect 41 0 48 0;
#X connect 42 0 35 0;
#X connect 43 0 42 0;
#X connect 44 0 41 0;
#X connect 44 1 37 0;
#X connect 45 0 37 1;
#X connect 45 1 43 0;
#X connect 46 0 14 0;
#X connect 47 0 46 1;
#X connect 48 0 46 0;
#X connect 49 0 18 0;
#X connect 50 0 3 0;
#X connect 51 0 16 0;
#X coords 0 -1 1 1 224 70 1 100 100;
#X restore 58 475 pd tocador2;
#X obj 164 111 osc~ 100;
#X obj 327 177 unpack f f f f;
#X obj 327 117 osc-recebe 9002;
#X obj 327 147 routeOSC /obj1;
#X obj 79 162 webcam-funfa;
#X floatatom 100 351 5 0 0 0 - - -;
#X floatatom 208 388 5 0 600 2 volume_verde - -;
#X obj 210 421 * 0.1;
#X obj 196 449 * 5;
#X obj 87 267 cdetec-1blob-out-green;
#X obj 89 555 nbx 5 50 -1e+37 1e+37 0 0 empty empty empty 0 -8 0 50
-258113 -1 -1 0.469417 256;
#X obj 368 504 dac~;
#X obj 399 605 nbx 5 50 -1e+37 1e+37 0 0 empty empty empty 0 -8 0 50
-258113 -1 -1 0.475423 256;
#X obj 399 665 nbx 5 50 -1e+37 1e+37 0 0 empty empty volume 0 50 0
50 -258113 -1 -1 2.88568 256;
#X obj 368 448 r carrega;
#X obj 367 561 dac~;
#X obj 402 652 hsl 239 15 0 1 0 0 empty empty empty -2 -8 0 10 -262144
-1 -1 0 1;
#N canvas 583 146 965 664 tocador2 0;
#X obj 269 120 tgl 15 0 empty empty metro 17 7 0 10 -262144 -1 -1 1
1;
#X floatatom 102 134 5 0 100 2 vol - -;
#X floatatom 134 134 5 0 100 2 space - -;
#X floatatom 167 134 5 0 0 2 som - -;
#X obj 269 62 r keys;
#X floatatom 258 100 5 0 0 1 tempo - -;
#X obj 87 215 metro 1000;
#X msg 87 237 1;
#X msg 238 34 100;
#X msg 248 14 200;
#X msg 258 -6 300;
#X obj 37 215 r keyd;
#X obj 102 42 bng 15 250 50 0 empty empty empty 17 7 0 10 -262144 -1
-1;
#X obj 87 267 spigot;
#X obj 87 597 outlet~;
#X obj 102 13 t b b b;
#X obj 126 101 hsl 128 15 30 300 0 0 empty empty empty -2 -8 0 10 -262144
-1 -1 941 1;
#X obj 192 216 * 1;
#X floatatom 267 134 5 0 0 1 multip-vel - -;
#X msg 121 42 1;
#X obj 102 -11 inlet carrega;
#X obj 162 9 inlet space;
#X obj 202 179 inlet velocidade do sample;
#X obj 338 238 inlet on-off;
#X obj 338 291 spigot;
#X msg 296 230 0;
#X obj 269 205 sel 0;
#X obj 162 28 * 100;
#X floatatom 371 271 5 0 0 0 - - -;
#X msg 269 230 1;
#X floatatom 120 242 5 0 0 0 - - -;
#X obj 262 520 inlet;
#X obj 262 545 * 100;
#X obj 100 151 bng 15 250 50 0 empty empty empty 17 7 0 10 -262144
-1 -1;
#X msg 61 153 1;
#X symbolatom 115 152 34 0 0 0 - - -;
#X obj 134 404 unpack s f f s;
#X obj 134 345 f;
#X obj 319 60 r bema-\$0;
#X floatatom 200 134 5 0 0 2 veloc - -;
#X obj 134 372 coll ./load-samples.txt;
#C restore;
#X obj 87 477 pack f f f f f s;
#X obj 193 298 unpack s f f s;
#X obj 193 266 coll ./load-samples.txt;
#C restore;
#X obj 87 295 t f b;
#X obj 166 240 t f f;
#X obj 87 524 space1~ 50;
#X obj 239 135 tgl 15 0 empty empty empty 17 7 0 10 -262144 -1 -1 0
1;
#X obj 87 497 cam-grupo1~ ./sons-contato/load-samples.txt;
#X msg 217 69 3000;
#X msg 58 74 50;
#X msg 142 71 2;
#X connect 0 0 6 0;
#X connect 0 0 26 0;
#X connect 1 0 41 1;
#X connect 2 0 41 2;
#X connect 2 0 46 2;
#X connect 3 0 45 0;
#X connect 4 0 0 0;
#X connect 5 0 6 1;
#X connect 6 0 7 0;
#X connect 7 0 13 0;
#X connect 8 0 5 0;
#X connect 9 0 5 0;
#X connect 10 0 5 0;
#X connect 11 0 7 0;
#X connect 12 0 51 0;
#X connect 12 0 50 0;
#X connect 12 0 49 0;
#X connect 13 0 44 0;
#X connect 15 0 12 0;
#X connect 15 1 19 0;
#X connect 16 0 5 0;
#X connect 17 0 39 0;
#X connect 18 0 17 1;
#X connect 19 0 0 0;
#X connect 20 0 15 0;
#X connect 21 0 27 0;
#X connect 22 0 17 0;
#X connect 23 0 30 0;
#X connect 23 0 24 0;
#X connect 24 0 41 0;
#X connect 25 0 28 0;
#X connect 26 0 29 0;
#X connect 26 1 25 0;
#X connect 27 0 2 0;
#X connect 28 0 24 1;
#X connect 29 0 28 0;
#X connect 30 0 13 1;
#X connect 31 0 32 0;
#X connect 32 0 1 0;
#X connect 33 0 34 0;
#X connect 34 0 44 0;
#X connect 36 1 41 4;
#X connect 36 3 41 5;
#X connect 37 0 40 0;
#X connect 38 0 18 0;
#X connect 39 0 41 3;
#X connect 40 0 36 0;
#X connect 41 0 48 0;
#X connect 42 0 35 0;
#X connect 43 0 42 0;
#X connect 44 0 41 0;
#X connect 44 1 37 0;
#X connect 45 0 37 1;
#X connect 45 1 43 0;
#X connect 46 0 14 0;
#X connect 47 0 46 1;
#X connect 48 0 46 0;
#X connect 49 0 18 0;
#X connect 50 0 16 0;
#X connect 51 0 3 0;
#X coords 0 -1 1 1 224 70 1 100 100;
#X restore 368 475 pd tocador2;
#X floatatom 410 351 5 0 0 0 - - -;
#X floatatom 518 388 5 0 600 2 volume_vermelho - -;
#X obj 520 421 * 0.1;
#X obj 399 555 nbx 5 50 -1e+37 1e+37 0 0 empty empty empty 0 -8 0 50
-258113 -1 -1 0.220362 256;
#X obj 397 269 cdetec-1blob-out-red;
#X obj 506 449 * 3;
#X connect 1 0 2 0;
#X connect 1 0 10 0;
#X connect 3 0 9 0;
#X connect 5 0 14 1;
#X connect 6 0 14 2;
#X connect 7 0 14 0;
#X connect 10 0 3 0;
#X connect 12 0 11 0;
#X connect 13 0 14 4;
#X connect 14 0 15 0;
#X connect 14 1 15 1;
#X connect 19 0 22 0;
#X connect 19 0 32 1;
#X connect 22 0 20 0;
#X connect 22 0 20 1;
#X connect 25 0 26 0;
#X connect 26 0 24 0;
#X connect 27 0 32 0;
#X connect 27 0 45 0;
#X connect 29 0 30 0;
#X connect 30 0 31 1;
#X connect 31 0 22 3;
#X connect 31 0 18 0;
#X connect 32 0 28 0;
#X connect 32 0 22 1;
#X connect 32 0 33 0;
#X connect 32 1 22 2;
#X connect 32 1 17 0;
#X connect 32 2 31 0;
#X connect 32 3 22 4;
#X connect 37 0 40 0;
#X connect 37 0 45 1;
#X connect 40 0 38 0;
#X connect 40 0 38 1;
#X connect 42 0 43 0;
#X connect 43 0 46 1;
#X connect 45 0 41 0;
#X connect 45 0 40 1;
#X connect 45 0 44 0;
#X connect 45 1 40 2;
#X connect 45 1 35 0;
#X connect 45 2 46 0;
#X connect 45 3 40 4;
#X connect 46 0 40 3;
#X connect 46 0 36 0;
