#N canvas 0 54 1280 746 10;
#X declare -lib mrpeach;
#X declare -lib mrpeach;
#N canvas 99 121 450 378 loadar-samples 0;
#X obj 75 199 coll ./load-samples.txt;
#C restore;
#X floatatom 75 173 5 0 0 0 - - -;
#X obj 75 10 r carrega;
#X obj 75 119 metro 10;
#X obj 75 94 tgl 15 0 empty empty empty 17 7 0 10 -262144 -1 -1 0 1
;
#X msg 75 67 1;
#X msg 105 67 0;
#X obj 75 327 soundfiler;
#X msg 165 163 read ./load-samples.txt;
#X obj 75 267 pack s s;
#X msg 34 119 0;
#X obj 50 20 bng 15 250 50 0 empty empty empty 17 7 0 10 -262144 -1
-1;
#N canvas 0 0 450 300 areas 0;
#X obj 48 97 table area04;
#X obj 48 77 table area03;
#X obj 48 57 table area02;
#X obj 48 37 table area01;
#X obj 48 117 table area05;
#X obj 48 137 table area06;
#X obj 48 157 table area07;
#X obj 48 177 table area08;
#X obj 48 197 table area09;
#X obj 48 17 table area00;
#X obj 138 17 table area10;
#X obj 138 37 table area11;
#X obj 138 57 table area12;
#X obj 138 77 table area13;
#X obj 138 97 table area14;
#X obj 138 117 table area15;
#X obj 138 137 table area16;
#X obj 138 157 table area17;
#X obj 138 177 table area18;
#X obj 138 197 table area19;
#X obj 228 17 table area20;
#X obj 228 37 table area21;
#X obj 228 57 table area22;
#X obj 228 77 table area23;
#X obj 228 97 table area24;
#X obj 228 117 table area25;
#X obj 228 137 table area26;
#X obj 228 157 table area27;
#X obj 228 177 table area28;
#X obj 228 197 table area29;
#X restore 231 56 pd areas;
#X obj 75 35 t b b b;
#X obj 75 236 unpack s f f s;
#X obj 75 146 counter 100;
#X msg 75 293 read -maxsize 1e+07 -resize /media/sda1/sons/barquinho/\$1
\$2;
#X connect 0 0 14 0;
#X connect 1 0 0 0;
#X connect 2 0 13 0;
#X connect 3 0 15 0;
#X connect 4 0 3 0;
#X connect 5 0 4 0;
#X connect 6 0 4 0;
#X connect 8 0 0 0;
#X connect 9 0 16 0;
#X connect 10 0 15 0;
#X connect 11 0 13 0;
#X connect 13 0 5 0;
#X connect 13 1 10 0;
#X connect 13 2 8 0;
#X connect 14 0 9 0;
#X connect 14 3 9 1;
#X connect 15 0 1 0;
#X connect 15 2 6 0;
#X connect 16 0 7 0;
#X restore 319 78 pd loadar-samples;
#X obj 9 19 bng 20 250 50 0 empty empty empty 17 7 0 10 -258113 -4034
-203904;
#X obj 9 44 s carrega;
#X floatatom 79 23 5 0 0 2 bema-ms - -;
#N canvas 0 0 450 300 keey 0;
#X obj 75 18 key;
#X floatatom 75 45 5 0 0 0 - - -;
#X obj 75 231 s keyr;
#X obj 99 211 s keyt;
#X obj 75 74 sel 27;
#X obj 75 118 gate;
#X obj 75 99 tgl 15 0 empty empty empty 17 7 0 10 -262144 -1 -1 0 1
;
#X obj 124 231 s keyR;
#X obj 149 211 s keyT;
#X msg 75 168 1;
#X msg 99 188 1;
#X obj 173 181 s keyg;
#X obj 193 201 s keyG;
#X obj 223 181 s keyf;
#X obj 75 141 sel 114 116 82 84 103 71 102;
#X connect 0 0 1 0;
#X connect 1 0 4 0;
#X connect 4 0 6 0;
#X connect 4 1 5 1;
#X connect 5 0 14 0;
#X connect 6 0 5 0;
#X connect 9 0 2 0;
#X connect 10 0 3 0;
#X connect 14 0 9 0;
#X connect 14 1 10 0;
#X connect 14 2 7 0;
#X connect 14 3 8 0;
#X connect 14 4 11 0;
#X connect 14 5 12 0;
#X connect 14 6 13 0;
#X restore 319 105 pd keey;
#X obj 544 12 r keyr;
#X obj 593 12 r keyR;
#X obj 9 130 nbx 5 70 -1e+37 1e+37 0 0 empty empty empty 0 -8 0 70
-258113 -1 -1 0 256;
#X obj 489 12 r parte1;
#N canvas 529 292 592 474 segue-partitura 0;
#X obj 168 217 metro 500;
#X obj 230 101 tgl 15 0 empty empty empty 17 7 0 10 -258113 -4032 -66577
0 1;
#X floatatom 168 331 5 0 0 0 - - -;
#X msg 232 217 goto \$1;
#X floatatom 247 101 3 0 0 0 - - -;
#X obj 120 356 outlet;
#X obj 185 160 sel 1;
#X obj 232 150 f;
#X obj 219 190 r bema;
#X floatatom 52 221 3 0 0 0 - - -;
#X obj 168 303 +;
#X obj 183 276 * 1000;
#X obj 52 190 + 1;
#X obj 168 133 t f f b b;
#X msg 52 163 1;
#X obj 168 244 counter -1 900000;
#X msg 122 217 goto 0;
#X floatatom 269 101 3 0 0 0 - - -;
#X msg 269 75 1;
#X obj 269 163 t f f;
#X obj 99 25 + 1;
#N canvas 67 179 492 577 partituras-escondidas 0;
#X obj 28 3 inlet;
#X obj 28 109 s parte1;
#X obj 28 27 s partituras-escondidas-interno-\$0;
#X obj 28 65 r partituras-escondidas-interno-\$0;
#X obj 108 235 r partituras-escondidas-interno-\$0;
#X obj 108 115 r partituras-escondidas-interno-\$0;
#X obj 108 159 s parte2;
#X obj 28 185 r partituras-escondidas-interno-\$0;
#X obj 28 229 s parte3;
#X obj 28 305 r partituras-escondidas-interno-\$0;
#X obj 28 349 s parte-grupo1;
#X obj 108 279 s parte4;
#X obj 28 87 ler-partitura ../barquinho/parte1.txt;
#X obj 108 137 ler-partitura ../barquinho/parte2.txt;
#X obj 28 207 ler-partitura ../barquinho/parte3.txt;
#X obj 108 257 ler-partitura ../barquinho/parte4.txt;
#X obj 28 327 ler-partitura ../barquinho/parte-grupo1.txt;
#X obj 128 355 r partituras-escondidas-interno-\$0;
#X obj 28 425 r partituras-escondidas-interno-\$0;
#X obj 168 475 r partituras-escondidas-interno-\$0;
#X obj 28 469 s parte-massa1;
#X obj 28 447 ler-partitura ../barquinho/parte-massa1.txt;
#X obj 302 25 r zerar-tocadores;
#X msg 302 60 0;
#X obj 168 497 ler-partitura ../barquinho/parte-massa2.txt;
#X obj 168 519 s parte-massa2;
#X obj 128 399 s parte5;
#X obj 128 377 ler-partitura ../barquinho/parte5.txt;
#X connect 0 0 2 0;
#X connect 3 0 12 0;
#X connect 4 0 15 0;
#X connect 5 0 13 0;
#X connect 7 0 14 0;
#X connect 9 0 16 0;
#X connect 12 0 1 0;
#X connect 13 0 6 0;
#X connect 14 0 8 0;
#X connect 15 0 11 0;
#X connect 16 0 10 0;
#X connect 17 0 27 0;
#X connect 18 0 21 0;
#X connect 19 0 24 0;
#X connect 21 0 20 0;
#X connect 22 0 23 0;
#X connect 23 0 1 0;
#X connect 23 0 6 0;
#X connect 23 0 8 0;
#X connect 23 0 11 0;
#X connect 23 0 10 0;
#X connect 23 0 20 0;
#X connect 23 0 25 0;
#X connect 23 0 26 0;
#X connect 24 0 25 0;
#X connect 27 0 26 0;
#X restore 168 356 pd partituras-escondidas;
#X obj 269 48 r lob;
#X obj 52 141 r somamil-\$0;
#X obj 261 21 s somamil-\$0;
#X obj 56 48 inlet;
#X obj 96 48 inlet;
#X msg 56 74 1;
#X msg 96 74 0;
#X msg 221 68 0;
#X obj 70 -25 sel 1322 2521 3322 4199 5322 6521 7322 8199 9322 10199
11322 12521 13322 14199 15322 16521 17322 1820;
#X obj 301 291 s green-state;
#X obj 311 321 s blue-state;
#X obj 391 291 s red-state;
#X obj 401 321 s yellow-state;
#X msg 301 256 1;
#X msg 341 256 2;
#X obj 282 326 bng 15 250 50 0 empty empty empty 17 7 0 10 -262144
-1 -1;
#X obj 301 231 sel 1000 5321 16000;
#X connect 0 0 15 0;
#X connect 1 0 13 0;
#X connect 2 0 5 0;
#X connect 2 0 20 0;
#X connect 2 0 21 0;
#X connect 2 0 38 0;
#X connect 3 0 15 0;
#X connect 4 0 7 1;
#X connect 6 0 7 0;
#X connect 7 0 3 0;
#X connect 8 0 0 1;
#X connect 9 0 12 1;
#X connect 9 0 19 0;
#X connect 10 0 2 0;
#X connect 11 0 10 1;
#X connect 12 0 9 0;
#X connect 13 0 0 0;
#X connect 13 1 6 0;
#X connect 13 2 4 0;
#X connect 13 3 17 0;
#X connect 14 0 12 0;
#X connect 15 0 10 0;
#X connect 16 0 15 0;
#X connect 17 0 19 0;
#X connect 18 0 17 0;
#X connect 19 0 12 1;
#X connect 19 1 11 0;
#X connect 20 0 30 0;
#X connect 22 0 18 0;
#X connect 23 0 14 0;
#X connect 23 0 16 0;
#X connect 25 0 27 0;
#X connect 26 0 28 0;
#X connect 27 0 1 0;
#X connect 28 0 1 0;
#X connect 29 0 1 0;
#X connect 30 0 24 0;
#X connect 30 1 24 0;
#X connect 30 2 24 0;
#X connect 30 3 24 0;
#X connect 30 4 24 0;
#X connect 30 5 24 0;
#X connect 30 6 24 0;
#X connect 30 7 24 0;
#X connect 30 8 24 0;
#X connect 30 9 24 0;
#X connect 30 10 24 0;
#X connect 30 11 24 0;
#X connect 30 12 24 0;
#X connect 30 13 24 0;
#X connect 30 14 24 0;
#X connect 30 15 24 0;
#X connect 30 16 24 0;
#X connect 30 17 29 0;
#X connect 35 0 31 0;
#X connect 35 0 32 0;
#X connect 35 0 33 0;
#X connect 35 0 34 0;
#X connect 36 0 31 0;
#X connect 36 0 32 0;
#X connect 36 0 33 0;
#X connect 36 0 34 0;
#X connect 36 0 37 0;
#X connect 38 0 35 0;
#X connect 38 1 36 0;
#X connect 38 2 35 0;
#X coords 0 -1 1 1 190 17 1 100 100;
#X restore 9 113 pd segue-partitura;
#N canvas 0 0 450 300 efeitos 0;
#X obj 3 243 dac~;
#X obj 2 108 RM2~;
#X obj 170 159 vcf~ 100 10;
#X floatatom 201 88 5 0 0 0 - - -;
#X floatatom 233 108 5 0 0 0 - - -;
#X obj 169 225 dac~;
#X obj 201 111 sig~;
#X obj 169 60 noise~;
#X obj 78 178 r carrega;
#X msg 78 199 90;
#N canvas 0 0 450 300 randona 0;
#X obj 195 131 random 3000;
#X obj 196 105 metro 3000;
#X obj 195 84 tgl 15 0 empty empty empty 17 7 0 10 -262144 -1 -1 0
1;
#X obj 271 82 random 3000;
#X obj 271 35 tgl 15 0 empty empty empty 17 7 0 10 -262144 -1 -1 0
1;
#X obj 275 111 + 500;
#X obj 205 185 line;
#X msg 206 162 \$1 \$2;
#X obj 270 158 pack 1 2;
#X obj 272 56 metro 1000;
#X obj 320 119 bng 15 250 50 0 empty empty empty 17 7 0 10 -262144
-1 -1;
#X obj 246 222 bng 15 250 50 0 empty empty empty 17 7 0 10 -262144
-1 -1;
#X obj 191 222 outlet;
#X obj 192 25 inlet;
#X obj 259 194 + 500;
#X connect 0 0 14 0;
#X connect 0 0 11 0;
#X connect 1 0 0 0;
#X connect 2 0 1 0;
#X connect 3 0 5 0;
#X connect 3 0 10 0;
#X connect 4 0 9 0;
#X connect 5 0 1 1;
#X connect 5 0 8 1;
#X connect 6 0 12 0;
#X connect 7 0 6 0;
#X connect 8 0 7 0;
#X connect 9 0 3 0;
#X connect 13 0 4 0;
#X connect 13 0 2 0;
#X connect 14 0 8 0;
#X restore 242 83 pd randona;
#X obj 259 60 tgl 15 0 empty empty empty 17 7 0 10 -262144 -1 -1 0
1;
#X obj 2 218 rev3~ 100 90 3000 20;
#X obj 75 56 gatt~ 80;
#X obj 2 176 gatt~;
#X obj 169 186 gatt~;
#X obj 169 138 gatt~;
#X obj 280 142 gate~ 14;
#X connect 1 0 14 0;
#X connect 2 0 15 0;
#X connect 3 0 6 0;
#X connect 4 0 2 2;
#X connect 6 0 2 1;
#X connect 7 0 16 0;
#X connect 8 0 9 0;
#X connect 9 0 14 1;
#X connect 9 0 15 1;
#X connect 10 0 3 0;
#X connect 11 0 10 0;
#X connect 12 0 0 0;
#X connect 12 0 0 1;
#X connect 14 0 12 0;
#X connect 15 0 5 0;
#X connect 15 0 5 1;
#X connect 16 0 2 0;
#X restore 369 105 pd efeitos;
#X obj 79 44 s bema;
#X obj 259 105 s lob;
#X obj 259 78 loadbang;
#X obj 849 12 r parte2;
#X obj 904 12 r keyxx;
#X obj 953 12 r keyXX;
#X obj 9 66 r keyg;
#X obj 9 88 t b b;
#X obj 59 66 r keyG;
#X obj 59 88 r keyf;
#X obj 1001 12 r bema;
#X obj 641 12 r bema;
#X msg 114 22 100;
#X obj 489 34 part1~ ./load-samples.txt 100;
#X obj 489 106 gatt-st~ 50;
#X obj 172 50 s car-vol;
#X floatatom 172 24 5 0 0 0 - - -;
#X obj 637 106 r car-vol;
#X obj 997 106 r car-vol;
#X obj 849 106 gatt-st~ 50;
#X msg 209 23 20;
#X msg 312 18 0;
#X obj 312 45 s zerar-tocadores;
#X obj 849 34 part1~ ./load-samples.txt 100;
#X obj 787 106 s~ p1-fx1;
#X obj 1147 106 s~ p2-fx1;
#X obj 412 670 tgl 15 0 empty empty empty 17 7 0 10 -262144 -1 -1 0
1;
#X obj 188 648 * 0.01;
#X floatatom 188 622 5 0 0 0 - - -;
#X floatatom 258 652 5 0 0 0 - - -;
#X obj 328 678 * 0.01;
#X floatatom 328 652 5 0 0 0 - - -;
#X obj 188 678 f;
#X obj 228 622 metro 50;
#X obj 228 597 tgl 15 0 empty empty empty 17 7 0 10 -262144 -1 -1 0
1;
#X obj 188 705 s blue-1-x;
#X obj 258 705 s blue-1-y;
#X obj 328 705 s blue-1-size;
#X obj 412 705 s blue-1-on-off;
#X obj 29 465 r b1-on-off;
#X msg 239 23 80;
#X obj 9 210 osc-recebe 9002;
#X obj 113 210 print;
#X obj 9 237 routeOSC /red /green /blue /yellow;
#X floatatom 110 469 5 0 0 0 - - -;
#X obj 29 492 if-last-3-is-zero red;
#X obj 29 519 s b1-on-off-testad;
#X obj 233 208 roteia;
#N canvas 67 107 795 587 router-green 0;
#X text 610 12 lista vindo das cores;
#X text 30 21 seletores (cores);
#X obj 61 376 unpack f f f f;
#X obj 314 386 unpack f f f f;
#X text 539 40 nao precisamos dos outros blobs \, soh o primeiro daria
para apagar esses aih embaixo...;
#X text 81 63 estados: 0 - desligado 1 - 2 -;
#X obj 32 43 r green-state;
#X obj 202 245 inlet;
#X obj 215 416 tgl 15 0 empty empty empty 17 7 0 10 -262144 -1 -1 0
1;
#X obj 61 450 s G1-x;
#X obj 109 450 s G1-y;
#X obj 153 450 s G1-size;
#X obj 216 450 s G1-on-off;
#X obj 318 450 s G2-x;
#X obj 365 450 s G2-y;
#X obj 409 450 s G2-size;
#X obj 472 449 s G2-on-off;
#X obj 169 283 gate 3;
#X connect 2 0 9 0;
#X connect 2 1 10 0;
#X connect 2 2 11 0;
#X connect 2 3 12 0;
#X connect 3 0 13 0;
#X connect 3 1 14 0;
#X connect 3 2 15 0;
#X connect 3 3 16 0;
#X connect 6 0 17 0;
#X connect 7 0 17 1;
#X connect 8 0 12 0;
#X connect 17 0 2 0;
#X connect 17 1 3 0;
#X restore 113 264 pd router-green;
#N canvas 71 115 1057 635 router-red 0;
#X text 620 22 lista vindo das cores;
#X text 40 31 seletores (cores);
#X obj 71 386 unpack f f f f;
#X obj 324 396 unpack f f f f;
#X text 549 50 nao precisamos dos outros blobs \, soh o primeiro daria
para apagar esses aih embaixo...;
#X text 91 73 estados: 0 - desligado 1 - 2 -;
#X obj 212 255 inlet;
#X obj 225 426 tgl 15 0 empty empty empty 17 7 0 10 -262144 -1 -1 0
1;
#X obj 179 293 gate 3;
#X obj 42 53 r red-state;
#X obj 71 460 s R1-x;
#X obj 119 460 s R1-y;
#X obj 163 460 s R1-size;
#X obj 226 460 s R1-on-off;
#X obj 328 460 s R2-x;
#X obj 375 460 s R2-y;
#X obj 419 460 s R2-size;
#X obj 482 459 s R2-on-off;
#X connect 2 0 10 0;
#X connect 2 1 11 0;
#X connect 2 2 12 0;
#X connect 2 3 13 0;
#X connect 3 0 14 0;
#X connect 3 1 15 0;
#X connect 3 2 16 0;
#X connect 3 3 17 0;
#X connect 6 0 8 1;
#X connect 7 0 13 0;
#X connect 8 0 2 0;
#X connect 8 1 3 0;
#X connect 9 0 8 0;
#X restore 9 264 pd router-red;
#N canvas 178 126 883 643 router-blue 0;
#X text 620 22 lista vindo das cores;
#X text 40 31 seletores (cores);
#X obj 71 386 unpack f f f f;
#X obj 324 396 unpack f f f f;
#X text 549 50 nao precisamos dos outros blobs \, soh o primeiro daria
para apagar esses aih embaixo...;
#X text 91 73 estados: 0 - desligado 1 - 2 -;
#X obj 212 255 inlet;
#X obj 225 426 tgl 15 0 empty empty empty 17 7 0 10 -262144 -1 -1 0
1;
#X obj 179 293 gate 3;
#X obj 42 53 r blue-state;
#X obj 71 460 s B1-x;
#X obj 119 460 s B1-y;
#X obj 163 460 s B1-size;
#X obj 226 460 s B1-on-off;
#X obj 328 460 s B2-x;
#X obj 375 460 s B2-y;
#X obj 419 460 s B2-size;
#X obj 482 459 s B2-on-off;
#X connect 2 0 10 0;
#X connect 2 1 11 0;
#X connect 2 2 12 0;
#X connect 2 3 13 0;
#X connect 3 0 14 0;
#X connect 3 1 15 0;
#X connect 3 2 16 0;
#X connect 3 3 17 0;
#X connect 6 0 8 1;
#X connect 7 0 13 0;
#X connect 8 0 2 0;
#X connect 8 1 3 0;
#X connect 9 0 8 0;
#X restore 9 284 pd router-blue;
#N canvas 67 83 736 557 router-yellow 0;
#X text 239 131 lista vindo das cores;
#X text 13 56 seletores (cores);
#X obj 44 411 unpack f f f f;
#X obj 297 421 unpack f f f f;
#X text 115 161 nao precisamos dos outros blobs \, soh o primeiro daria
para apagar esses aih embaixo...;
#X text 64 98 estados: 0 - desligado 1 - 2 -;
#X obj 185 280 inlet;
#X obj 198 451 tgl 15 0 empty empty empty 17 7 0 10 -262144 -1 -1 0
1;
#X obj 152 318 gate 3;
#X obj 15 78 r blue-state;
#X obj 44 485 s Y1-x;
#X obj 93 485 s Y1-y;
#X obj 136 485 s Y1-size;
#X obj 200 485 s Y1-on-off;
#X obj 348 485 s Y2-y;
#X obj 301 485 s Y2-x;
#X obj 392 485 s Y2-size;
#X obj 455 484 s Y2-on-off;
#X connect 2 0 10 0;
#X connect 2 1 11 0;
#X connect 2 2 12 0;
#X connect 2 3 13 0;
#X connect 3 0 15 0;
#X connect 3 1 14 0;
#X connect 3 2 16 0;
#X connect 3 3 17 0;
#X connect 6 0 8 1;
#X connect 7 0 13 0;
#X connect 8 0 2 0;
#X connect 8 1 3 0;
#X connect 9 0 8 0;
#X restore 113 284 pd router-yellow;
#X obj 482 206 cam-grupo1-tocador~;
#X obj 692 184 r bema;
#X obj 482 164 r carrega;
#X obj 524 184 r G1-x;
#X obj 566 164 r G1-y;
#X obj 608 184 r G1-size;
#X obj 650 164 r G1-on-off;
#N canvas 544 180 450 300 status-control 0;
#X floatatom 101 121 5 0 0 0 - - -;
#X floatatom 136 121 5 0 0 0 - - -;
#X floatatom 171 121 5 0 0 0 - - -;
#X floatatom 206 121 5 0 0 0 - - -;
#X floatatom 206 101 5 0 0 0 - - -;
#X obj 101 153 s red-state;
#X obj 136 173 s green-state;
#X obj 171 193 s blue-state;
#X obj 206 213 s yellow-state;
#X connect 0 0 5 0;
#X connect 1 0 6 0;
#X connect 2 0 7 0;
#X connect 3 0 8 0;
#X connect 4 0 0 0;
#X connect 4 0 1 0;
#X connect 4 0 2 0;
#X connect 4 0 3 0;
#X coords 0 -1 1 1 140 40 1 100 100;
#X restore 234 239 pd status-control;
#X obj 482 324 gatte-st~ 50;
#X floatatom 543 304 5 0 0 0 - - -;
#X obj 482 358 r~ delayaa1;
#X obj 482 385 delayaa~ 1000;
#X connect 1 0 2 0;
#X connect 1 0 23 0;
#X connect 3 0 11 0;
#X connect 5 0 24 1;
#X connect 6 0 24 2;
#X connect 8 0 24 0;
#X connect 9 0 7 0;
#X connect 13 0 12 0;
#X connect 14 0 34 0;
#X connect 15 0 34 1;
#X connect 16 0 34 2;
#X connect 17 0 18 0;
#X connect 18 0 9 0;
#X connect 18 1 1 0;
#X connect 19 0 9 1;
#X connect 20 0 9 0;
#X connect 21 0 34 4;
#X connect 22 0 24 4;
#X connect 23 0 3 0;
#X connect 24 0 25 0;
#X connect 24 1 25 1;
#X connect 24 2 35 0;
#X connect 27 0 26 0;
#X connect 28 0 25 2;
#X connect 29 0 30 2;
#X connect 31 0 27 0;
#X connect 32 0 33 0;
#X connect 32 0 9 1;
#X connect 34 0 30 0;
#X connect 34 1 30 1;
#X connect 34 2 36 0;
#X connect 37 0 49 0;
#X connect 38 0 43 0;
#X connect 39 0 38 0;
#X connect 40 0 47 0;
#X connect 41 0 48 0;
#X connect 42 0 41 0;
#X connect 43 0 46 0;
#X connect 44 0 43 0;
#X connect 45 0 44 0;
#X connect 50 0 55 0;
#X connect 50 0 56 0;
#X connect 51 0 27 0;
#X connect 52 0 54 0;
#X connect 52 0 53 0;
#X connect 54 0 60 0;
#X connect 54 1 59 0;
#X connect 54 2 61 0;
#X connect 54 3 62 0;
#X connect 56 0 57 0;
#X connect 63 0 71 0;
#X connect 63 1 71 1;
#X connect 64 0 63 5;
#X connect 65 0 63 0;
#X connect 66 0 63 1;
#X connect 67 0 63 2;
#X connect 68 0 63 3;
#X connect 69 0 63 4;
#X connect 72 0 71 2;
#X connect 73 0 74 0;
