#N canvas 0 54 1280 746 10;
#X declare -lib mrpeach;
#X declare -lib mrpeach;
#N canvas 71 205 450 378 loadar-samples 0;
#X obj 75 199 coll ./load-samples.txt;
#C restore;
#X floatatom 75 173 5 0 0 0 - - -;
#X obj 75 10 r carrega;
#X obj 75 119 metro 10;
#X obj 75 94 tgl 15 0 empty empty empty 17 7 0 10 -262144 -1 -1 0 1
;
#X msg 75 67 1;
#X msg 105 67 0;
#X obj 75 327 soundfiler;
#X msg 165 163 read ./load-samples.txt;
#X obj 75 267 pack s s;
#X msg 34 119 0;
#X obj 50 20 bng 15 250 50 0 empty empty empty 17 7 0 10 -262144 -1
-1;
#N canvas 67 149 595 316 areas 0;
#X obj 48 97 table area04;
#X obj 48 77 table area03;
#X obj 48 57 table area02;
#X obj 48 37 table area01;
#X obj 48 117 table area05;
#X obj 48 137 table area06;
#X obj 48 157 table area07;
#X obj 48 177 table area08;
#X obj 48 197 table area09;
#X obj 138 17 table area10;
#X obj 138 37 table area11;
#X obj 138 57 table area12;
#X obj 138 77 table area13;
#X obj 138 97 table area14;
#X obj 138 117 table area15;
#X obj 138 137 table area16;
#X obj 138 157 table area17;
#X obj 138 177 table area18;
#X obj 138 197 table area19;
#X obj 228 17 table area20;
#X obj 228 37 table area21;
#X obj 228 57 table area22;
#X obj 228 77 table area23;
#X obj 228 97 table area24;
#X obj 228 117 table area25;
#X obj 228 137 table area26;
#X obj 228 157 table area27;
#X obj 228 177 table area28;
#X obj 228 197 table area29;
#X obj 318 17 table area30;
#X obj 318 37 table area31;
#X obj 318 57 table area32;
#X obj 318 77 table area33;
#X obj 318 97 table area34;
#X obj 318 117 table area35;
#X obj 318 137 table area36;
#X obj 318 157 table area37;
#X obj 318 177 table area38;
#X obj 318 197 table area39;
#X obj 48 227 table area-grava-1 441000;
#X obj 48 247 table area-grava-2 441000;
#X obj 48 267 table area-grava-3 882000;
#X obj 48 17 table area00;
#X obj 408 17 table area40;
#X obj 408 37 table area41;
#X obj 408 57 table area42;
#X obj 408 77 table area43;
#X obj 408 97 table area44;
#X obj 408 117 table area45;
#X obj 408 137 table area46;
#X obj 408 157 table area47;
#X obj 408 177 table area48;
#X obj 408 197 table area49;
#X restore 231 56 pd areas;
#X obj 75 35 t b b b;
#X obj 75 236 unpack s f f s;
#X obj 75 146 counter 100;
#X msg 75 293 read -maxsize 1e+07 -resize /media/sda1/sons/contato/\$1
\$2;
#X connect 0 0 14 0;
#X connect 1 0 0 0;
#X connect 2 0 13 0;
#X connect 3 0 15 0;
#X connect 4 0 3 0;
#X connect 5 0 4 0;
#X connect 6 0 4 0;
#X connect 8 0 0 0;
#X connect 9 0 16 0;
#X connect 10 0 15 0;
#X connect 11 0 13 0;
#X connect 13 0 5 0;
#X connect 13 1 10 0;
#X connect 13 2 8 0;
#X connect 14 0 9 0;
#X connect 14 3 9 1;
#X connect 15 0 1 0;
#X connect 15 2 6 0;
#X connect 16 0 7 0;
#X restore 319 78 pd loadar-samples;
#X obj 9 19 bng 20 250 50 0 empty empty empty 17 7 0 10 -258113 -4034
-203904;
#X obj 9 44 s carrega;
#X floatatom 79 23 5 0 0 2 bema-ms - -;
#N canvas 0 0 450 300 keey 0;
#X obj 75 18 key;
#X floatatom 75 45 5 0 0 0 - - -;
#X obj 75 231 s keyr;
#X obj 99 211 s keyt;
#X obj 75 74 sel 27;
#X obj 75 118 gate;
#X obj 75 99 tgl 15 0 empty empty empty 17 7 0 10 -262144 -1 -1 0 1
;
#X obj 124 231 s keyR;
#X obj 149 211 s keyT;
#X msg 75 168 1;
#X msg 99 188 1;
#X obj 173 181 s keyg;
#X obj 193 201 s keyG;
#X obj 223 181 s keyf;
#X obj 75 141 sel 114 116 82 84 103 71 102;
#X connect 0 0 1 0;
#X connect 1 0 4 0;
#X connect 4 0 6 0;
#X connect 4 1 5 1;
#X connect 5 0 14 0;
#X connect 6 0 5 0;
#X connect 9 0 2 0;
#X connect 10 0 3 0;
#X connect 14 0 9 0;
#X connect 14 1 10 0;
#X connect 14 2 7 0;
#X connect 14 3 8 0;
#X connect 14 4 11 0;
#X connect 14 5 12 0;
#X connect 14 6 13 0;
#X restore 319 105 pd keey;
#X obj 544 12 r keyr;
#X obj 593 12 r keyR;
#X obj 489 12 r parte1;
#N canvas 67 89 450 300 efeitos 0;
#X obj 3 243 dac~;
#X obj 2 108 RM2~;
#X obj 170 159 vcf~ 100 10;
#X floatatom 201 88 5 0 0 0 - - -;
#X floatatom 233 108 5 0 0 0 - - -;
#X obj 169 225 dac~;
#X obj 201 111 sig~;
#X obj 169 60 noise~;
#X obj 78 178 r carrega;
#X msg 78 199 90;
#N canvas 0 0 450 300 randona 0;
#X obj 195 131 random 3000;
#X obj 196 105 metro 3000;
#X obj 195 84 tgl 15 0 empty empty empty 17 7 0 10 -262144 -1 -1 0
1;
#X obj 271 82 random 3000;
#X obj 271 35 tgl 15 0 empty empty empty 17 7 0 10 -262144 -1 -1 0
1;
#X obj 275 111 + 500;
#X obj 205 185 line;
#X msg 206 162 \$1 \$2;
#X obj 270 158 pack 1 2;
#X obj 272 56 metro 1000;
#X obj 320 119 bng 15 250 50 0 empty empty empty 17 7 0 10 -262144
-1 -1;
#X obj 246 222 bng 15 250 50 0 empty empty empty 17 7 0 10 -262144
-1 -1;
#X obj 191 222 outlet;
#X obj 192 25 inlet;
#X obj 259 194 + 500;
#X connect 0 0 14 0;
#X connect 0 0 11 0;
#X connect 1 0 0 0;
#X connect 2 0 1 0;
#X connect 3 0 5 0;
#X connect 3 0 10 0;
#X connect 4 0 9 0;
#X connect 5 0 1 1;
#X connect 5 0 8 1;
#X connect 6 0 12 0;
#X connect 7 0 6 0;
#X connect 8 0 7 0;
#X connect 9 0 3 0;
#X connect 13 0 4 0;
#X connect 13 0 2 0;
#X connect 14 0 8 0;
#X restore 242 83 pd randona;
#X obj 259 60 tgl 15 0 empty empty empty 17 7 0 10 -262144 -1 -1 0
1;
#X obj 2 218 rev3~ 100 90 3000 20;
#X obj 75 56 gatt~ 80;
#X obj 2 176 gatt~;
#X obj 169 186 gatt~;
#X obj 169 138 gatt~;
#X obj 280 142 gate~ 14;
#X connect 1 0 14 0;
#X connect 2 0 15 0;
#X connect 3 0 6 0;
#X connect 4 0 2 2;
#X connect 6 0 2 1;
#X connect 7 0 16 0;
#X connect 8 0 9 0;
#X connect 9 0 14 1;
#X connect 9 0 15 1;
#X connect 10 0 3 0;
#X connect 11 0 10 0;
#X connect 12 0 0 0;
#X connect 12 0 0 1;
#X connect 14 0 12 0;
#X connect 15 0 5 0;
#X connect 15 0 5 1;
#X connect 16 0 2 0;
#X restore 369 105 pd efeitos;
#X obj 79 44 s bema;
#X obj 259 105 s lob;
#X obj 259 78 loadbang;
#X obj 849 12 r parte2;
#X obj 904 12 r keyxx;
#X obj 953 12 r keyXX;
#X obj 9 66 r keyg;
#X obj 9 88 t b b;
#X obj 1001 12 r bema;
#X obj 641 12 r bema;
#X msg 114 22 100;
#X obj 489 34 part1~ ./load-samples.txt 100;
#X obj 489 106 gatt-st~ 50;
#X obj 172 50 s car-vol;
#X floatatom 172 24 5 0 0 0 - - -;
#X obj 637 106 r car-vol;
#X obj 997 106 r car-vol;
#X obj 849 106 gatt-st~ 50;
#X msg 209 23 20;
#X msg 312 18 0;
#X obj 312 45 s zerar-tocadores;
#X obj 849 34 part1~ ./load-samples.txt 100;
#X obj 787 106 s~ p1-fx1;
#X obj 1147 106 s~ p2-fx1;
#X obj 29 465 r b1-on-off;
#X msg 239 23 80;
#X obj 9 140 osc-recebe 9002;
#X obj 113 140 print;
#X obj 9 167 routeOSC /red /green /blue /yellow;
#X floatatom 110 469 5 0 0 0 - - -;
#X obj 29 519 s b1-on-off-testad;
#N canvas 67 119 795 587 router-green 0;
#X text 167 130 lista vindo das cores;
#X text 70 61 seletores (cores);
#X obj 101 416 unpack f f f f;
#X obj 225 416 unpack f f f f;
#X text 64 156 nao precisamos dos outros blobs \, soh o primeiro daria
para apagar esses aih embaixo...;
#X text 121 103 estados: 0 - desligado 1 - 2 -;
#X obj 242 285 inlet;
#X obj 185 449 tgl 15 0 empty empty empty 17 7 0 10 -262144 -1 -1 0
1;
#X obj 209 323 gate 3;
#X obj 355 416 unpack f f f f;
#X obj 72 83 r green-state;
#X obj 101 443 s G1-x;
#X obj 128 463 s G1-y;
#X obj 155 483 s G1-size;
#X obj 182 503 s G1-on-off;
#X obj 225 443 s G2-x;
#X obj 252 463 s G2-y;
#X obj 279 483 s G2-size;
#X obj 307 503 s G2-on-off;
#X obj 355 443 s G3-x;
#X obj 382 463 s G3-y;
#X obj 409 483 s G3-size;
#X obj 436 503 s G3-on-off;
#X connect 2 0 11 0;
#X connect 2 1 12 0;
#X connect 2 2 13 0;
#X connect 2 3 14 0;
#X connect 3 0 15 0;
#X connect 3 1 16 0;
#X connect 3 2 17 0;
#X connect 3 3 18 0;
#X connect 6 0 8 1;
#X connect 7 0 14 0;
#X connect 8 0 2 0;
#X connect 8 1 3 0;
#X connect 8 2 9 0;
#X connect 9 0 19 0;
#X connect 9 1 20 0;
#X connect 9 2 21 0;
#X connect 9 3 22 0;
#X connect 10 0 8 0;
#X restore 113 194 pd router-green;
#N canvas 696 119 518 635 router-red 0;
#X text 137 100 lista vindo das cores;
#X text 40 31 seletores (cores);
#X obj 71 386 unpack f f f f;
#X obj 195 386 unpack f f f f;
#X text 34 126 nao precisamos dos outros blobs \, soh o primeiro daria
para apagar esses aih embaixo...;
#X text 91 73 estados: 0 - desligado 1 - 2 -;
#X obj 212 255 inlet;
#X obj 155 419 tgl 15 0 empty empty empty 17 7 0 10 -262144 -1 -1 0
1;
#X obj 179 293 gate 3;
#X obj 42 53 r red-state;
#X obj 71 413 s R1-x;
#X obj 98 433 s R1-y;
#X obj 125 453 s R1-size;
#X obj 152 473 s R1-on-off;
#X obj 195 413 s R2-x;
#X obj 222 433 s R2-y;
#X obj 249 453 s R2-size;
#X obj 276 473 s R2-on-off;
#X obj 325 386 unpack f f f f;
#X obj 325 413 s R3-x;
#X obj 352 433 s R3-y;
#X obj 379 453 s R3-size;
#X obj 406 473 s R3-on-off;
#X connect 2 0 10 0;
#X connect 2 1 11 0;
#X connect 2 2 12 0;
#X connect 2 3 13 0;
#X connect 3 0 14 0;
#X connect 3 1 15 0;
#X connect 3 2 16 0;
#X connect 3 3 17 0;
#X connect 6 0 8 1;
#X connect 7 0 13 0;
#X connect 8 0 2 0;
#X connect 8 1 3 0;
#X connect 8 2 18 0;
#X connect 9 0 8 0;
#X connect 18 0 19 0;
#X connect 18 1 20 0;
#X connect 18 2 21 0;
#X connect 18 3 22 0;
#X restore 9 194 pd router-red;
#N canvas 176 132 883 643 router-blue 0;
#X text 157 120 lista vindo das cores;
#X text 60 51 seletores (cores);
#X obj 91 406 unpack f f f f;
#X obj 215 406 unpack f f f f;
#X text 54 146 nao precisamos dos outros blobs \, soh o primeiro daria
para apagar esses aih embaixo...;
#X text 111 93 estados: 0 - desligado 1 - 2 -;
#X obj 232 275 inlet;
#X obj 175 439 tgl 15 0 empty empty empty 17 7 0 10 -262144 -1 -1 0
1;
#X obj 199 313 gate 3;
#X obj 345 406 unpack f f f f;
#X obj 91 433 s B1-x;
#X obj 118 453 s B1-y;
#X obj 145 473 s B1-size;
#X obj 172 493 s B1-on-off;
#X obj 215 433 s B2-x;
#X obj 62 73 r blue-state;
#X obj 242 453 s B2-y;
#X obj 269 473 s B2-size;
#X obj 296 493 s B2-on-off;
#X obj 345 433 s B3-x;
#X obj 372 453 s B3-y;
#X obj 399 473 s B3-size;
#X obj 426 493 s B3-on-off;
#X connect 2 0 10 0;
#X connect 2 1 11 0;
#X connect 2 2 12 0;
#X connect 2 3 13 0;
#X connect 3 0 14 0;
#X connect 3 1 16 0;
#X connect 3 2 17 0;
#X connect 3 3 18 0;
#X connect 6 0 8 1;
#X connect 7 0 13 0;
#X connect 8 0 2 0;
#X connect 8 1 3 0;
#X connect 8 2 9 0;
#X connect 9 0 19 0;
#X connect 9 1 20 0;
#X connect 9 2 21 0;
#X connect 9 3 22 0;
#X connect 15 0 8 0;
#X restore 9 214 pd router-blue;
#N canvas 67 89 736 557 router-yellow 0;
#X text 177 140 lista vindo das cores;
#X text 80 71 seletores (cores);
#X obj 111 426 unpack f f f f;
#X obj 235 426 unpack f f f f;
#X text 74 166 nao precisamos dos outros blobs \, soh o primeiro daria
para apagar esses aih embaixo...;
#X text 131 113 estados: 0 - desligado 1 - 2 -;
#X obj 252 295 inlet;
#X obj 195 459 tgl 15 0 empty empty empty 17 7 0 10 -262144 -1 -1 0
1;
#X obj 219 333 gate 3;
#X obj 365 426 unpack f f f f;
#X obj 82 93 r yellow-state;
#X obj 111 453 s Y1-x;
#X obj 138 473 s Y1-y;
#X obj 165 493 s Y1-size;
#X obj 192 513 s Y1-on-off;
#X obj 235 453 s Y2-x;
#X obj 262 473 s Y2-y;
#X obj 289 493 s Y2-size;
#X obj 316 514 s Y2-on-off;
#X obj 365 453 s Y3-x;
#X obj 392 473 s Y3-y;
#X obj 419 493 s Y3-size;
#X obj 446 513 s Y3-on-off;
#X connect 2 0 11 0;
#X connect 2 1 12 0;
#X connect 2 2 13 0;
#X connect 2 3 14 0;
#X connect 3 0 15 0;
#X connect 3 1 16 0;
#X connect 3 2 17 0;
#X connect 3 3 18 0;
#X connect 6 0 8 1;
#X connect 7 0 14 0;
#X connect 8 0 2 0;
#X connect 8 1 3 0;
#X connect 8 2 9 0;
#X connect 9 0 19 0;
#X connect 9 1 20 0;
#X connect 9 2 21 0;
#X connect 9 3 22 0;
#X connect 10 0 8 0;
#X restore 113 214 pd router-yellow;
#X obj 432 186 cam-grupo1-tocador~;
#X obj 642 164 r bema;
#X obj 432 144 r carrega;
#N canvas 528 228 450 300 status-control 0;
#X floatatom 101 171 5 0 3 2 R - -;
#X floatatom 141 171 5 0 3 2 G - -;
#X floatatom 180 171 5 0 3 2 B - -;
#X floatatom 220 171 5 0 3 2 Y - -;
#X floatatom 206 101 5 0 0 0 - - -;
#X obj 101 193 s red-state;
#X obj 141 213 s green-state;
#X obj 180 233 s blue-state;
#X obj 220 253 s yellow-state;
#X obj 101 120 bng 15 250 50 0 empty empty empty 17 7 0 10 -262144
-1 -1;
#X obj 116 120 bng 15 250 50 0 empty empty empty 17 7 0 10 -262144
-1 -1;
#X obj 117 136 bng 15 250 50 0 empty empty empty 17 7 0 10 -262144
-1 -1;
#X msg 101 60 1;
#X msg 111 70 2;
#X msg 121 80 3;
#X obj 141 120 bng 15 250 50 0 empty empty empty 17 7 0 10 -262144
-1 -1;
#X obj 156 120 bng 15 250 50 0 empty empty empty 17 7 0 10 -262144
-1 -1;
#X obj 157 136 bng 15 250 50 0 empty empty empty 17 7 0 10 -262144
-1 -1;
#X msg 141 60 1;
#X msg 151 70 2;
#X msg 161 80 3;
#X obj 181 120 bng 15 250 50 0 empty empty empty 17 7 0 10 -262144
-1 -1;
#X obj 196 120 bng 15 250 50 0 empty empty empty 17 7 0 10 -262144
-1 -1;
#X obj 197 136 bng 15 250 50 0 empty empty empty 17 7 0 10 -262144
-1 -1;
#X msg 181 60 1;
#X msg 191 70 2;
#X msg 201 80 3;
#X obj 221 120 bng 15 250 50 0 empty empty empty 17 7 0 10 -262144
-1 -1;
#X obj 236 120 bng 15 250 50 0 empty empty empty 17 7 0 10 -262144
-1 -1;
#X obj 237 136 bng 15 250 50 0 empty empty empty 17 7 0 10 -262144
-1 -1;
#X msg 221 60 1;
#X msg 231 70 2;
#X msg 241 80 3;
#X obj 237 101 bng 15 250 50 0 empty empty empty 17 7 0 10 -262144
-1 -1;
#X msg 213 31 0;
#X obj 117 156 bng 15 250 50 0 empty empty empty 17 7 0 10 -262144
-1 -1;
#X obj 157 156 bng 15 250 50 0 empty empty empty 17 7 0 10 -262144
-1 -1;
#X obj 197 156 bng 15 250 50 0 empty empty empty 17 7 0 10 -262144
-1 -1;
#X obj 237 156 bng 15 250 50 0 empty empty empty 17 7 0 10 -262144
-1 -1;
#X msg 268 170 0;
#X msg 278 180 0;
#X msg 288 190 0;
#X msg 298 200 0;
#X connect 0 0 5 0;
#X connect 1 0 6 0;
#X connect 2 0 7 0;
#X connect 3 0 8 0;
#X connect 4 0 0 0;
#X connect 4 0 1 0;
#X connect 4 0 2 0;
#X connect 4 0 3 0;
#X connect 9 0 12 0;
#X connect 10 0 13 0;
#X connect 11 0 14 0;
#X connect 12 0 0 0;
#X connect 13 0 0 0;
#X connect 14 0 0 0;
#X connect 15 0 18 0;
#X connect 16 0 19 0;
#X connect 17 0 20 0;
#X connect 18 0 1 0;
#X connect 19 0 1 0;
#X connect 20 0 1 0;
#X connect 21 0 24 0;
#X connect 22 0 25 0;
#X connect 23 0 26 0;
#X connect 24 0 2 0;
#X connect 25 0 2 0;
#X connect 26 0 2 0;
#X connect 27 0 30 0;
#X connect 28 0 31 0;
#X connect 29 0 32 0;
#X connect 30 0 3 0;
#X connect 31 0 3 0;
#X connect 32 0 3 0;
#X connect 33 0 34 0;
#X connect 34 0 4 0;
#X connect 35 0 42 0;
#X connect 36 0 41 0;
#X connect 37 0 40 0;
#X connect 38 0 39 0;
#X connect 39 0 3 0;
#X connect 40 0 2 0;
#X connect 41 0 1 0;
#X connect 42 0 0 0;
#X coords 0 -1 1 1 154 90 1 100 100;
#X restore 234 196 pd status-control;
#X obj 432 304 gatte-st~ 50;
#X floatatom 493 284 5 0 100 0 - car-vol -;
#X obj 592 368 r~ delayaa1;
#X obj 233 136 r carrega;
#X msg 302 136 100;
#N canvas 225 143 570 458 inlet 0;
#X obj -94 359 gate~ 50;
#X obj -94 402 s~ delayaa1;
#X obj 101 121 tgl 15 0 empty empty 1-delay1 17 7 0 10 -262144 -1 -1
0 1;
#X obj 101 161 tgl 15 0 empty empty 1-samplers 17 7 0 10 -262144 -1
-1 0 1;
#X obj 101 141 tgl 15 0 empty empty 1-delay2 17 7 0 10 -262144 -1 -1
0 1;
#X obj 66 282 s~ sampler1;
#X obj 191 121 tgl 15 0 empty empty 2-delay1 17 7 0 10 -262144 -1 -1
0 1;
#X obj 191 161 tgl 15 0 empty empty 2-sampler1 17 7 0 10 -262144 -1
-1 0 1;
#X obj 191 141 tgl 15 0 empty empty 2-delay1 17 7 0 10 -262144 -1 -1
0 1;
#X obj 191 181 tgl 15 0 empty empty 2-sampler2 17 7 0 10 -262144 -1
-1 0 1;
#X obj 66 239 gate~ 50;
#X obj 76 302 s~ sampler2;
#X obj 86 322 s~ sampler3;
#X obj 26 359 gate~ 50;
#X obj 26 402 s~ delayaa2;
#X obj 26 60 adc~ 1;
#X connect 0 0 1 0;
#X connect 2 0 0 1;
#X connect 3 0 10 1;
#X connect 4 0 13 1;
#X connect 10 0 5 0;
#X connect 10 0 11 0;
#X connect 10 0 12 0;
#X connect 13 0 14 0;
#X connect 15 0 0 0;
#X connect 15 0 10 0;
#X connect 15 0 13 0;
#X coords 0 -1 1 1 80 80 1 100 100;
#X restore 9 243 pd inlet;
#X obj 878 596 r bema;
#X obj 693 576 r carrega;
#X obj 730 596 r G2-x;
#X obj 767 576 r G2-y;
#X obj 804 596 r G2-size;
#X obj 841 576 r G2-on-off;
#X obj 693 703 dac~;
#X obj 29 492 if-last-3-is-zero red;
#N canvas 94 91 515 708 grava-sample-1 0;
#X obj 53 199 samp-ctlr~;
#X obj 54 58 inlet~;
#X obj 229 101 tgl 30 0 empty empty empty 17 7 0 10 -262144 -1 -1 0
1;
#X obj 53 237 tabwrite~ area-grava-1;
#X floatatom 102 143 5 0 100 2 vol - -;
#X floatatom 136 143 5 0 100 2 space - -;
#X obj 136 78 * 100;
#X obj 232 61 * 100;
#X obj 100 160 bng 15 250 50 0 empty empty empty 17 7 0 10 -262144
-1 -1;
#X msg 61 162 1;
#X floatatom 171 143 5 0 0 2 veloc - -;
#X obj 74 414 space1~ 50;
#X obj 278 148 t f f;
#X obj 171 -71 inlet velocidade y;
#X obj 232 36 inlet volume size;
#X obj 278 63 inlet on-off;
#X obj 267 593 outlet~;
#X obj 136 56 inlet space x;
#X obj 313 310 t b f;
#X floatatom 313 284 5 0 0 0 - - -;
#X floatatom 313 388 5 0 0 0 - - -;
#X obj 267 437 phasor~;
#X obj 267 469 *~;
#X obj 278 109 no-repet;
#X obj 305 174 sel 1;
#X msg 352 333 0;
#X floatatom 347 114 5 0 0 0 - - -;
#X obj 305 197 t b b;
#X obj 356 194 bng 15 250 50 0 empty empty empty 17 7 0 10 -262144
-1 -1;
#X obj 278 86 if-last-3-is-zero red;
#X floatatom 279 268 5 0 0 0 - - -;
#X obj 383 114 bng 15 250 50 0 empty empty empty 17 7 0 10 -262144
-1 -1;
#X obj 267 523 gatte~ 50;
#X msg 414 113 1;
#X msg 424 123 0;
#X obj 171 6 * 20;
#X obj 171 33 / 5;
#X obj 267 403 *~;
#X obj 266 376 line~;
#X msg 266 351 \$1 20;
#X obj 267 496 tabread4~ area-grava-1;
#X obj 216 144 tgl 15 0 empty empty spc-aleat -10 -10 0 10 -262144
-1 -1 0 1;
#X obj 243 143 tgl 15 0 empty empty empty 17 7 0 10 -262144 -1 -1 0
1;
#X obj 74 474 dac~;
#X obj 171 -38 * -1;
#X obj 171 -16 + 1;
#X obj 389 252 / 1000;
#X obj 279 218 t f b f;
#X msg 389 229 1;
#X obj 313 364 / 1000;
#X msg 313 337 1000;
#X obj 262 298 * 44.1;
#X floatatom 155 333 10 0 0 0 - - -;
#X obj 136 308 + 100;
#X obj 136 271 * -1;
#X obj 214 101 bng 15 250 50 0 empty empty empty 17 7 0 10 -262144
-1 -1;
#X obj 177 116 tgl 15 0 empty empty fx 17 7 0 10 -262144 -1 -1 0 1
;
#X obj 206 189 sel 0 1;
#X msg 118 362 1;
#X msg 148 362 0;
#X obj 54 357 r carrega;
#X msg 341 544 1;
#X msg 311 544 0;
#X obj 74 384 gate~ 1000;
#X obj 267 566 gate~ 1000;
#X connect 0 0 3 0;
#X connect 0 1 3 0;
#X connect 0 2 47 0;
#X connect 1 0 0 0;
#X connect 2 0 0 1;
#X connect 4 0 32 1;
#X connect 5 0 54 0;
#X connect 6 0 5 0;
#X connect 7 0 4 0;
#X connect 8 0 9 0;
#X connect 10 0 39 0;
#X connect 11 0 43 0;
#X connect 11 1 43 1;
#X connect 12 0 32 2;
#X connect 12 1 24 0;
#X connect 13 0 44 0;
#X connect 14 0 7 0;
#X connect 15 0 29 0;
#X connect 17 0 6 0;
#X connect 18 0 50 0;
#X connect 18 1 49 1;
#X connect 19 0 18 0;
#X connect 20 0 37 1;
#X connect 21 0 22 0;
#X connect 22 0 40 0;
#X connect 23 0 12 0;
#X connect 24 0 27 0;
#X connect 24 0 28 0;
#X connect 25 0 21 1;
#X connect 26 0 12 0;
#X connect 27 1 25 0;
#X connect 29 0 23 0;
#X connect 30 0 51 0;
#X connect 31 0 26 0;
#X connect 32 0 11 0;
#X connect 32 0 63 0;
#X connect 32 0 64 0;
#X connect 33 0 26 0;
#X connect 34 0 26 0;
#X connect 35 0 36 0;
#X connect 36 0 10 0;
#X connect 37 0 21 0;
#X connect 38 0 37 0;
#X connect 39 0 38 0;
#X connect 40 0 32 0;
#X connect 41 0 11 1;
#X connect 42 0 26 0;
#X connect 44 0 45 0;
#X connect 45 0 35 0;
#X connect 47 0 30 0;
#X connect 47 2 46 1;
#X connect 47 2 19 0;
#X connect 48 0 46 0;
#X connect 49 0 20 0;
#X connect 50 0 49 0;
#X connect 51 0 22 1;
#X connect 53 0 11 2;
#X connect 53 0 52 0;
#X connect 54 0 53 0;
#X connect 55 0 34 0;
#X connect 56 0 57 0;
#X connect 57 0 58 0;
#X connect 57 0 62 0;
#X connect 57 1 59 0;
#X connect 57 1 61 0;
#X connect 58 0 63 1;
#X connect 59 0 63 1;
#X connect 60 0 58 0;
#X connect 61 0 64 1;
#X connect 62 0 64 1;
#X connect 63 0 11 0;
#X connect 64 0 16 0;
#X coords 0 -1 1 1 160 60 1 100 100;
#X restore 186 338 pd grava-sample-1;
#N canvas 564 145 515 654 grava-sample-2 0;
#X obj 53 199 samp-ctlr~;
#X obj 54 58 inlet~;
#X obj 229 101 tgl 30 0 empty empty empty 17 7 0 10 -262144 -1 -1 0
1;
#X floatatom 102 143 5 0 100 2 vol - -;
#X floatatom 136 143 5 0 100 2 space - -;
#X obj 136 78 * 100;
#X obj 232 61 * 100;
#X obj 100 160 bng 15 250 50 0 empty empty empty 17 7 0 10 -262144
-1 -1;
#X msg 61 162 1;
#X floatatom 171 143 5 0 0 2 veloc - -;
#X obj 74 414 space1~ 50;
#X obj 278 148 t f f;
#X obj 171 -71 inlet velocidade y;
#X obj 232 36 inlet volume size;
#X obj 278 63 inlet on-off;
#X obj 267 593 outlet~;
#X obj 136 56 inlet space x;
#X obj 313 310 t b f;
#X floatatom 313 284 5 0 0 0 - - -;
#X floatatom 313 388 5 0 0 0 - - -;
#X obj 267 437 phasor~;
#X obj 267 469 *~;
#X obj 278 109 no-repet;
#X obj 305 174 sel 1;
#X msg 352 333 0;
#X floatatom 347 114 5 0 0 0 - - -;
#X obj 305 197 t b b;
#X obj 356 194 bng 15 250 50 0 empty empty empty 17 7 0 10 -262144
-1 -1;
#X obj 278 86 if-last-3-is-zero red;
#X floatatom 279 268 5 0 0 0 - - -;
#X obj 383 114 bng 15 250 50 0 empty empty empty 17 7 0 10 -262144
-1 -1;
#X obj 267 523 gatte~ 50;
#X msg 414 113 1;
#X msg 424 123 0;
#X obj 171 6 * 20;
#X obj 171 33 / 5;
#X obj 267 403 *~;
#X obj 266 376 line~;
#X msg 266 351 \$1 20;
#X obj 216 144 tgl 15 0 empty empty spc-aleat -10 -10 0 10 -262144
-1 -1 0 1;
#X obj 243 143 tgl 15 0 empty empty empty 17 7 0 10 -262144 -1 -1 0
1;
#X obj 74 474 dac~;
#X obj 171 -38 * -1;
#X obj 171 -16 + 1;
#X obj 389 252 / 1000;
#X obj 279 218 t f b f;
#X msg 389 229 1;
#X obj 313 364 / 1000;
#X msg 313 337 1000;
#X obj 262 298 * 44.1;
#X floatatom 155 333 10 0 0 0 - - -;
#X obj 136 308 + 100;
#X obj 136 271 * -1;
#X obj 214 101 bng 15 250 50 0 empty empty empty 17 7 0 10 -262144
-1 -1;
#X obj 177 116 tgl 15 0 empty empty fx 17 7 0 10 -262144 -1 -1 0 1
;
#X obj 206 189 sel 0 1;
#X msg 118 362 1;
#X msg 148 362 0;
#X obj 54 357 r carrega;
#X msg 341 544 1;
#X msg 311 544 0;
#X obj 74 384 gate~ 1000;
#X obj 267 566 gate~ 1000;
#X obj 267 496 tabread4~ area-grava-2;
#X obj 53 237 tabwrite~ area-grava-2;
#X connect 0 0 64 0;
#X connect 0 1 64 0;
#X connect 0 2 45 0;
#X connect 1 0 0 0;
#X connect 2 0 0 1;
#X connect 3 0 31 1;
#X connect 4 0 52 0;
#X connect 5 0 4 0;
#X connect 6 0 3 0;
#X connect 7 0 8 0;
#X connect 9 0 38 0;
#X connect 10 0 41 0;
#X connect 10 1 41 1;
#X connect 11 0 31 2;
#X connect 11 1 23 0;
#X connect 12 0 42 0;
#X connect 13 0 6 0;
#X connect 14 0 28 0;
#X connect 16 0 5 0;
#X connect 17 0 48 0;
#X connect 17 1 47 1;
#X connect 18 0 17 0;
#X connect 19 0 36 1;
#X connect 20 0 21 0;
#X connect 21 0 63 0;
#X connect 22 0 11 0;
#X connect 23 0 26 0;
#X connect 23 0 27 0;
#X connect 24 0 20 1;
#X connect 25 0 11 0;
#X connect 26 1 24 0;
#X connect 28 0 22 0;
#X connect 29 0 49 0;
#X connect 30 0 25 0;
#X connect 31 0 10 0;
#X connect 31 0 61 0;
#X connect 31 0 62 0;
#X connect 32 0 25 0;
#X connect 33 0 25 0;
#X connect 34 0 35 0;
#X connect 35 0 9 0;
#X connect 36 0 20 0;
#X connect 37 0 36 0;
#X connect 38 0 37 0;
#X connect 39 0 10 1;
#X connect 40 0 25 0;
#X connect 42 0 43 0;
#X connect 43 0 34 0;
#X connect 45 0 29 0;
#X connect 45 2 44 1;
#X connect 45 2 18 0;
#X connect 46 0 44 0;
#X connect 47 0 19 0;
#X connect 48 0 47 0;
#X connect 49 0 21 1;
#X connect 51 0 10 2;
#X connect 51 0 50 0;
#X connect 52 0 51 0;
#X connect 53 0 33 0;
#X connect 54 0 55 0;
#X connect 55 0 56 0;
#X connect 55 0 60 0;
#X connect 55 1 57 0;
#X connect 55 1 59 0;
#X connect 56 0 61 1;
#X connect 57 0 61 1;
#X connect 58 0 56 0;
#X connect 59 0 62 1;
#X connect 60 0 62 1;
#X connect 61 0 10 0;
#X connect 62 0 15 0;
#X connect 63 0 31 0;
#X coords 0 -1 1 1 160 60 1 100 100;
#X restore 186 478 pd grava-sample-2;
#N canvas 576 145 515 654 grava-sample-3 0;
#X obj 53 199 samp-ctlr~;
#X obj 54 58 inlet~;
#X obj 229 101 tgl 30 0 empty empty empty 17 7 0 10 -262144 -1 -1 0
1;
#X floatatom 102 143 5 0 100 2 vol - -;
#X floatatom 136 143 5 0 100 2 space - -;
#X obj 136 78 * 100;
#X obj 232 61 * 100;
#X obj 100 160 bng 15 250 50 0 empty empty empty 17 7 0 10 -262144
-1 -1;
#X msg 61 162 1;
#X floatatom 171 143 5 0 0 2 veloc - -;
#X obj 74 414 space1~ 50;
#X obj 278 148 t f f;
#X obj 171 -71 inlet velocidade y;
#X obj 232 36 inlet volume size;
#X obj 278 63 inlet on-off;
#X obj 267 593 outlet~;
#X obj 136 56 inlet space x;
#X obj 313 310 t b f;
#X floatatom 313 284 5 0 0 0 - - -;
#X floatatom 313 388 5 0 0 0 - - -;
#X obj 267 437 phasor~;
#X obj 267 469 *~;
#X obj 278 109 no-repet;
#X obj 305 174 sel 1;
#X msg 352 333 0;
#X floatatom 347 114 5 0 0 0 - - -;
#X obj 305 197 t b b;
#X obj 356 194 bng 15 250 50 0 empty empty empty 17 7 0 10 -262144
-1 -1;
#X obj 278 86 if-last-3-is-zero red;
#X floatatom 279 268 5 0 0 0 - - -;
#X obj 383 114 bng 15 250 50 0 empty empty empty 17 7 0 10 -262144
-1 -1;
#X obj 267 523 gatte~ 50;
#X msg 414 113 1;
#X msg 424 123 0;
#X obj 171 6 * 20;
#X obj 171 33 / 5;
#X obj 267 403 *~;
#X obj 266 376 line~;
#X msg 266 351 \$1 20;
#X obj 216 144 tgl 15 0 empty empty spc-aleat -10 -10 0 10 -262144
-1 -1 0 1;
#X obj 243 143 tgl 15 0 empty empty empty 17 7 0 10 -262144 -1 -1 0
1;
#X obj 74 474 dac~;
#X obj 171 -38 * -1;
#X obj 171 -16 + 1;
#X obj 389 252 / 1000;
#X obj 279 218 t f b f;
#X msg 389 229 1;
#X obj 313 364 / 1000;
#X msg 313 337 1000;
#X obj 262 298 * 44.1;
#X floatatom 155 333 10 0 0 0 - - -;
#X obj 136 308 + 100;
#X obj 136 271 * -1;
#X obj 214 101 bng 15 250 50 0 empty empty empty 17 7 0 10 -262144
-1 -1;
#X obj 177 116 tgl 15 0 empty empty fx 17 7 0 10 -262144 -1 -1 0 1
;
#X obj 206 189 sel 0 1;
#X msg 118 362 1;
#X msg 148 362 0;
#X obj 54 357 r carrega;
#X msg 341 544 1;
#X msg 311 544 0;
#X obj 74 384 gate~ 1000;
#X obj 267 566 gate~ 1000;
#X obj 267 496 tabread4~ area-grava-3;
#X obj 53 237 tabwrite~ area-grava-3;
#X connect 0 0 64 0;
#X connect 0 1 64 0;
#X connect 0 2 45 0;
#X connect 1 0 0 0;
#X connect 2 0 0 1;
#X connect 3 0 31 1;
#X connect 4 0 52 0;
#X connect 5 0 4 0;
#X connect 6 0 3 0;
#X connect 7 0 8 0;
#X connect 9 0 38 0;
#X connect 10 0 41 0;
#X connect 10 1 41 1;
#X connect 11 0 31 2;
#X connect 11 1 23 0;
#X connect 12 0 42 0;
#X connect 13 0 6 0;
#X connect 14 0 28 0;
#X connect 16 0 5 0;
#X connect 17 0 48 0;
#X connect 17 1 47 1;
#X connect 18 0 17 0;
#X connect 19 0 36 1;
#X connect 20 0 21 0;
#X connect 21 0 63 0;
#X connect 22 0 11 0;
#X connect 23 0 26 0;
#X connect 23 0 27 0;
#X connect 24 0 20 1;
#X connect 25 0 11 0;
#X connect 26 1 24 0;
#X connect 28 0 22 0;
#X connect 29 0 49 0;
#X connect 30 0 25 0;
#X connect 31 0 10 0;
#X connect 31 0 61 0;
#X connect 31 0 62 0;
#X connect 32 0 25 0;
#X connect 33 0 25 0;
#X connect 34 0 35 0;
#X connect 35 0 9 0;
#X connect 36 0 20 0;
#X connect 37 0 36 0;
#X connect 38 0 37 0;
#X connect 39 0 10 1;
#X connect 40 0 25 0;
#X connect 42 0 43 0;
#X connect 43 0 34 0;
#X connect 45 0 29 0;
#X connect 45 2 44 1;
#X connect 45 2 18 0;
#X connect 46 0 44 0;
#X connect 47 0 19 0;
#X connect 48 0 47 0;
#X connect 49 0 21 1;
#X connect 51 0 10 2;
#X connect 51 0 50 0;
#X connect 52 0 51 0;
#X connect 53 0 33 0;
#X connect 54 0 55 0;
#X connect 55 0 56 0;
#X connect 55 0 60 0;
#X connect 55 1 57 0;
#X connect 55 1 59 0;
#X connect 56 0 61 1;
#X connect 57 0 61 1;
#X connect 58 0 56 0;
#X connect 59 0 62 1;
#X connect 60 0 62 1;
#X connect 61 0 10 0;
#X connect 62 0 15 0;
#X connect 63 0 31 0;
#X coords 0 -1 1 1 160 60 1 100 100;
#X restore 186 637 pd grava-sample-3;
#X obj 186 291 r~ sampler1;
#X obj 186 431 r~ sampler2;
#X obj 186 591 r~ sampler3;
#X obj 842 368 r~ delayaa2;
#X obj 618 596 r bema;
#X obj 433 576 r carrega;
#X obj 433 703 dac~;
#X obj 912 164 r bema;
#X obj 702 144 r carrega;
#X obj 744 164 r G1-x;
#X obj 786 144 r G1-y;
#X obj 828 164 r G1-size;
#X obj 870 144 r G1-on-off;
#X obj 702 304 gatte-st~ 50;
#X floatatom 763 284 5 0 100 0 - car-vol -;
#X obj 470 596 r R2-x;
#X obj 507 576 r R2-y;
#X obj 581 576 r R2-on-off;
#X obj 544 596 r R2-size;
#X obj 224 317 r R3-x;
#X obj 262 297 r R3-y;
#X obj 300 317 r R3-size;
#X obj 339 297 r R3-on-off;
#X obj 474 164 r R1-x;
#X obj 516 144 r R1-y;
#X obj 558 164 r R1-size;
#X obj 600 144 r R1-on-off;
#X obj 702 186 cam-grupo1-tocador~;
#X obj 262 437 r G3-y;
#X obj 224 457 r G3-x;
#X obj 300 457 r G3-size;
#X obj 339 437 r G3-on-off;
#X obj 224 617 r B3-x;
#X obj 262 597 r B3-y;
#X obj 300 617 r B3-size;
#X obj 339 597 r B3-on-off;
#N canvas 67 191 450 598 fx-1 0;
#X obj 82 445 dac~;
#X obj 324 173 osc~;
#X obj 308 203 *~;
#X obj 83 25 inlet~;
#X obj 103 121 tgl 15 0 empty empty RM1 0 20 0 10 -262144 -1 -1 0 1
;
#X obj 123 121 tgl 15 0 empty empty RM2 0 20 0 10 -262144 -1 -1 0 1
;
#X obj 103 165 sel 0 1;
#X msg 127 280 1;
#X msg 157 280 0;
#X obj 63 275 r carrega;
#X obj 163 165 sel 0 1;
#X msg 382 220 1;
#X msg 352 220 0;
#X floatatom 143 121 5 0 0 0 - - -;
#X obj 173 79 *;
#X floatatom 173 121 5 0 0 0 - - -;
#X obj 254 243 osc~;
#X obj 238 273 *~;
#X msg 313 300 1;
#X msg 283 300 0;
#X obj 143 7 r slider2;
#X obj 173 27 r slider3;
#X obj 188 47 r slider4;
#X obj 144 363 r slider1;
#X obj 238 222 *~ 1.3;
#X obj 239 322 gate~ 1000;
#X obj 308 242 gate~ 1000;
#X obj 308 152 *~ 1.3;
#X obj 143 50 * 0.5;
#X obj 82 385 space1~ 50;
#X obj 25 113 r~ fx1;
#X obj 83 302 gate~ 5000;
#X obj 83 332 gate~ 5000;
#X obj 195 102 tgl 15 0 empty empty empty 17 7 0 10 -262144 -1 -1 0
1;
#X connect 1 0 2 1;
#X connect 2 0 26 0;
#X connect 3 0 24 0;
#X connect 3 0 27 0;
#X connect 3 0 31 0;
#X connect 4 0 6 0;
#X connect 5 0 10 0;
#X connect 6 0 7 0;
#X connect 6 0 19 0;
#X connect 6 1 8 0;
#X connect 6 1 18 0;
#X connect 7 0 31 1;
#X connect 8 0 31 1;
#X connect 9 0 7 0;
#X connect 10 0 7 0;
#X connect 10 0 12 0;
#X connect 10 1 8 0;
#X connect 10 1 11 0;
#X connect 11 0 26 1;
#X connect 12 0 26 1;
#X connect 13 0 16 0;
#X connect 14 0 15 0;
#X connect 15 0 1 0;
#X connect 16 0 17 1;
#X connect 17 0 25 0;
#X connect 18 0 25 1;
#X connect 19 0 25 1;
#X connect 20 0 28 0;
#X connect 21 0 14 0;
#X connect 22 0 14 1;
#X connect 23 0 29 2;
#X connect 24 0 17 0;
#X connect 25 0 29 0;
#X connect 26 0 29 0;
#X connect 27 0 2 0;
#X connect 28 0 13 0;
#X connect 29 0 0 0;
#X connect 29 1 0 1;
#X connect 30 0 27 0;
#X connect 30 0 24 0;
#X connect 30 0 31 0;
#X connect 31 0 32 0;
#X connect 32 0 29 0;
#X connect 33 0 32 1;
#X coords 0 -1 1 1 110 50 1 100 100;
#X restore 592 467 pd fx-1;
#N canvas 67 155 450 598 fx-2 0;
#X obj 82 445 dac~;
#X obj 324 173 osc~;
#X obj 308 203 *~;
#X obj 83 25 inlet~;
#X obj 83 292 gate~ 500;
#X obj 103 121 tgl 15 0 empty empty RM1 0 20 0 10 -262144 -1 -1 0 1
;
#X obj 123 121 tgl 15 0 empty empty RM2 0 20 0 10 -262144 -1 -1 0 1
;
#X obj 103 165 sel 0 1;
#X msg 127 270 1;
#X msg 157 270 0;
#X obj 63 265 r carrega;
#X obj 163 165 sel 0 1;
#X obj 308 232 gate~ 500;
#X msg 382 210 1;
#X msg 352 210 0;
#X floatatom 143 121 5 0 0 0 - - -;
#X obj 173 79 *;
#X floatatom 173 121 5 0 0 0 - - -;
#X obj 254 243 osc~;
#X obj 238 273 *~;
#X obj 238 302 gate~ 500;
#X msg 312 280 1;
#X msg 282 280 0;
#X obj 238 222 *~ 1.3;
#X obj 308 152 *~ 1.3;
#X obj 143 54 * 0.5;
#X obj 82 385 space1~ 50;
#X obj 55 63 r~ fx2a;
#X obj 15 113 r~ fx2b;
#X obj 193 102 tgl 15 0 empty empty empty 17 7 0 10 -262144 -1 -1 1
1;
#X obj 83 322 gate~ 500;
#X obj 143 7 r slider6;
#X obj 173 27 r slider7;
#X obj 188 47 r slider8;
#X obj 144 363 r slider5;
#X connect 1 0 2 1;
#X connect 2 0 12 0;
#X connect 3 0 4 0;
#X connect 3 0 24 0;
#X connect 3 0 23 0;
#X connect 4 0 30 0;
#X connect 5 0 7 0;
#X connect 6 0 11 0;
#X connect 7 0 8 0;
#X connect 7 0 22 0;
#X connect 7 1 9 0;
#X connect 7 1 21 0;
#X connect 8 0 4 1;
#X connect 9 0 4 1;
#X connect 10 0 8 0;
#X connect 11 0 8 0;
#X connect 11 0 14 0;
#X connect 11 1 9 0;
#X connect 11 1 13 0;
#X connect 12 0 26 0;
#X connect 13 0 12 1;
#X connect 14 0 12 1;
#X connect 15 0 18 0;
#X connect 16 0 17 0;
#X connect 17 0 1 0;
#X connect 18 0 19 1;
#X connect 19 0 20 0;
#X connect 20 0 26 0;
#X connect 21 0 20 1;
#X connect 22 0 20 1;
#X connect 23 0 19 0;
#X connect 24 0 2 0;
#X connect 25 0 15 0;
#X connect 26 0 0 0;
#X connect 26 1 0 1;
#X connect 27 0 4 0;
#X connect 27 0 24 0;
#X connect 27 0 23 0;
#X connect 28 0 4 0;
#X connect 28 0 24 0;
#X connect 28 0 23 0;
#X connect 29 0 30 1;
#X connect 30 0 26 0;
#X connect 31 0 25 0;
#X connect 32 0 16 0;
#X connect 33 0 16 1;
#X connect 34 0 26 2;
#X coords 0 -1 1 1 110 50 1 100 100;
#X restore 842 467 pd fx-2;
#X obj 970 368 r fader5;
#X obj 720 368 r fader1;
#X obj 785 368 r fader2;
#X obj 1035 368 r fader6;
#X msg 84 72 1-carrega \; 2-volumes \; 3-conferir_faders-sliders;
#X obj 842 395 delayaa~ 10000;
#X obj 185 542 s~ fx2a;
#X obj 185 703 s~ fx2b;
#X obj 185 403 s~ fx1;
#X obj 433 623 cam-tocador-phasor1~;
#X obj 1128 596 r bema;
#X obj 943 576 r carrega;
#X obj 943 703 dac~;
#X obj 980 596 r B2-x;
#X obj 1017 576 r B2-y;
#X obj 1054 596 r B2-size;
#X obj 1091 576 r B2-on-off;
#X obj 1182 164 r bema;
#X obj 972 144 r carrega;
#X obj 972 304 gatte-st~ 50;
#X floatatom 1033 284 5 0 100 0 - car-vol -;
#X obj 972 186 cam-grupo1-tocador~;
#X obj 1014 164 r B1-x;
#X obj 1056 144 r B1-y;
#X obj 1098 164 r B1-size;
#X obj 1140 144 r B1-on-off;
#X obj 718 486 gatt~ 200;
#X obj 345 704 gate~ 50;
#X obj 359 682 osc~ 100;
#X obj 233 158 roteia;
#X obj 445 343 adc~ 1;
#X obj 445 490 space1~ 50;
#X obj 507 418 * 100;
#X obj 445 550 dac~;
#X floatatom 470 415 5 0 0 0 - - -;
#X obj 446 375 gatte~ 50;
#X obj 507 396 r B1-x;
#X obj 365 374 gate~ 50;
#X obj 379 352 osc~ 100;
#X obj 693 623 cam-tocador-phasor1~;
#X obj 943 623 cam-tocador-phasor1~;
#X obj 592 395 delayaa~ 5000;
#X obj 507 443 * -1;
#X obj 507 467 + 100;
#X msg 497 354 100;
#X obj 523 354 r carrega;
#X connect 1 0 2 0;
#X connect 1 0 19 0;
#X connect 3 0 9 0;
#X connect 5 0 20 1;
#X connect 6 0 20 2;
#X connect 7 0 20 0;
#X connect 11 0 10 0;
#X connect 12 0 30 0;
#X connect 13 0 30 1;
#X connect 14 0 30 2;
#X connect 15 0 16 0;
#X connect 16 1 1 0;
#X connect 17 0 30 4;
#X connect 18 0 20 4;
#X connect 19 0 3 0;
#X connect 20 0 21 0;
#X connect 20 1 21 1;
#X connect 20 2 31 0;
#X connect 23 0 22 0;
#X connect 24 0 21 2;
#X connect 25 0 26 2;
#X connect 27 0 23 0;
#X connect 28 0 29 0;
#X connect 30 0 26 0;
#X connect 30 1 26 1;
#X connect 30 2 32 0;
#X connect 33 0 38 0;
#X connect 33 0 61 0;
#X connect 34 0 23 0;
#X connect 35 0 37 0;
#X connect 35 0 36 0;
#X connect 37 0 41 0;
#X connect 37 1 40 0;
#X connect 37 2 42 0;
#X connect 37 3 43 0;
#X connect 44 0 48 0;
#X connect 44 1 48 1;
#X connect 44 2 101 0;
#X connect 45 0 44 5;
#X connect 46 0 44 0;
#X connect 49 0 48 2;
#X connect 50 0 144 0;
#X connect 51 0 52 0;
#X connect 52 0 132 1;
#X connect 52 0 132 0;
#X connect 54 0 142 5;
#X connect 55 0 142 0;
#X connect 56 0 142 1;
#X connect 57 0 142 2;
#X connect 58 0 142 3;
#X connect 59 0 142 4;
#X connect 61 0 39 0;
#X connect 62 0 111 0;
#X connect 63 0 109 0;
#X connect 64 0 110 0;
#X connect 65 0 62 0;
#X connect 66 0 63 0;
#X connect 67 0 64 0;
#X connect 68 0 108 0;
#X connect 69 0 112 5;
#X connect 70 0 112 0;
#X connect 72 0 92 5;
#X connect 73 0 92 0;
#X connect 74 0 92 1;
#X connect 75 0 92 2;
#X connect 76 0 92 3;
#X connect 77 0 92 4;
#X connect 79 0 78 2;
#X connect 80 0 112 1;
#X connect 81 0 112 2;
#X connect 82 0 112 4;
#X connect 83 0 112 3;
#X connect 84 0 62 1;
#X connect 85 0 62 2;
#X connect 86 0 62 3;
#X connect 87 0 62 4;
#X connect 88 0 44 1;
#X connect 89 0 44 2;
#X connect 90 0 44 3;
#X connect 91 0 44 4;
#X connect 92 0 78 0;
#X connect 92 1 78 1;
#X connect 92 2 101 0;
#X connect 93 0 63 2;
#X connect 94 0 63 1;
#X connect 95 0 63 3;
#X connect 96 0 63 4;
#X connect 97 0 64 1;
#X connect 98 0 64 2;
#X connect 99 0 64 3;
#X connect 100 0 64 4;
#X connect 103 0 108 2;
#X connect 104 0 144 2;
#X connect 105 0 144 3;
#X connect 106 0 108 3;
#X connect 108 0 102 0;
#X connect 112 0 71 0;
#X connect 112 1 71 1;
#X connect 113 0 143 5;
#X connect 114 0 143 0;
#X connect 116 0 143 1;
#X connect 117 0 143 2;
#X connect 118 0 143 3;
#X connect 119 0 143 4;
#X connect 120 0 124 5;
#X connect 121 0 124 0;
#X connect 123 0 122 2;
#X connect 125 0 124 1;
#X connect 126 0 124 2;
#X connect 127 0 124 3;
#X connect 128 0 124 4;
#X connect 129 0 108 0;
#X connect 130 0 71 0;
#X connect 130 0 71 1;
#X connect 131 0 130 0;
#X connect 133 0 138 0;
#X connect 134 0 136 0;
#X connect 134 1 136 1;
#X connect 135 0 145 0;
#X connect 138 0 134 0;
#X connect 139 0 135 0;
#X connect 139 0 137 0;
#X connect 140 0 138 0;
#X connect 141 0 140 0;
#X connect 142 0 60 0;
#X connect 142 1 60 1;
#X connect 143 0 115 0;
#X connect 143 1 115 1;
#X connect 144 0 101 0;
#X connect 144 0 129 0;
#X connect 145 0 146 0;
#X connect 146 0 134 2;
#X connect 147 0 138 1;
#X connect 148 0 147 0;
