#N canvas 671 33 450 300 10;
#N canvas 0 329 450 378 loadar-samples 0;
#X obj 75 199 coll ./load-samples.txt;
#C restore;
#X obj 75 146 counter 20;
#X floatatom 75 173 5 0 0 0 - - -;
#X obj 75 10 r carrega;
#X obj 75 119 metro 10;
#X obj 75 94 tgl 15 0 empty empty empty 17 7 0 10 -262144 -1 -1 0 1
;
#X msg 75 67 1;
#X msg 105 67 0;
#X obj 75 327 soundfiler;
#X msg 165 163 read ./load-samples.txt;
#X obj 75 267 pack s s;
#X msg 34 119 0;
#X obj 50 20 bng 15 250 50 0 empty empty empty 17 7 0 10 -262144 -1
-1;
#N canvas 0 0 450 300 areas 0;
#X obj 48 97 table area04;
#X obj 48 77 table area03;
#X obj 48 57 table area02;
#X obj 48 37 table area01;
#X obj 48 117 table area05;
#X restore 231 56 pd areas;
#X obj 75 35 t b b b;
#X obj 75 236 unpack s f f s;
#X msg 75 293 read -resize /media/sda1/sons/barquinho/\$1 \$2;
#X connect 0 0 15 0;
#X connect 1 0 2 0;
#X connect 1 2 7 0;
#X connect 2 0 0 0;
#X connect 3 0 14 0;
#X connect 4 0 1 0;
#X connect 5 0 4 0;
#X connect 6 0 5 0;
#X connect 7 0 5 0;
#X connect 9 0 0 0;
#X connect 10 0 16 0;
#X connect 11 0 1 0;
#X connect 12 0 14 0;
#X connect 14 0 6 0;
#X connect 14 1 11 0;
#X connect 14 2 9 0;
#X connect 15 0 10 0;
#X connect 15 3 10 1;
#X connect 16 0 8 0;
#X restore 14 14 pd loadar-samples;
#X obj 178 23 bng 15 250 50 0 empty empty empty 17 7 0 10 -262144 -1
-1;
#X obj 178 48 s carrega;
#X obj 271 41 s tempo;
#X floatatom 271 20 5 0 0 2 bema-ms - -;
#X obj 19 94 toca-barco~;
#X obj 19 187 dac~;
#X msg 305 19 500;
#X connect 1 0 2 0;
#X connect 4 0 3 0;
#X connect 5 0 6 0;
#X connect 5 0 6 1;
#X connect 7 0 4 0;
