#N canvas 653 24 577 329 10;
#N canvas 635 314 450 378 loadar-samples 0;
#X obj 75 199 coll ./load-samples.txt;
#C restore;
#X obj 75 146 counter 20;
#X floatatom 75 173 5 0 0 0 - - -;
#X obj 75 10 r carrega;
#X obj 75 119 metro 10;
#X obj 75 94 tgl 15 0 empty empty empty 17 7 0 10 -262144 -1 -1 0 1
;
#X msg 75 67 1;
#X msg 105 67 0;
#X obj 75 327 soundfiler;
#X msg 165 163 read ./load-samples.txt;
#X obj 75 267 pack s s;
#X msg 34 119 0;
#X obj 50 20 bng 15 250 50 0 empty empty empty 17 7 0 10 -262144 -1
-1;
#N canvas 0 0 450 300 areas 0;
#X obj 48 97 table area04;
#X obj 48 77 table area03;
#X obj 48 57 table area02;
#X obj 48 37 table area01;
#X obj 48 117 table area05;
#X obj 48 137 table area06;
#X obj 48 157 table area07;
#X obj 48 177 table area08;
#X obj 48 197 table area09;
#X obj 48 17 table area00;
#X restore 231 56 pd areas;
#X obj 75 35 t b b b;
#X obj 75 236 unpack s f f s;
#X msg 75 293 read -maxsize 1e+07 -resize /media/sda1/sons/barquinho/\$1
\$2;
#X connect 0 0 15 0;
#X connect 1 0 2 0;
#X connect 1 2 7 0;
#X connect 2 0 0 0;
#X connect 3 0 14 0;
#X connect 4 0 1 0;
#X connect 5 0 4 0;
#X connect 6 0 5 0;
#X connect 7 0 5 0;
#X connect 9 0 0 0;
#X connect 10 0 16 0;
#X connect 11 0 1 0;
#X connect 12 0 14 0;
#X connect 14 0 6 0;
#X connect 14 1 11 0;
#X connect 14 2 9 0;
#X connect 15 0 10 0;
#X connect 15 3 10 1;
#X connect 16 0 8 0;
#X restore 14 14 pd loadar-samples;
#X obj 178 23 bng 15 250 50 0 empty empty empty 17 7 0 10 -262144 -1
-1;
#X obj 178 48 s carrega;
#X obj 271 41 s tempo;
#X floatatom 271 20 5 0 0 2 bema-ms - -;
#X obj 19 94 toca-barco~;
#X msg 305 19 500;
#N canvas 0 0 450 300 keey 0;
#X obj 75 18 key;
#X floatatom 75 45 5 0 0 0 - - -;
#X obj 75 201 s keyr;
#X obj 99 181 s keyt;
#X obj 75 74 sel 27;
#X obj 75 118 gate;
#X obj 75 99 tgl 15 0 empty empty empty 17 7 0 10 -262144 -1 -1 1 1
;
#X obj 75 141 sel 114 116 82 84;
#X obj 124 231 s keyR;
#X obj 149 211 s keyT;
#X connect 0 0 1 0;
#X connect 1 0 4 0;
#X connect 4 0 6 0;
#X connect 4 1 5 1;
#X connect 5 0 7 0;
#X connect 6 0 5 0;
#X connect 7 0 2 0;
#X connect 7 1 3 0;
#X connect 7 2 8 0;
#X connect 7 3 9 0;
#X restore 14 41 pd keey;
#X obj 19 72 r keyr;
#X obj 219 72 r keyt;
#X obj 59 72 r keyR;
#X obj 259 72 r keyT;
#X obj 19 275 dac~;
#X obj 19 204 gatt~;
#X obj 142 266 gatt~;
#X obj 219 94 toca-barco~;
#X obj 142 305 dac~;
#X obj 142 198 RM2~;
#X obj 440 219 vcf~ 100 10;
#X floatatom 471 148 5 0 0 0 - - -;
#X floatatom 503 168 5 0 0 0 - - -;
#X obj 439 246 gatt~;
#X obj 439 285 dac~;
#X obj 471 171 sig~;
#X obj 439 120 noise~;
#X obj 439 198 gatt~;
#X connect 1 0 2 0;
#X connect 4 0 3 0;
#X connect 5 0 13 0;
#X connect 5 1 17 0;
#X connect 5 2 18 0;
#X connect 6 0 4 0;
#X connect 8 0 5 0;
#X connect 9 0 15 0;
#X connect 10 0 5 1;
#X connect 11 0 15 1;
#X connect 13 0 12 0;
#X connect 13 0 12 1;
#X connect 14 0 16 0;
#X connect 14 0 16 1;
#X connect 15 0 13 0;
#X connect 15 1 17 0;
#X connect 15 2 18 0;
#X connect 17 0 14 0;
#X connect 18 0 21 0;
#X connect 19 0 23 0;
#X connect 20 0 18 2;
#X connect 21 0 22 0;
#X connect 21 0 22 1;
#X connect 23 0 18 1;
#X connect 24 0 25 0;
#X connect 25 0 18 0;
