#N canvas 832 24 425 688 10;
#N canvas 111 85 450 378 loadar-samples 0;
#X obj 75 199 coll ./load-samples.txt;
#C restore;
#X obj 75 146 counter 20;
#X floatatom 75 173 5 0 0 0 - - -;
#X obj 75 10 r carrega;
#X obj 75 119 metro 10;
#X obj 75 94 tgl 15 0 empty empty empty 17 7 0 10 -262144 -1 -1 0 1
;
#X msg 75 67 1;
#X msg 105 67 0;
#X obj 75 327 soundfiler;
#X msg 165 163 read ./load-samples.txt;
#X obj 75 267 pack s s;
#X msg 34 119 0;
#X obj 50 20 bng 15 250 50 0 empty empty empty 17 7 0 10 -262144 -1
-1;
#N canvas 0 0 450 300 areas 0;
#X obj 48 97 table area04;
#X obj 48 77 table area03;
#X obj 48 57 table area02;
#X obj 48 37 table area01;
#X obj 48 117 table area05;
#X obj 48 137 table area06;
#X obj 48 157 table area07;
#X obj 48 177 table area08;
#X obj 48 197 table area09;
#X obj 48 17 table area00;
#X restore 231 56 pd areas;
#X obj 75 35 t b b b;
#X obj 75 236 unpack s f f s;
#X msg 75 293 read -maxsize 1e+07 -resize /media/sda1/sons/barquinho/\$1
\$2;
#X connect 0 0 15 0;
#X connect 1 0 2 0;
#X connect 1 2 7 0;
#X connect 2 0 0 0;
#X connect 3 0 14 0;
#X connect 4 0 1 0;
#X connect 5 0 4 0;
#X connect 6 0 5 0;
#X connect 7 0 5 0;
#X connect 9 0 0 0;
#X connect 10 0 16 0;
#X connect 11 0 1 0;
#X connect 12 0 14 0;
#X connect 14 0 6 0;
#X connect 14 1 11 0;
#X connect 14 2 9 0;
#X connect 15 0 10 0;
#X connect 15 3 10 1;
#X connect 16 0 8 0;
#X restore 14 14 pd loadar-samples;
#X obj 148 23 bng 15 250 50 0 empty empty empty 17 7 0 10 -262144 -1
-1;
#X obj 148 48 s carrega;
#X floatatom 221 20 5 0 0 2 bema-ms - -;
#X obj 19 94 toca-barco~;
#X msg 255 19 500;
#N canvas 0 0 450 300 keey 0;
#X obj 75 18 key;
#X floatatom 75 45 5 0 0 0 - - -;
#X obj 75 231 s keyr;
#X obj 99 211 s keyt;
#X obj 75 74 sel 27;
#X obj 75 118 gate;
#X obj 75 99 tgl 15 0 empty empty empty 17 7 0 10 -262144 -1 -1 0 1
;
#X obj 75 141 sel 114 116 82 84;
#X obj 124 231 s keyR;
#X obj 149 211 s keyT;
#X msg 75 168 1;
#X msg 99 188 1;
#X connect 0 0 1 0;
#X connect 1 0 4 0;
#X connect 4 0 6 0;
#X connect 4 1 5 1;
#X connect 5 0 7 0;
#X connect 6 0 5 0;
#X connect 7 0 10 0;
#X connect 7 1 11 0;
#X connect 7 2 8 0;
#X connect 7 3 9 0;
#X connect 10 0 2 0;
#X connect 11 0 3 0;
#X restore 14 41 pd keey;
#X obj 19 72 r keyr;
#X obj 219 72 r keyt;
#X obj 59 72 r keyR;
#X obj 259 72 r keyT;
#X obj 19 235 dac~;
#X obj 19 194 gatt~;
#X obj 22 596 gatt~;
#X obj 23 663 dac~;
#X obj 22 528 RM2~;
#X obj 190 579 vcf~ 100 10;
#X floatatom 221 508 5 0 0 0 - - -;
#X floatatom 253 528 5 0 0 0 - - -;
#X obj 189 606 gatt~;
#X obj 189 645 dac~;
#X obj 221 531 sig~;
#X obj 189 480 noise~;
#X obj 189 558 gatt~;
#X obj 18 377 gatt~;
#N canvas 43 398 421 322 partitura 0;
#X obj 174 124 metro 500;
#X obj 225 102 r tempo;
#X obj 174 101 tgl 15 0 empty empty empty 17 7 0 10 -262144 -1 -1 0
1;
#X floatatom 174 178 5 0 0 0 - - -;
#X obj 174 151 counter -1 500;
#X msg 240 123 goto \$1;
#X floatatom 189 101 3 0 0 0 - - -;
#X obj 123 204 outlet;
#N canvas 0 233 450 300 parte1 0;
#X obj 268 41 r carrega;
#X obj 127 169 print;
#X obj 174 192 route list;
#X obj 174 219 route tocador1;
#X obj 174 246 s tocador1;
#X obj 174 46 inlet;
#X obj 174 114 coll ./parte1.txt;
#C restore;
#X msg 268 66 read ./parte1.txt;
#X floatatom 134 90 5 0 0 0 - - -;
#X obj 174 138 unpack s f f f f f f f f;
#X obj 174 165 pack s f f f f f f f f;
#X connect 0 0 7 0;
#X connect 2 0 3 0;
#X connect 3 0 4 0;
#X connect 5 0 6 0;
#X connect 6 0 9 0;
#X connect 7 0 6 0;
#X connect 8 0 6 0;
#X connect 9 0 10 0;
#X connect 9 1 10 1;
#X connect 9 2 10 2;
#X connect 9 3 10 3;
#X connect 9 4 10 4;
#X connect 9 5 10 5;
#X connect 9 6 10 6;
#X connect 9 7 10 7;
#X connect 9 8 10 8;
#X connect 10 0 2 0;
#X restore 134 238 pd parte1;
#N canvas 361 233 450 300 parte2 0;
#X obj 268 41 r carrega;
#X obj 127 169 print;
#X obj 174 192 route list;
#X obj 174 46 inlet;
#X msg 268 66 read ./parte2.txt;
#X obj 174 114 coll ./parte2.txt;
#C restore;
#X obj 174 219 route tocador2;
#X obj 174 246 s tocador2;
#X obj 174 138 unpack s f f f f f f f f;
#X obj 174 165 pack s f f f f f f f f;
#X connect 0 0 4 0;
#X connect 2 0 6 0;
#X connect 3 0 5 0;
#X connect 4 0 5 0;
#X connect 5 0 8 0;
#X connect 6 0 7 0;
#X connect 8 0 9 0;
#X connect 8 1 9 1;
#X connect 8 2 9 2;
#X connect 8 3 9 3;
#X connect 8 4 9 4;
#X connect 8 5 9 5;
#X connect 8 6 9 6;
#X connect 8 7 9 7;
#X connect 8 8 9 8;
#X connect 9 0 2 0;
#X restore 134 258 pd parte2;
#N canvas 32 225 450 300 parte-continuo1 0;
#X obj 268 41 r carrega;
#X obj 127 179 print;
#X obj 174 202 route list;
#X obj 174 46 inlet;
#X floatatom 174 85 5 0 0 0 - - -;
#X obj 174 175 pack s f f f f f s;
#X obj 174 138 unpack s f f f f f f f s;
#X obj 332 193 pack f f;
#X obj 377 168 *;
#X obj 392 146 r tempo;
#X obj 174 256 s tocador-cont1;
#X obj 174 229 route tocador-continuo1;
#X obj 332 216 s vol-cont1;
#X msg 268 66 read ./partes-continuo1.txt;
#X obj 174 114 coll ./partes-continuo1.txt;
#C restore;
#X connect 0 0 13 0;
#X connect 2 0 11 0;
#X connect 3 0 4 0;
#X connect 4 0 14 0;
#X connect 5 0 2 0;
#X connect 6 0 5 0;
#X connect 6 1 7 0;
#X connect 6 2 8 0;
#X connect 6 3 5 1;
#X connect 6 4 5 2;
#X connect 6 5 5 3;
#X connect 6 6 5 4;
#X connect 6 7 5 5;
#X connect 6 8 5 6;
#X connect 7 0 12 0;
#X connect 8 0 7 1;
#X connect 9 0 8 1;
#X connect 11 0 10 0;
#X connect 13 0 14 0;
#X connect 14 0 6 0;
#X restore 210 238 pd parte-continuo1;
#N canvas 32 225 450 300 parte-continuo2 0;
#X obj 268 41 r carrega;
#X obj 127 179 print;
#X obj 174 202 route list;
#X obj 174 46 inlet;
#X floatatom 174 85 5 0 0 0 - - -;
#X obj 174 175 pack s f f f f f s;
#X obj 174 138 unpack s f f f f f f f s;
#X obj 332 193 pack f f;
#X obj 377 168 *;
#X obj 392 146 r tempo;
#X msg 268 66 read ./partes-continuo2.txt;
#X obj 174 114 coll ./partes-continuo2.txt;
#C restore;
#X obj 332 216 s vol-cont2;
#X obj 174 256 s tocador-cont2;
#X obj 174 229 route tocador-continuo2;
#X connect 0 0 10 0;
#X connect 2 0 14 0;
#X connect 3 0 4 0;
#X connect 4 0 11 0;
#X connect 5 0 2 0;
#X connect 6 0 5 0;
#X connect 6 1 7 0;
#X connect 6 2 8 0;
#X connect 6 3 5 1;
#X connect 6 4 5 2;
#X connect 6 5 5 3;
#X connect 6 6 5 4;
#X connect 6 7 5 5;
#X connect 6 8 5 6;
#X connect 7 0 12 0;
#X connect 8 0 7 1;
#X connect 9 0 8 1;
#X connect 10 0 11 0;
#X connect 11 0 6 0;
#X connect 14 0 13 0;
#X restore 210 258 pd parte-continuo2;
#X connect 0 0 4 0;
#X connect 1 0 0 1;
#X connect 2 0 0 0;
#X connect 3 0 7 0;
#X connect 3 0 8 0;
#X connect 3 0 9 0;
#X connect 3 0 10 0;
#X connect 3 0 11 0;
#X connect 4 0 3 0;
#X connect 5 0 4 0;
#X connect 6 0 5 0;
#X coords 0 -1 1 1 110 17 1 100 100;
#X restore 288 -6 pd partitura;
#X obj 288 20 nbx 3 32 -1e+37 1e+37 0 0 empty empty empty 0 -8 0 30
-258113 -1 -1 157 256;
#X obj 143 72 r tocador1;
#X obj 343 72 r tocador2;
#X msg 19 291 1 1000 0 2000 3000 area06;
#X obj 221 41 s tempo;
#X obj 110 400 line;
#X obj 68 218 r carrega;
#X obj 34 266 r tocador-cont1;
#X obj 110 373 r vol-cont1;
#X obj 218 377 gatt~;
#X msg 219 291 1 1000 0 2000 3000 area06;
#X obj 310 400 line;
#X obj 219 311 ler-samp-continuo~ area07;
#X obj 234 266 r tocador-cont2;
#X obj 310 373 r vol-cont2;
#X obj 19 311 ler-samp-continuo~ area05;
#X obj 218 450 dac~;
#X obj 218 425 lop~ 1500;
#X floatatom 269 403 5 0 0 0 - - -;
#X obj 18 450 dac~;
#X floatatom 69 403 5 0 0 0 - - -;
#X obj 18 425 lop~ 22000;
#X obj 400 188 s~ fx3;
#X obj 230 480 r~ fx3;
#X obj 130 198 s~ fx2;
#X obj 22 498 r~ fx2;
#X obj 98 598 r carrega;
#X obj 219 94 toca-barco~;
#X msg 68 239 90;
#X msg 98 619 90;
#N canvas 0 0 450 300 randona 0;
#X obj 195 131 random 3000;
#X obj 196 105 metro 3000;
#X obj 195 84 tgl 15 0 empty empty empty 17 7 0 10 -262144 -1 -1 0
1;
#X obj 271 82 random 3000;
#X obj 271 35 tgl 15 0 empty empty empty 17 7 0 10 -262144 -1 -1 0
1;
#X obj 275 111 + 500;
#X obj 205 185 line;
#X msg 206 162 \$1 \$2;
#X obj 270 158 pack 1 2;
#X obj 272 56 metro 1000;
#X obj 320 119 bng 15 250 50 0 empty empty empty 17 7 0 10 -262144
-1 -1;
#X obj 246 222 bng 15 250 50 0 empty empty empty 17 7 0 10 -262144
-1 -1;
#X obj 191 222 outlet;
#X obj 192 25 inlet;
#X obj 259 194 + 500;
#X connect 0 0 14 0;
#X connect 0 0 11 0;
#X connect 1 0 0 0;
#X connect 2 0 1 0;
#X connect 3 0 5 0;
#X connect 3 0 10 0;
#X connect 4 0 9 0;
#X connect 5 0 1 1;
#X connect 5 0 8 1;
#X connect 6 0 12 0;
#X connect 7 0 6 0;
#X connect 8 0 7 0;
#X connect 9 0 3 0;
#X connect 13 0 4 0;
#X connect 13 0 2 0;
#X connect 14 0 8 0;
#X restore 262 503 pd randona;
#X obj 279 480 tgl 15 0 empty empty empty 17 7 0 10 -262144 -1 -1 0
1;
#X obj 22 638 rev3~ 100 90 3000 20;
#X connect 1 0 2 0;
#X connect 1 0 5 0;
#X connect 3 0 30 0;
#X connect 4 0 12 0;
#X connect 4 1 50 0;
#X connect 4 2 48 0;
#X connect 5 0 3 0;
#X connect 7 0 4 0;
#X connect 8 0 53 0;
#X connect 9 0 4 1;
#X connect 10 0 53 1;
#X connect 12 0 11 0;
#X connect 12 0 11 1;
#X connect 13 0 58 0;
#X connect 15 0 13 0;
#X connect 16 0 19 0;
#X connect 17 0 21 0;
#X connect 18 0 16 2;
#X connect 19 0 20 0;
#X connect 19 0 20 1;
#X connect 21 0 16 1;
#X connect 22 0 23 0;
#X connect 23 0 16 0;
#X connect 24 0 47 0;
#X connect 25 0 26 0;
#X connect 27 0 4 2;
#X connect 28 0 53 2;
#X connect 29 0 41 0;
#X connect 31 0 24 1;
#X connect 32 0 54 0;
#X connect 33 0 41 0;
#X connect 34 0 31 0;
#X connect 35 0 43 0;
#X connect 36 0 38 0;
#X connect 37 0 35 1;
#X connect 38 0 35 0;
#X connect 39 0 38 0;
#X connect 40 0 37 0;
#X connect 41 0 24 0;
#X connect 43 0 42 0;
#X connect 43 0 42 1;
#X connect 44 0 43 1;
#X connect 46 0 47 1;
#X connect 47 0 45 0;
#X connect 47 0 45 1;
#X connect 49 0 16 0;
#X connect 51 0 15 0;
#X connect 52 0 55 0;
#X connect 53 0 12 0;
#X connect 53 1 50 0;
#X connect 53 2 48 0;
#X connect 54 0 12 1;
#X connect 55 0 13 1;
#X connect 55 0 19 1;
#X connect 56 0 17 0;
#X connect 57 0 56 0;
#X connect 58 0 14 0;
#X connect 58 0 14 1;
