#N canvas 0 54 1280 746 10;
#X declare -lib mrpeach;
#X declare -lib mrpeach;
#N canvas 69 211 450 378 loadar-samples 0;
#X obj 75 199 coll ./load-samples.txt;
#C restore;
#X floatatom 75 173 5 0 0 0 - - -;
#X obj 75 10 r carrega;
#X obj 75 119 metro 10;
#X obj 75 94 tgl 15 0 empty empty empty 17 7 0 10 -262144 -1 -1 0 1
;
#X msg 75 67 1;
#X msg 105 67 0;
#X obj 75 337 soundfiler;
#X msg 165 163 read ./load-samples.txt;
#X obj 75 267 pack s s;
#X msg 34 119 0;
#X obj 50 20 bng 15 250 50 0 empty empty empty 17 7 0 10 -262144 -1
-1;
#N canvas 67 149 595 316 areas 0;
#X obj 48 97 table area04;
#X obj 48 77 table area03;
#X obj 48 57 table area02;
#X obj 48 37 table area01;
#X obj 48 117 table area05;
#X obj 48 137 table area06;
#X obj 48 157 table area07;
#X obj 48 177 table area08;
#X obj 48 197 table area09;
#X obj 138 17 table area10;
#X obj 138 37 table area11;
#X obj 138 57 table area12;
#X obj 138 77 table area13;
#X obj 138 97 table area14;
#X obj 138 117 table area15;
#X obj 138 137 table area16;
#X obj 138 157 table area17;
#X obj 138 177 table area18;
#X obj 138 197 table area19;
#X obj 228 17 table area20;
#X obj 228 37 table area21;
#X obj 228 57 table area22;
#X obj 228 77 table area23;
#X obj 228 97 table area24;
#X obj 228 117 table area25;
#X obj 228 137 table area26;
#X obj 228 157 table area27;
#X obj 228 177 table area28;
#X obj 228 197 table area29;
#X obj 318 17 table area30;
#X obj 318 37 table area31;
#X obj 318 57 table area32;
#X obj 318 77 table area33;
#X obj 318 97 table area34;
#X obj 318 117 table area35;
#X obj 318 137 table area36;
#X obj 318 157 table area37;
#X obj 318 177 table area38;
#X obj 318 197 table area39;
#X obj 48 227 table area-grava-1 441000;
#X obj 48 247 table area-grava-2 441000;
#X obj 48 267 table area-grava-3 882000;
#X obj 48 17 table area00;
#X obj 408 17 table area40;
#X obj 408 37 table area41;
#X obj 408 57 table area42;
#X obj 408 77 table area43;
#X obj 408 97 table area44;
#X obj 408 117 table area45;
#X obj 408 137 table area46;
#X obj 408 157 table area47;
#X obj 408 177 table area48;
#X obj 408 197 table area49;
#X restore 231 56 pd areas;
#X obj 75 35 t b b b;
#X obj 75 236 unpack s f f s;
#X obj 75 146 counter 100;
#X msg 75 293 read -maxsize 1e+07 -resize /media/sda1/sons/webcam-performance/\$1
\$2;
#X connect 0 0 14 0;
#X connect 1 0 0 0;
#X connect 2 0 13 0;
#X connect 3 0 15 0;
#X connect 4 0 3 0;
#X connect 5 0 4 0;
#X connect 6 0 4 0;
#X connect 8 0 0 0;
#X connect 9 0 16 0;
#X connect 10 0 15 0;
#X connect 11 0 13 0;
#X connect 13 0 5 0;
#X connect 13 1 10 0;
#X connect 13 2 8 0;
#X connect 14 0 9 0;
#X connect 14 3 9 1;
#X connect 15 0 1 0;
#X connect 15 2 6 0;
#X connect 16 0 7 0;
#X restore 1139 68 pd loadar-samples;
#X obj 879 10 bng 20 250 50 0 empty empty empty 17 7 0 10 -258113 -4034
-203904;
#X obj 879 35 s carrega;
#X floatatom 949 14 5 0 0 2 bema-ms - -;
#N canvas 67 95 530 308 keey 0;
#X obj 75 18 key;
#X floatatom 75 45 5 0 0 0 - - -;
#X obj 75 74 sel 27;
#X obj 75 118 gate;
#X obj 75 99 tgl 15 0 empty empty empty 17 7 0 10 -262144 -1 -1 1 1
;
#X obj 75 231 s key-q;
#X obj 99 211 s key-a;
#X obj 123 191 s key-z;
#X obj 147 231 s key-w;
#X obj 172 211 s key-s;
#X obj 196 191 s key-x;
#X obj 220 231 s key-e;
#X obj 244 211 s key-d;
#X obj 269 191 s key-c;
#X obj 293 231 s key-r;
#X obj 317 211 s key-f;
#X obj 341 191 s key-v;
#X obj 75 141 sel 113 97 122 119 115 120 101 100 99 114 102 118 116
103 98;
#X obj 373 231 s key-t;
#X obj 397 211 s key-g;
#X obj 421 191 s key-b;
#X connect 0 0 1 0;
#X connect 1 0 2 0;
#X connect 2 0 4 0;
#X connect 2 1 3 1;
#X connect 3 0 17 0;
#X connect 4 0 3 0;
#X connect 17 0 5 0;
#X connect 17 1 6 0;
#X connect 17 2 7 0;
#X connect 17 3 8 0;
#X connect 17 4 9 0;
#X connect 17 5 10 0;
#X connect 17 6 11 0;
#X connect 17 7 12 0;
#X connect 17 8 13 0;
#X connect 17 9 14 0;
#X connect 17 10 15 0;
#X connect 17 11 16 0;
#X connect 17 12 18 0;
#X connect 17 13 19 0;
#X connect 17 14 20 0;
#X restore 1139 95 pd keey;
#N canvas 67 95 450 300 efeitos 0;
#X obj 3 243 dac~;
#X obj 2 108 RM2~;
#X obj 170 159 vcf~ 100 10;
#X floatatom 201 88 5 0 0 0 - - -;
#X floatatom 233 108 5 0 0 0 - - -;
#X obj 169 225 dac~;
#X obj 201 111 sig~;
#X obj 169 60 noise~;
#X obj 78 178 r carrega;
#X msg 78 199 90;
#N canvas 0 0 450 300 randona 0;
#X obj 195 131 random 3000;
#X obj 196 105 metro 3000;
#X obj 195 84 tgl 15 0 empty empty empty 17 7 0 10 -262144 -1 -1 0
1;
#X obj 271 82 random 3000;
#X obj 271 35 tgl 15 0 empty empty empty 17 7 0 10 -262144 -1 -1 0
1;
#X obj 275 111 + 500;
#X obj 205 185 line;
#X msg 206 162 \$1 \$2;
#X obj 270 158 pack 1 2;
#X obj 272 56 metro 1000;
#X obj 320 119 bng 15 250 50 0 empty empty empty 17 7 0 10 -262144
-1 -1;
#X obj 246 222 bng 15 250 50 0 empty empty empty 17 7 0 10 -262144
-1 -1;
#X obj 191 222 outlet;
#X obj 192 25 inlet;
#X obj 259 194 + 500;
#X connect 0 0 14 0;
#X connect 0 0 11 0;
#X connect 1 0 0 0;
#X connect 2 0 1 0;
#X connect 3 0 5 0;
#X connect 3 0 10 0;
#X connect 4 0 9 0;
#X connect 5 0 1 1;
#X connect 5 0 8 1;
#X connect 6 0 12 0;
#X connect 7 0 6 0;
#X connect 8 0 7 0;
#X connect 9 0 3 0;
#X connect 13 0 4 0;
#X connect 13 0 2 0;
#X connect 14 0 8 0;
#X restore 242 83 pd randona;
#X obj 259 60 tgl 15 0 empty empty empty 17 7 0 10 -262144 -1 -1 0
1;
#X obj 2 218 rev3~ 100 90 3000 20;
#X obj 75 56 gatt~ 80;
#X obj 2 176 gatt~;
#X obj 169 186 gatt~;
#X obj 169 138 gatt~;
#X obj 280 142 gate~ 14;
#X connect 1 0 14 0;
#X connect 2 0 15 0;
#X connect 3 0 6 0;
#X connect 4 0 2 2;
#X connect 6 0 2 1;
#X connect 7 0 16 0;
#X connect 8 0 9 0;
#X connect 9 0 14 1;
#X connect 9 0 15 1;
#X connect 10 0 3 0;
#X connect 11 0 10 0;
#X connect 12 0 0 0;
#X connect 12 0 0 1;
#X connect 14 0 12 0;
#X connect 15 0 5 0;
#X connect 15 0 5 1;
#X connect 16 0 2 0;
#X restore 1189 95 pd efeitos;
#X obj 949 35 s bema;
#X obj 724 115 s lob;
#X obj 724 88 loadbang;
#X obj 879 57 r keyg;
#X obj 879 79 t b b;
#X msg 984 13 100;
#X obj 1042 41 s car-vol;
#X floatatom 1042 15 5 0 0 0 - - -;
#X msg 1079 14 20;
#X msg 1109 14 80;
#X obj 482 26 r bema;
#X obj 272 6 r carrega;
#N canvas 749 346 450 355 status-control 0;
#X floatatom 110 120 5 0 3 0 R - -;
#X floatatom 110 140 5 0 3 0 G - -;
#X floatatom 110 160 5 0 3 0 B - -;
#X floatatom 110 180 5 0 3 0 Y - -;
#X floatatom 206 101 5 0 0 0 - - -;
#X obj 11 121 s red-state;
#X obj 11 140 s green-state;
#X obj 10 161 s blue-state;
#X obj 10 180 s yellow-state;
#X obj 237 101 bng 15 250 50 0 empty empty empty 17 7 0 10 -262144
-1 -1;
#X msg 213 -9 0;
#X obj 142 121 tgl 15 0 empty empty empty 17 7 0 10 -262144 -1 -1 0
1;
#X obj 157 121 tgl 15 0 empty empty empty 17 7 0 10 -262144 -1 -1 0
2;
#X obj 172 121 tgl 15 0 empty empty empty 17 7 0 10 -262144 -1 -1 0
3;
#X obj 142 141 tgl 15 0 empty empty empty 17 7 0 10 -262144 -1 -1 1
1;
#X obj 157 141 tgl 15 0 empty empty empty 17 7 0 10 -262144 -1 -1 2
2;
#X obj 172 141 tgl 15 0 empty empty empty 17 7 0 10 -262144 -1 -1 0
3;
#X obj 142 161 tgl 15 0 empty empty empty 17 7 0 10 -262144 -1 -1 0
1;
#X obj 157 161 tgl 15 0 empty empty empty 17 7 0 10 -262144 -1 -1 0
2;
#X obj 172 161 tgl 15 0 empty empty empty 17 7 0 10 -262144 -1 -1 0
3;
#X obj 142 181 tgl 15 0 empty empty empty 17 7 0 10 -262144 -1 -1 0
1;
#X obj 157 181 tgl 15 0 empty empty empty 17 7 0 10 -262144 -1 -1 0
2;
#X obj 172 181 tgl 15 0 empty empty empty 17 7 0 10 -262144 -1 -1 0
3;
#X obj 145 1 r key-q;
#X obj 309 91 r key-a;
#X obj 263 261 r key-z;
#X obj 157 21 r key-w;
#X obj 312 111 r key-s;
#X obj 276 241 r key-x;
#X obj 170 41 r key-e;
#X obj 314 131 r key-d;
#X obj 289 221 r key-c;
#X obj 183 61 r key-r;
#X obj 317 151 r key-f;
#X obj 301 201 r key-v;
#X obj 187 121 tgl 15 0 empty empty empty 17 7 0 10 -262144 -1 -1 0
4;
#X obj 187 141 tgl 15 0 empty empty empty 17 7 0 10 -262144 -1 -1 0
4;
#X obj 187 161 tgl 15 0 empty empty empty 17 7 0 10 -262144 -1 -1 0
4;
#X obj 187 181 tgl 15 0 empty empty empty 17 7 0 10 -262144 -1 -1 0
4;
#X obj 83 41 r key-t;
#X msg 83 66 0;
#X obj 277 41 r key-g;
#X msg 273 61 0;
#X msg 143 225 0;
#X obj 85 209 r key-b;
#X connect 0 0 5 0;
#X connect 1 0 6 0;
#X connect 2 0 7 0;
#X connect 3 0 8 0;
#X connect 4 0 0 0;
#X connect 4 0 1 0;
#X connect 4 0 2 0;
#X connect 4 0 3 0;
#X connect 9 0 10 0;
#X connect 10 0 4 0;
#X connect 11 0 0 0;
#X connect 12 0 0 0;
#X connect 13 0 0 0;
#X connect 14 0 1 0;
#X connect 15 0 1 0;
#X connect 16 0 1 0;
#X connect 17 0 2 0;
#X connect 18 0 2 0;
#X connect 19 0 2 0;
#X connect 20 0 3 0;
#X connect 21 0 3 0;
#X connect 22 0 3 0;
#X connect 23 0 11 0;
#X connect 24 0 14 0;
#X connect 25 0 17 0;
#X connect 26 0 12 0;
#X connect 27 0 15 0;
#X connect 28 0 18 0;
#X connect 29 0 13 0;
#X connect 30 0 16 0;
#X connect 31 0 19 0;
#X connect 32 0 35 0;
#X connect 33 0 36 0;
#X connect 34 0 37 0;
#X connect 35 0 0 0;
#X connect 36 0 1 0;
#X connect 37 0 2 0;
#X connect 38 0 3 0;
#X connect 39 0 40 0;
#X connect 40 0 11 0;
#X connect 40 0 12 0;
#X connect 40 0 13 0;
#X connect 40 0 35 0;
#X connect 41 0 42 0;
#X connect 42 0 14 0;
#X connect 42 0 15 0;
#X connect 42 0 16 0;
#X connect 42 0 36 0;
#X connect 43 0 17 0;
#X connect 43 0 18 0;
#X connect 43 0 19 0;
#X connect 43 0 37 0;
#X connect 44 0 43 0;
#X coords 0 -1 1 1 154 100 1 100 100;
#X restore 554 6 pd status-control;
#X floatatom 333 146 5 0 100 0 - car-vol -;
#X obj 302 414 r~ delayaa1;
#N canvas 198 148 570 458 inlet 0;
#X obj -94 359 gate~ 50;
#X obj -94 402 s~ delayaa1;
#X obj 101 121 tgl 15 0 empty empty 1-delays 17 7 0 10 -262144 -1 -1
0 1;
#X obj 101 141 tgl 15 0 empty empty 1-samplers 17 7 0 10 -262144 -1
-1 0 1;
#X obj 66 282 s~ sampler1;
#X obj 191 121 tgl 15 0 empty empty 2-delay1 17 7 0 10 -262144 -1 -1
0 1;
#X obj 191 161 tgl 15 0 empty empty 2-sampler1 17 7 0 10 -262144 -1
-1 0 1;
#X obj 191 141 tgl 15 0 empty empty 2-delay1 17 7 0 10 -262144 -1 -1
0 1;
#X obj 191 181 tgl 15 0 empty empty 2-sampler2 17 7 0 10 -262144 -1
-1 0 1;
#X obj 66 239 gate~ 50;
#X obj 76 302 s~ sampler2;
#X obj 86 322 s~ sampler3;
#X obj 26 359 gate~ 50;
#X obj 26 402 s~ delayaa2;
#X obj 26 60 adc~ 1;
#X obj 136 383 s~ fxx2;
#X obj 136 359 gate~ 50;
#X obj 101 161 tgl 15 0 empty empty fxx2 17 7 0 10 -262144 -1 -1 0
1;
#X obj 96 342 s~ sampler4;
#X connect 0 0 1 0;
#X connect 2 0 0 1;
#X connect 2 0 12 1;
#X connect 3 0 9 1;
#X connect 9 0 4 0;
#X connect 9 0 10 0;
#X connect 9 0 11 0;
#X connect 9 0 18 0;
#X connect 12 0 13 0;
#X connect 14 0 0 0;
#X connect 14 0 9 0;
#X connect 14 0 12 0;
#X connect 14 0 16 0;
#X connect 16 0 15 0;
#X connect 17 0 16 1;
#X coords 0 -1 1 1 80 80 1 100 100;
#X restore 724 6 pd inlet;
#N canvas 90 91 515 708 grava-sample-1 0;
#X obj 53 199 samp-ctlr~;
#X obj 54 58 inlet~;
#X obj 229 101 tgl 30 0 empty empty empty 17 7 0 10 -262144 -1 -1 0
1;
#X obj 53 237 tabwrite~ area-grava-1;
#X floatatom 102 143 5 0 100 2 vol - -;
#X floatatom 136 143 5 0 100 2 space - -;
#X obj 136 78 * 100;
#X obj 232 61 * 100;
#X obj 100 160 bng 15 250 50 0 empty empty empty 17 7 0 10 -262144
-1 -1;
#X msg 61 162 1;
#X floatatom 171 143 5 0 0 2 veloc - -;
#X obj 278 148 t f f;
#X obj 171 -71 inlet velocidade y;
#X obj 232 36 inlet volume size;
#X obj 278 63 inlet on-off;
#X obj 267 593 outlet~;
#X obj 136 56 inlet space x;
#X obj 313 310 t b f;
#X floatatom 313 284 5 0 0 0 - - -;
#X floatatom 313 388 5 0 0 0 - - -;
#X obj 267 437 phasor~;
#X obj 267 469 *~;
#X obj 278 109 no-repet;
#X obj 305 174 sel 1;
#X msg 352 333 0;
#X floatatom 347 114 5 0 0 0 - - -;
#X obj 305 197 t b b;
#X obj 356 194 bng 15 250 50 0 empty empty empty 17 7 0 10 -262144
-1 -1;
#X obj 278 86 if-last-3-is-zero red;
#X floatatom 279 268 5 0 0 0 - - -;
#X obj 383 114 bng 15 250 50 0 empty empty empty 17 7 0 10 -262144
-1 -1;
#X obj 267 523 gatte~ 50;
#X msg 414 113 1;
#X msg 424 123 0;
#X obj 171 6 * 20;
#X obj 171 33 / 5;
#X obj 267 403 *~;
#X obj 266 376 line~;
#X msg 266 351 \$1 20;
#X obj 267 496 tabread4~ area-grava-1;
#X obj 216 144 tgl 15 0 empty empty spc-aleat -10 -10 0 10 -262144
-1 -1 0 1;
#X obj 243 143 tgl 15 0 empty empty empty 17 7 0 10 -262144 -1 -1 0
1;
#X obj 74 474 dac~;
#X obj 171 -38 * -1;
#X obj 171 -16 + 1;
#X obj 389 252 / 1000;
#X obj 279 218 t f b f;
#X msg 389 229 1;
#X obj 313 364 / 1000;
#X msg 313 337 1000;
#X obj 262 298 * 44.1;
#X floatatom 155 333 10 0 0 0 - - -;
#X obj 136 308 + 100;
#X obj 136 271 * -1;
#X obj 214 101 bng 15 250 50 0 empty empty empty 17 7 0 10 -262144
-1 -1;
#X obj 177 116 tgl 15 0 empty empty fx 17 7 0 10 -262144 -1 -1 0 1
;
#X obj 206 189 sel 0 1;
#X msg 118 362 1;
#X msg 148 362 0;
#X obj 54 357 r carrega;
#X msg 341 544 1;
#X msg 311 544 0;
#X obj 74 384 gate~ 1000;
#X obj 267 566 gate~ 1000;
#X obj 74 414 space1~ 50;
#X connect 0 0 3 0;
#X connect 0 1 3 0;
#X connect 0 2 46 0;
#X connect 1 0 0 0;
#X connect 2 0 0 1;
#X connect 4 0 31 1;
#X connect 5 0 53 0;
#X connect 6 0 5 0;
#X connect 7 0 4 0;
#X connect 8 0 9 0;
#X connect 10 0 38 0;
#X connect 11 0 31 2;
#X connect 11 1 23 0;
#X connect 12 0 43 0;
#X connect 13 0 7 0;
#X connect 14 0 28 0;
#X connect 16 0 6 0;
#X connect 17 0 49 0;
#X connect 17 1 48 1;
#X connect 18 0 17 0;
#X connect 19 0 36 1;
#X connect 20 0 21 0;
#X connect 21 0 39 0;
#X connect 22 0 11 0;
#X connect 23 0 26 0;
#X connect 23 0 27 0;
#X connect 24 0 20 1;
#X connect 25 0 11 0;
#X connect 26 1 24 0;
#X connect 28 0 22 0;
#X connect 29 0 50 0;
#X connect 30 0 25 0;
#X connect 31 0 62 0;
#X connect 31 0 63 0;
#X connect 31 0 64 0;
#X connect 32 0 25 0;
#X connect 33 0 25 0;
#X connect 34 0 35 0;
#X connect 35 0 10 0;
#X connect 36 0 20 0;
#X connect 37 0 36 0;
#X connect 38 0 37 0;
#X connect 39 0 31 0;
#X connect 40 0 64 1;
#X connect 41 0 25 0;
#X connect 43 0 44 0;
#X connect 44 0 34 0;
#X connect 46 0 29 0;
#X connect 46 2 45 1;
#X connect 46 2 18 0;
#X connect 47 0 45 0;
#X connect 48 0 19 0;
#X connect 49 0 48 0;
#X connect 50 0 21 1;
#X connect 52 0 51 0;
#X connect 52 0 64 2;
#X connect 53 0 52 0;
#X connect 54 0 33 0;
#X connect 55 0 56 0;
#X connect 56 0 57 0;
#X connect 56 0 61 0;
#X connect 56 1 58 0;
#X connect 56 1 60 0;
#X connect 57 0 62 1;
#X connect 58 0 62 1;
#X connect 59 0 57 0;
#X connect 60 0 63 1;
#X connect 61 0 63 1;
#X connect 62 0 64 0;
#X connect 63 0 15 0;
#X connect 64 0 42 0;
#X connect 64 1 42 1;
#X coords 0 -1 1 1 160 60 1 100 100;
#X restore 554 188 pd grava-sample-1;
#N canvas 562 145 515 654 grava-sample-2 0;
#X obj 53 199 samp-ctlr~;
#X obj 54 58 inlet~;
#X obj 229 101 tgl 30 0 empty empty empty 17 7 0 10 -262144 -1 -1 0
1;
#X floatatom 102 143 5 0 100 2 vol - -;
#X floatatom 136 143 5 0 100 2 space - -;
#X obj 136 78 * 100;
#X obj 232 61 * 100;
#X obj 100 160 bng 15 250 50 0 empty empty empty 17 7 0 10 -262144
-1 -1;
#X msg 61 162 1;
#X floatatom 171 143 5 0 0 2 veloc - -;
#X obj 278 148 t f f;
#X obj 171 -71 inlet velocidade y;
#X obj 232 36 inlet volume size;
#X obj 278 63 inlet on-off;
#X obj 267 593 outlet~;
#X obj 136 56 inlet space x;
#X obj 313 310 t b f;
#X floatatom 313 284 5 0 0 0 - - -;
#X floatatom 313 388 5 0 0 0 - - -;
#X obj 267 437 phasor~;
#X obj 267 469 *~;
#X obj 278 109 no-repet;
#X obj 305 174 sel 1;
#X msg 352 333 0;
#X floatatom 347 114 5 0 0 0 - - -;
#X obj 305 197 t b b;
#X obj 356 194 bng 15 250 50 0 empty empty empty 17 7 0 10 -262144
-1 -1;
#X obj 278 86 if-last-3-is-zero red;
#X floatatom 279 268 5 0 0 0 - - -;
#X obj 383 114 bng 15 250 50 0 empty empty empty 17 7 0 10 -262144
-1 -1;
#X obj 267 523 gatte~ 50;
#X msg 414 113 1;
#X msg 424 123 0;
#X obj 171 6 * 20;
#X obj 171 33 / 5;
#X obj 267 403 *~;
#X obj 266 376 line~;
#X msg 266 351 \$1 20;
#X obj 216 144 tgl 15 0 empty empty spc-aleat -10 -10 0 10 -262144
-1 -1 0 1;
#X obj 243 143 tgl 15 0 empty empty empty 17 7 0 10 -262144 -1 -1 0
1;
#X obj 74 474 dac~;
#X obj 171 -38 * -1;
#X obj 171 -16 + 1;
#X obj 389 252 / 1000;
#X obj 279 218 t f b f;
#X msg 389 229 1;
#X obj 313 364 / 1000;
#X msg 313 337 1000;
#X obj 262 298 * 44.1;
#X floatatom 155 333 10 0 0 0 - - -;
#X obj 136 308 + 100;
#X obj 136 271 * -1;
#X obj 214 101 bng 15 250 50 0 empty empty empty 17 7 0 10 -262144
-1 -1;
#X obj 177 116 tgl 15 0 empty empty fx 17 7 0 10 -262144 -1 -1 0 1
;
#X obj 206 189 sel 0 1;
#X msg 118 362 1;
#X msg 148 362 0;
#X obj 54 357 r carrega;
#X msg 341 544 1;
#X msg 311 544 0;
#X obj 74 384 gate~ 1000;
#X obj 267 566 gate~ 1000;
#X obj 267 496 tabread4~ area-grava-2;
#X obj 53 237 tabwrite~ area-grava-2;
#X obj 74 414 space1~ 50;
#X connect 0 0 63 0;
#X connect 0 1 63 0;
#X connect 0 2 44 0;
#X connect 1 0 0 0;
#X connect 2 0 0 1;
#X connect 3 0 30 1;
#X connect 4 0 51 0;
#X connect 5 0 4 0;
#X connect 6 0 3 0;
#X connect 7 0 8 0;
#X connect 9 0 37 0;
#X connect 10 0 30 2;
#X connect 10 1 22 0;
#X connect 11 0 41 0;
#X connect 12 0 6 0;
#X connect 13 0 27 0;
#X connect 15 0 5 0;
#X connect 16 0 47 0;
#X connect 16 1 46 1;
#X connect 17 0 16 0;
#X connect 18 0 35 1;
#X connect 19 0 20 0;
#X connect 20 0 62 0;
#X connect 21 0 10 0;
#X connect 22 0 25 0;
#X connect 22 0 26 0;
#X connect 23 0 19 1;
#X connect 24 0 10 0;
#X connect 25 1 23 0;
#X connect 27 0 21 0;
#X connect 28 0 48 0;
#X connect 29 0 24 0;
#X connect 30 0 60 0;
#X connect 30 0 61 0;
#X connect 30 0 64 0;
#X connect 31 0 24 0;
#X connect 32 0 24 0;
#X connect 33 0 34 0;
#X connect 34 0 9 0;
#X connect 35 0 19 0;
#X connect 36 0 35 0;
#X connect 37 0 36 0;
#X connect 38 0 64 1;
#X connect 39 0 24 0;
#X connect 41 0 42 0;
#X connect 42 0 33 0;
#X connect 44 0 28 0;
#X connect 44 2 43 1;
#X connect 44 2 17 0;
#X connect 45 0 43 0;
#X connect 46 0 18 0;
#X connect 47 0 46 0;
#X connect 48 0 20 1;
#X connect 50 0 49 0;
#X connect 50 0 64 2;
#X connect 51 0 50 0;
#X connect 52 0 32 0;
#X connect 53 0 54 0;
#X connect 54 0 55 0;
#X connect 54 0 59 0;
#X connect 54 1 56 0;
#X connect 54 1 58 0;
#X connect 55 0 60 1;
#X connect 56 0 60 1;
#X connect 57 0 55 0;
#X connect 58 0 61 1;
#X connect 59 0 61 1;
#X connect 60 0 64 0;
#X connect 61 0 14 0;
#X connect 62 0 30 0;
#X connect 64 0 40 0;
#X connect 64 1 40 1;
#X coords 0 -1 1 1 160 60 1 100 100;
#X restore 553 327 pd grava-sample-2;
#N canvas 570 120 515 679 grava-sample-3 0;
#X obj 53 199 samp-ctlr~;
#X obj 54 58 inlet~;
#X obj 229 101 tgl 30 0 empty empty empty 17 7 0 10 -262144 -1 -1 0
1;
#X floatatom 102 143 5 0 100 2 vol - -;
#X floatatom 136 143 5 0 100 2 space - -;
#X obj 136 78 * 100;
#X obj 232 61 * 100;
#X obj 100 160 bng 15 250 50 0 empty empty empty 17 7 0 10 -262144
-1 -1;
#X msg 61 162 1;
#X floatatom 171 143 5 0 0 2 veloc - -;
#X obj 278 148 t f f;
#X obj 171 -71 inlet velocidade y;
#X obj 232 36 inlet volume size;
#X obj 278 63 inlet on-off;
#X obj 267 593 outlet~;
#X obj 136 56 inlet space x;
#X obj 313 310 t b f;
#X floatatom 313 284 5 0 0 0 - - -;
#X floatatom 313 388 5 0 0 0 - - -;
#X obj 267 437 phasor~;
#X obj 267 469 *~;
#X obj 278 109 no-repet;
#X obj 305 174 sel 1;
#X msg 352 333 0;
#X floatatom 347 114 5 0 0 0 - - -;
#X obj 305 197 t b b;
#X obj 356 194 bng 15 250 50 0 empty empty empty 17 7 0 10 -262144
-1 -1;
#X obj 278 86 if-last-3-is-zero red;
#X floatatom 279 268 5 0 0 0 - - -;
#X obj 383 114 bng 15 250 50 0 empty empty empty 17 7 0 10 -262144
-1 -1;
#X obj 267 523 gatte~ 50;
#X msg 414 113 1;
#X msg 424 123 0;
#X obj 171 6 * 20;
#X obj 171 33 / 5;
#X obj 267 403 *~;
#X obj 266 376 line~;
#X msg 266 351 \$1 20;
#X obj 216 144 tgl 15 0 empty empty spc-aleat -10 -10 0 10 -262144
-1 -1 0 1;
#X obj 243 143 tgl 15 0 empty empty empty 17 7 0 10 -262144 -1 -1 0
1;
#X obj 74 474 dac~;
#X obj 171 -38 * -1;
#X obj 171 -16 + 1;
#X obj 389 252 / 1000;
#X obj 279 218 t f b f;
#X msg 389 229 1;
#X obj 313 364 / 1000;
#X msg 313 337 1000;
#X obj 262 298 * 44.1;
#X floatatom 155 333 10 0 0 0 - - -;
#X obj 136 308 + 100;
#X obj 136 271 * -1;
#X obj 214 101 bng 15 250 50 0 empty empty empty 17 7 0 10 -262144
-1 -1;
#X obj 177 116 tgl 15 0 empty empty fx 17 7 0 10 -262144 -1 -1 0 1
;
#X obj 206 189 sel 0 1;
#X msg 118 362 1;
#X msg 148 362 0;
#X obj 54 357 r carrega;
#X msg 341 544 1;
#X msg 311 544 0;
#X obj 74 384 gate~ 1000;
#X obj 267 566 gate~ 1000;
#X obj 267 496 tabread4~ area-grava-3;
#X obj 53 237 tabwrite~ area-grava-3;
#X obj 74 414 space1~ 50;
#X connect 0 0 63 0;
#X connect 0 1 63 0;
#X connect 0 2 44 0;
#X connect 1 0 0 0;
#X connect 2 0 0 1;
#X connect 3 0 30 1;
#X connect 4 0 51 0;
#X connect 5 0 4 0;
#X connect 6 0 3 0;
#X connect 7 0 8 0;
#X connect 9 0 37 0;
#X connect 10 0 30 2;
#X connect 10 1 22 0;
#X connect 11 0 41 0;
#X connect 12 0 6 0;
#X connect 13 0 27 0;
#X connect 15 0 5 0;
#X connect 16 0 47 0;
#X connect 16 1 46 1;
#X connect 17 0 16 0;
#X connect 18 0 35 1;
#X connect 19 0 20 0;
#X connect 20 0 62 0;
#X connect 21 0 10 0;
#X connect 22 0 25 0;
#X connect 22 0 26 0;
#X connect 23 0 19 1;
#X connect 24 0 10 0;
#X connect 25 1 23 0;
#X connect 27 0 21 0;
#X connect 28 0 48 0;
#X connect 29 0 24 0;
#X connect 30 0 60 0;
#X connect 30 0 61 0;
#X connect 31 0 24 0;
#X connect 32 0 24 0;
#X connect 33 0 34 0;
#X connect 34 0 9 0;
#X connect 35 0 19 0;
#X connect 36 0 35 0;
#X connect 37 0 36 0;
#X connect 38 0 64 1;
#X connect 39 0 24 0;
#X connect 41 0 42 0;
#X connect 42 0 33 0;
#X connect 44 0 28 0;
#X connect 44 2 43 1;
#X connect 44 2 17 0;
#X connect 45 0 43 0;
#X connect 46 0 18 0;
#X connect 47 0 46 0;
#X connect 48 0 20 1;
#X connect 50 0 49 0;
#X connect 50 0 64 2;
#X connect 51 0 50 0;
#X connect 52 0 32 0;
#X connect 53 0 54 0;
#X connect 54 0 55 0;
#X connect 54 0 59 0;
#X connect 54 1 56 0;
#X connect 54 1 58 0;
#X connect 55 0 60 1;
#X connect 56 0 60 1;
#X connect 57 0 55 0;
#X connect 58 0 61 1;
#X connect 59 0 61 1;
#X connect 60 0 64 0;
#X connect 61 0 14 0;
#X connect 62 0 30 0;
#X connect 64 0 40 0;
#X connect 64 1 40 1;
#X coords 0 -1 1 1 160 60 1 100 100;
#X restore 552 464 pd grava-sample-3;
#X obj 554 141 r~ sampler1;
#X obj 553 280 r~ sampler2;
#X obj 552 418 r~ sampler3;
#X obj 302 574 r~ delayaa2;
#X obj 482 216 r bema;
#X obj 272 196 r carrega;
#X floatatom 333 336 5 0 100 0 - car-vol -;
#N canvas 67 191 450 598 fx-1 0;
#X obj 82 445 dac~;
#X obj 324 173 osc~;
#X obj 308 203 *~;
#X obj 83 25 inlet~;
#X obj 103 121 tgl 15 0 empty empty RM1 0 20 0 10 -262144 -1 -1 0 1
;
#X obj 123 121 tgl 15 0 empty empty RM2 0 20 0 10 -262144 -1 -1 0 1
;
#X obj 103 165 sel 0 1;
#X msg 127 280 1;
#X msg 157 280 0;
#X obj 63 275 r carrega;
#X obj 163 165 sel 0 1;
#X msg 382 220 1;
#X msg 352 220 0;
#X floatatom 143 121 5 0 0 0 - - -;
#X obj 173 79 *;
#X floatatom 173 121 5 0 0 0 - - -;
#X obj 254 243 osc~;
#X obj 238 273 *~;
#X msg 313 300 1;
#X msg 283 300 0;
#X obj 143 7 r slider2;
#X obj 173 27 r slider3;
#X obj 188 47 r slider4;
#X obj 144 363 r slider1;
#X obj 238 222 *~ 1.3;
#X obj 239 322 gate~ 1000;
#X obj 308 242 gate~ 1000;
#X obj 308 152 *~ 1.3;
#X obj 143 50 * 0.5;
#X obj 25 113 r~ fx1;
#X obj 83 302 gate~ 5000;
#X obj 83 332 gate~ 5000;
#X obj 195 102 tgl 15 0 empty empty empty 17 7 0 10 -262144 -1 -1 0
1;
#X obj 82 385 space1~ 50;
#X connect 1 0 2 1;
#X connect 2 0 26 0;
#X connect 3 0 24 0;
#X connect 3 0 27 0;
#X connect 3 0 30 0;
#X connect 4 0 6 0;
#X connect 5 0 10 0;
#X connect 6 0 7 0;
#X connect 6 0 19 0;
#X connect 6 1 8 0;
#X connect 6 1 18 0;
#X connect 7 0 30 1;
#X connect 8 0 30 1;
#X connect 9 0 7 0;
#X connect 10 0 7 0;
#X connect 10 0 12 0;
#X connect 10 1 8 0;
#X connect 10 1 11 0;
#X connect 11 0 26 1;
#X connect 12 0 26 1;
#X connect 13 0 16 0;
#X connect 14 0 15 0;
#X connect 15 0 1 0;
#X connect 16 0 17 1;
#X connect 17 0 25 0;
#X connect 18 0 25 1;
#X connect 19 0 25 1;
#X connect 20 0 28 0;
#X connect 21 0 14 0;
#X connect 22 0 14 1;
#X connect 23 0 33 2;
#X connect 24 0 17 0;
#X connect 25 0 33 0;
#X connect 26 0 33 0;
#X connect 27 0 2 0;
#X connect 28 0 13 0;
#X connect 29 0 27 0;
#X connect 29 0 24 0;
#X connect 29 0 30 0;
#X connect 30 0 31 0;
#X connect 31 0 33 0;
#X connect 32 0 31 1;
#X connect 33 0 0 0;
#X connect 33 1 0 1;
#X coords 0 -1 1 1 110 50 1 100 100;
#X restore 302 513 pd fx-1;
#N canvas 67 155 450 598 fx-2 0;
#X obj 82 445 dac~;
#X obj 324 173 osc~;
#X obj 308 203 *~;
#X obj 83 25 inlet~;
#X obj 83 292 gate~ 500;
#X obj 103 121 tgl 15 0 empty empty RM1 0 20 0 10 -262144 -1 -1 0 1
;
#X obj 123 121 tgl 15 0 empty empty RM2 0 20 0 10 -262144 -1 -1 0 1
;
#X obj 103 165 sel 0 1;
#X msg 127 270 1;
#X msg 157 270 0;
#X obj 63 265 r carrega;
#X obj 163 165 sel 0 1;
#X obj 308 232 gate~ 500;
#X msg 382 210 1;
#X msg 352 210 0;
#X floatatom 143 121 5 0 0 0 - - -;
#X obj 173 79 *;
#X floatatom 173 121 5 0 0 0 - - -;
#X obj 254 243 osc~;
#X obj 238 273 *~;
#X obj 238 302 gate~ 500;
#X msg 312 280 1;
#X msg 282 280 0;
#X obj 238 222 *~ 1.3;
#X obj 308 152 *~ 1.3;
#X obj 143 54 * 0.5;
#X obj 55 63 r~ fx2a;
#X obj 15 113 r~ fx2b;
#X obj 193 102 tgl 15 0 empty empty empty 17 7 0 10 -262144 -1 -1 0
1;
#X obj 83 322 gate~ 500;
#X obj 143 7 r slider6;
#X obj 173 27 r slider7;
#X obj 188 47 r slider8;
#X obj 144 363 r slider5;
#X obj 82 385 space1~ 50;
#X connect 1 0 2 1;
#X connect 2 0 12 0;
#X connect 3 0 4 0;
#X connect 3 0 24 0;
#X connect 3 0 23 0;
#X connect 4 0 29 0;
#X connect 5 0 7 0;
#X connect 6 0 11 0;
#X connect 7 0 8 0;
#X connect 7 0 22 0;
#X connect 7 1 9 0;
#X connect 7 1 21 0;
#X connect 8 0 4 1;
#X connect 9 0 4 1;
#X connect 10 0 8 0;
#X connect 11 0 8 0;
#X connect 11 0 14 0;
#X connect 11 1 9 0;
#X connect 11 1 13 0;
#X connect 12 0 34 0;
#X connect 13 0 12 1;
#X connect 14 0 12 1;
#X connect 15 0 18 0;
#X connect 16 0 17 0;
#X connect 17 0 1 0;
#X connect 18 0 19 1;
#X connect 19 0 20 0;
#X connect 20 0 34 0;
#X connect 21 0 20 1;
#X connect 22 0 20 1;
#X connect 23 0 19 0;
#X connect 24 0 2 0;
#X connect 25 0 15 0;
#X connect 26 0 4 0;
#X connect 26 0 24 0;
#X connect 26 0 23 0;
#X connect 27 0 4 0;
#X connect 27 0 24 0;
#X connect 27 0 23 0;
#X connect 28 0 29 1;
#X connect 29 0 34 0;
#X connect 30 0 25 0;
#X connect 31 0 16 0;
#X connect 32 0 16 1;
#X connect 33 0 34 2;
#X connect 34 0 0 0;
#X connect 34 1 0 1;
#X coords 0 -1 1 1 110 50 1 100 100;
#X restore 302 673 pd fx-2;
#X obj 395 574 r fader5;
#X obj 395 414 r fader1;
#X obj 450 414 r fader2;
#X obj 450 574 r fader6;
#X msg 954 63 1-carrega \; 2-volumes \; 3-conferir_faders-sliders;
#X obj 302 601 delayaa~ 10000;
#X obj 552 391 s~ fx2a;
#X obj 551 530 s~ fx2b;
#X obj 553 253 s~ fx1;
#X obj 428 532 gatt~ 200;
#X obj 302 441 delayaa~ 5000;
#X obj 414 708 gatt~ 50;
#X obj 13 107 gatte-st~ 50;
#X obj 144 108 r car-vol;
#X obj 144 238 r car-vol;
#X obj 144 368 r car-vol;
#X obj 880 104 s liga-vol;
#X msg 917 81 1;
#X obj 364 145 r liga-vol;
#X obj 364 335 r liga-vol;
#X obj 204 108 r liga-vol;
#X obj 204 238 r liga-vol;
#X obj 204 368 r liga-vol;
#X obj 272 166 gatte-st~ 50;
#X obj 272 356 gatte-st~ 50;
#X obj 13 238 gatte-st~ 50;
#X obj 13 368 gatte-st~ 50;
#N canvas 507 119 450 300 rotas-webcam 0;
#X obj 49 120 osc-recebe 9002;
#X obj 153 120 print;
#X obj 49 147 routeOSC /red /green /blue /yellow;
#N canvas 444 131 795 587 router-green 0;
#X text 167 130 lista vindo das cores;
#X text 70 61 seletores (cores);
#X obj 101 416 unpack f f f f;
#X obj 225 416 unpack f f f f;
#X text 64 156 nao precisamos dos outros blobs \, soh o primeiro daria
para apagar esses aih embaixo...;
#X text 121 103 estados: 0 - desligado 1 - 2 -;
#X obj 242 285 inlet;
#X obj 185 449 tgl 15 0 empty empty empty 17 7 0 10 -262144 -1 -1 0
1;
#X obj 355 416 unpack f f f f;
#X obj 72 83 r green-state;
#X obj 101 443 s G1-x;
#X obj 128 463 s G1-y;
#X obj 155 483 s G1-size;
#X obj 182 503 s G1-on-off;
#X obj 225 443 s G2-x;
#X obj 252 463 s G2-y;
#X obj 279 483 s G2-size;
#X obj 307 503 s G2-on-off;
#X obj 355 443 s G3-x;
#X obj 382 463 s G3-y;
#X obj 409 483 s G3-size;
#X obj 436 503 s G3-on-off;
#X obj 485 416 unpack f f f f;
#X obj 209 323 gate 4 4 4 4;
#X obj 485 443 s G4-x;
#X obj 512 463 s G4-y;
#X obj 539 483 s G4-size;
#X obj 566 503 s G4-on-off;
#X floatatom 396 527 5 0 0 0 - - -;
#X connect 2 0 10 0;
#X connect 2 1 11 0;
#X connect 2 2 12 0;
#X connect 2 3 13 0;
#X connect 3 0 14 0;
#X connect 3 1 15 0;
#X connect 3 2 16 0;
#X connect 3 3 17 0;
#X connect 6 0 23 1;
#X connect 7 0 13 0;
#X connect 8 0 18 0;
#X connect 8 0 28 0;
#X connect 8 1 19 0;
#X connect 8 2 20 0;
#X connect 8 3 21 0;
#X connect 9 0 23 0;
#X connect 22 0 24 0;
#X connect 22 1 25 0;
#X connect 22 2 26 0;
#X connect 22 3 27 0;
#X connect 23 0 2 0;
#X connect 23 1 3 0;
#X connect 23 2 8 0;
#X connect 23 3 22 0;
#X restore 153 174 pd router-green;
#N canvas 602 125 610 635 router-red 0;
#X text 137 100 lista vindo das cores;
#X text 40 31 seletores (cores);
#X obj 71 386 unpack f f f f;
#X obj 195 386 unpack f f f f;
#X text 34 126 nao precisamos dos outros blobs \, soh o primeiro daria
para apagar esses aih embaixo...;
#X text 91 73 estados: 0 - desligado 1 - 2 -;
#X obj 212 255 inlet;
#X obj 155 419 tgl 15 0 empty empty empty 17 7 0 10 -262144 -1 -1 0
1;
#X obj 42 53 r red-state;
#X obj 71 413 s R1-x;
#X obj 98 433 s R1-y;
#X obj 125 453 s R1-size;
#X obj 152 473 s R1-on-off;
#X obj 195 413 s R2-x;
#X obj 222 433 s R2-y;
#X obj 249 453 s R2-size;
#X obj 276 473 s R2-on-off;
#X obj 325 386 unpack f f f f;
#X obj 325 413 s R3-x;
#X obj 352 433 s R3-y;
#X obj 379 453 s R3-size;
#X obj 406 473 s R3-on-off;
#X obj 179 293 gate 4 4 4;
#X obj 445 386 unpack f f f f;
#X obj 445 413 s R4-x;
#X obj 472 433 s R4-y;
#X obj 499 453 s R4-size;
#X obj 526 473 s R4-on-off;
#X connect 2 0 9 0;
#X connect 2 1 10 0;
#X connect 2 2 11 0;
#X connect 2 3 12 0;
#X connect 3 0 13 0;
#X connect 3 1 14 0;
#X connect 3 2 15 0;
#X connect 3 3 16 0;
#X connect 6 0 22 1;
#X connect 7 0 12 0;
#X connect 8 0 22 0;
#X connect 17 0 18 0;
#X connect 17 1 19 0;
#X connect 17 2 20 0;
#X connect 17 3 21 0;
#X connect 22 0 2 0;
#X connect 22 1 3 0;
#X connect 22 2 17 0;
#X connect 22 3 23 0;
#X connect 23 0 24 0;
#X connect 23 1 25 0;
#X connect 23 2 26 0;
#X connect 23 3 27 0;
#X restore 49 174 pd router-red;
#N canvas 174 138 883 643 router-blue 0;
#X text 157 120 lista vindo das cores;
#X text 60 51 seletores (cores);
#X obj 91 406 unpack f f f f;
#X obj 215 406 unpack f f f f;
#X text 54 146 nao precisamos dos outros blobs \, soh o primeiro daria
para apagar esses aih embaixo...;
#X text 111 93 estados: 0 - desligado 1 - 2 -;
#X obj 232 275 inlet;
#X obj 175 439 tgl 15 0 empty empty empty 17 7 0 10 -262144 -1 -1 0
1;
#X obj 345 406 unpack f f f f;
#X obj 91 433 s B1-x;
#X obj 118 453 s B1-y;
#X obj 145 473 s B1-size;
#X obj 172 493 s B1-on-off;
#X obj 215 433 s B2-x;
#X obj 62 73 r blue-state;
#X obj 242 453 s B2-y;
#X obj 269 473 s B2-size;
#X obj 296 493 s B2-on-off;
#X obj 345 433 s B3-x;
#X obj 372 453 s B3-y;
#X obj 399 473 s B3-size;
#X obj 426 493 s B3-on-off;
#X obj 465 406 unpack f f f f;
#X obj 199 313 gate 4 4 4;
#X obj 465 433 s B4-x;
#X obj 492 453 s B4-y;
#X obj 519 473 s B4-size;
#X obj 546 493 s B4-on-off;
#X connect 2 0 9 0;
#X connect 2 1 10 0;
#X connect 2 2 11 0;
#X connect 2 3 12 0;
#X connect 3 0 13 0;
#X connect 3 1 15 0;
#X connect 3 2 16 0;
#X connect 3 3 17 0;
#X connect 6 0 23 1;
#X connect 7 0 12 0;
#X connect 8 0 18 0;
#X connect 8 1 19 0;
#X connect 8 2 20 0;
#X connect 8 3 21 0;
#X connect 14 0 23 0;
#X connect 22 0 24 0;
#X connect 22 1 25 0;
#X connect 22 2 26 0;
#X connect 22 3 27 0;
#X connect 23 0 2 0;
#X connect 23 1 3 0;
#X connect 23 2 8 0;
#X connect 23 3 22 0;
#X restore 49 194 pd router-blue;
#N canvas 67 95 736 557 router-yellow 0;
#X text 177 140 lista vindo das cores;
#X text 80 71 seletores (cores);
#X obj 111 426 unpack f f f f;
#X obj 235 426 unpack f f f f;
#X text 74 166 nao precisamos dos outros blobs \, soh o primeiro daria
para apagar esses aih embaixo...;
#X text 131 113 estados: 0 - desligado 1 - 2 -;
#X obj 252 295 inlet;
#X obj 195 459 tgl 15 0 empty empty empty 17 7 0 10 -262144 -1 -1 0
1;
#X obj 365 426 unpack f f f f;
#X obj 82 93 r yellow-state;
#X obj 111 453 s Y1-x;
#X obj 138 473 s Y1-y;
#X obj 165 493 s Y1-size;
#X obj 192 513 s Y1-on-off;
#X obj 235 453 s Y2-x;
#X obj 262 473 s Y2-y;
#X obj 289 493 s Y2-size;
#X obj 316 514 s Y2-on-off;
#X obj 365 453 s Y3-x;
#X obj 392 473 s Y3-y;
#X obj 419 493 s Y3-size;
#X obj 446 513 s Y3-on-off;
#X obj 495 425 unpack f f f f;
#X obj 219 333 gate 4 4 4 4;
#X obj 495 452 s Y4-x;
#X obj 522 472 s Y4-y;
#X obj 549 492 s Y4-size;
#X obj 576 512 s Y4-on-off;
#X connect 2 0 10 0;
#X connect 2 1 11 0;
#X connect 2 2 12 0;
#X connect 2 3 13 0;
#X connect 3 0 14 0;
#X connect 3 1 15 0;
#X connect 3 2 16 0;
#X connect 3 3 17 0;
#X connect 6 0 23 1;
#X connect 7 0 13 0;
#X connect 8 0 18 0;
#X connect 8 1 19 0;
#X connect 8 2 20 0;
#X connect 8 3 21 0;
#X connect 9 0 23 0;
#X connect 22 0 24 0;
#X connect 22 1 25 0;
#X connect 22 2 26 0;
#X connect 22 3 27 0;
#X connect 23 0 2 0;
#X connect 23 1 3 0;
#X connect 23 2 8 0;
#X connect 23 3 22 0;
#X restore 153 194 pd router-yellow;
#X connect 0 0 2 0;
#X connect 0 0 1 0;
#X connect 2 0 4 0;
#X connect 2 1 3 0;
#X connect 2 2 5 0;
#X connect 2 3 6 0;
#X restore 1139 41 pd rotas-webcam;
#N canvas 490 217 450 300 deposito 0;
#X obj 159 135 r b1-on-off;
#X floatatom 240 139 5 0 0 0 - - -;
#X obj 159 189 s b1-on-off-testad;
#X obj 159 162 if-last-3-is-zero red;
#X obj 10 143 r carrega;
#X msg 79 143 100;
#X obj 10 165 roteia;
#X obj 15 -7 adc~ 1;
#X obj 15 50 space1~ 50;
#X obj 137 28 * 100;
#X obj 15 110 dac~;
#X floatatom 176 28 5 0 0 0 - - -;
#X obj 16 25 gatte~ 50;
#X obj 169 -16 gate~ 50;
#X obj 169 -38 osc~ 100;
#X obj 137 53 * -1;
#X obj 137 77 + 100;
#X msg 67 4 100;
#X obj 93 -16 r carrega;
#X msg 107 4 1;
#X obj 137 6 r B2-x;
#X connect 0 0 1 0;
#X connect 0 0 3 0;
#X connect 3 0 2 0;
#X connect 4 0 5 0;
#X connect 5 0 6 1;
#X connect 5 0 6 0;
#X connect 8 0 10 0;
#X connect 8 1 10 1;
#X connect 9 0 15 0;
#X connect 12 0 8 0;
#X connect 13 0 12 0;
#X connect 14 0 13 0;
#X connect 15 0 16 0;
#X connect 16 0 8 2;
#X connect 17 0 12 1;
#X connect 18 0 17 0;
#X connect 18 0 19 0;
#X connect 19 0 12 2;
#X connect 20 0 9 0;
#X connect 20 0 11 0;
#X restore 1139 14 pd deposito;
#X obj 13 6 r R1-x;
#X obj 70 6 r R1-y;
#X obj 186 6 r R1-on-off;
#X obj 128 6 r R1-size;
#X obj 13 136 r G1-x;
#X obj 70 136 r G1-y;
#X obj 128 136 r G1-size;
#X obj 186 136 r G1-on-off;
#X obj 13 266 r B1-x;
#X obj 70 266 r B1-y;
#X obj 128 266 r B1-size;
#X obj 186 266 r B1-on-off;
#X obj 14 425 cam-tocador1~ ./load-samples.txt;
#X obj 272 48 cam-grupo1-tocador~ ./load-samples.txt;
#X obj 144 505 r car-vol;
#X obj 204 505 r liga-vol;
#X obj 13 505 gatte-st~ 50;
#X obj 144 635 r car-vol;
#X obj 204 635 r liga-vol;
#X obj 13 635 gatte-st~ 50;
#X obj 14 403 r B2-x;
#X obj 58 403 r B2-y;
#X obj 102 403 r B2-size;
#X obj 164 403 r B2-on-off;
#X obj 414 686 r~ fx1;
#X obj 424 666 r~ fx2a;
#X obj 464 686 r~ fx2b;
#X obj 960 114 osc~ 100;
#X obj 1021 114 r car-vol;
#X obj 1081 114 r liga-vol;
#X obj 960 136 gatte-st~ 50;
#X obj 13 288 cam-tocador-phasor1~ ./load-samples.txt;
#X obj 272 238 cam-grupo1-tocador~ ./load-samples.txt;
#X obj 13 28 cam-tocador-phasor1~ ./load-samples.txt;
#X obj 13 158 cam-tocador-phasor1~ ./load-samples.txt;
#X obj 14 533 r G2-x;
#X obj 58 533 r G2-y;
#X obj 102 533 r G2-size;
#X obj 164 533 r G2-on-off;
#X obj 314 26 r R3-x;
#X obj 356 6 r R3-y;
#X obj 398 26 r R3-size;
#X obj 440 6 r R3-on-off;
#X obj 314 216 r G3-x;
#X obj 356 196 r G3-y;
#X obj 398 216 r G3-size;
#X obj 440 196 r G3-on-off;
#X obj 592 167 r R4-x;
#X obj 630 147 r R4-y;
#X obj 668 167 r R4-size;
#X obj 677 147 r R4-on-off;
#X obj 591 306 r G4-x;
#X obj 629 286 r G4-y;
#X obj 667 306 r G4-size;
#X obj 677 286 r G4-on-off;
#X obj 590 444 r B4-x;
#X obj 628 424 r B4-y;
#X obj 666 444 r B4-size;
#X obj 675 424 r B4-on-off;
#X obj 14 555 cam-tocador1~ ./load-samples.txt;
#N canvas 67 83 450 300 reverb 1;
#X obj 43 178 rev3~ 100 85 3000 20;
#X floatatom 101 133 5 0 100 2 fb - -;
#X obj 124 65 r car-vol;
#X obj 184 65 r liga-vol;
#X obj 43 235 gatte-st~ 50;
#X obj 73 198 rev3~ 100 85 3000 20;
#X floatatom 135 133 5 0 100 2 vol - -;
#X obj 169 134 tgl 15 0 empty empty empty 17 7 0 10 -262144 -1 -1 0
1;
#X obj 43 45 inlet~;
#X obj 73 75 inlet~;
#X connect 0 0 4 0;
#X connect 1 0 0 3;
#X connect 1 0 5 3;
#X connect 2 0 6 0;
#X connect 3 0 7 0;
#X connect 5 0 4 1;
#X connect 6 0 4 3;
#X connect 7 0 4 4;
#X connect 8 0 0 0;
#X connect 9 0 5 0;
#X coords 0 -1 1 1 85 50 1 100 100;
#X restore 650 665 pd reverb;
#X connect 1 0 2 0;
#X connect 1 0 11 0;
#X connect 1 0 51 0;
#X connect 3 0 6 0;
#X connect 8 0 7 0;
#X connect 9 0 10 0;
#X connect 10 1 1 0;
#X connect 11 0 3 0;
#X connect 13 0 12 0;
#X connect 14 0 13 0;
#X connect 15 0 13 0;
#X connect 16 0 76 5;
#X connect 17 0 76 0;
#X connect 19 0 57 2;
#X connect 20 0 44 0;
#X connect 22 0 42 0;
#X connect 23 0 40 0;
#X connect 24 0 41 0;
#X connect 25 0 22 0;
#X connect 26 0 23 0;
#X connect 27 0 24 0;
#X connect 28 0 39 0;
#X connect 29 0 95 5;
#X connect 30 0 95 0;
#X connect 31 0 58 2;
#X connect 34 0 39 2;
#X connect 35 0 44 2;
#X connect 36 0 44 3;
#X connect 37 0 39 3;
#X connect 39 0 33 0;
#X connect 43 0 39 0;
#X connect 44 0 32 0;
#X connect 44 0 43 0;
#X connect 45 0 33 0;
#X connect 47 0 46 2;
#X connect 48 0 59 2;
#X connect 49 0 60 2;
#X connect 51 0 50 0;
#X connect 52 0 57 3;
#X connect 53 0 58 3;
#X connect 54 0 46 3;
#X connect 55 0 59 3;
#X connect 56 0 60 3;
#X connect 63 0 96 0;
#X connect 64 0 96 1;
#X connect 65 0 96 3;
#X connect 66 0 96 2;
#X connect 67 0 97 0;
#X connect 68 0 97 1;
#X connect 69 0 97 2;
#X connect 70 0 97 3;
#X connect 71 0 94 0;
#X connect 72 0 94 1;
#X connect 73 0 94 2;
#X connect 74 0 94 3;
#X connect 75 0 79 0;
#X connect 75 1 79 1;
#X connect 76 0 57 0;
#X connect 76 1 57 1;
#X connect 76 2 32 0;
#X connect 77 0 79 2;
#X connect 78 0 79 3;
#X connect 80 0 82 2;
#X connect 81 0 82 3;
#X connect 83 0 75 0;
#X connect 84 0 75 1;
#X connect 85 0 75 2;
#X connect 86 0 75 3;
#X connect 87 0 45 0;
#X connect 88 0 45 0;
#X connect 89 0 45 0;
#X connect 90 0 93 0;
#X connect 90 0 93 1;
#X connect 91 0 93 2;
#X connect 92 0 93 3;
#X connect 94 0 60 0;
#X connect 94 1 60 1;
#X connect 95 0 58 0;
#X connect 95 1 58 1;
#X connect 95 2 32 0;
#X connect 96 0 46 0;
#X connect 96 1 46 1;
#X connect 97 0 59 0;
#X connect 97 1 59 1;
#X connect 98 0 122 0;
#X connect 99 0 122 1;
#X connect 100 0 122 2;
#X connect 101 0 122 3;
#X connect 102 0 76 1;
#X connect 103 0 76 2;
#X connect 104 0 76 3;
#X connect 105 0 76 4;
#X connect 106 0 95 1;
#X connect 107 0 95 2;
#X connect 108 0 95 3;
#X connect 109 0 95 4;
#X connect 110 0 22 1;
#X connect 111 0 22 2;
#X connect 112 0 22 3;
#X connect 113 0 22 4;
#X connect 114 0 23 1;
#X connect 115 0 23 2;
#X connect 116 0 23 3;
#X connect 117 0 23 4;
#X connect 118 0 24 1;
#X connect 119 0 24 2;
#X connect 120 0 24 3;
#X connect 121 0 24 4;
#X connect 122 0 82 0;
#X connect 122 1 82 1;
