#N canvas 67 234 1276 521 10;
#X declare -lib iemmatrix;
#X declare -lib iemmatrix;
#N canvas 111 85 450 378 loadar-samples 0;
#X obj 75 199 coll ./load-samples.txt;
#C restore;
#X floatatom 75 173 5 0 0 0 - - -;
#X obj 75 10 r carrega;
#X obj 75 119 metro 10;
#X obj 75 94 tgl 15 0 empty empty empty 17 7 0 10 -262144 -1 -1 0 1
;
#X msg 75 67 1;
#X msg 105 67 0;
#X obj 75 327 soundfiler;
#X msg 165 163 read ./load-samples.txt;
#X obj 75 267 pack s s;
#X msg 34 119 0;
#X obj 50 20 bng 15 250 50 0 empty empty empty 17 7 0 10 -262144 -1
-1;
#N canvas 0 0 450 300 areas 0;
#X obj 48 97 table area04;
#X obj 48 77 table area03;
#X obj 48 57 table area02;
#X obj 48 37 table area01;
#X obj 48 117 table area05;
#X obj 48 137 table area06;
#X obj 48 157 table area07;
#X obj 48 177 table area08;
#X obj 48 197 table area09;
#X obj 48 17 table area00;
#X obj 138 17 table area10;
#X obj 138 37 table area11;
#X obj 138 57 table area12;
#X obj 138 77 table area13;
#X obj 138 97 table area14;
#X obj 138 117 table area15;
#X obj 138 137 table area16;
#X obj 138 157 table area17;
#X obj 138 177 table area18;
#X obj 138 197 table area19;
#X obj 228 17 table area20;
#X obj 228 37 table area21;
#X obj 228 57 table area22;
#X obj 228 77 table area23;
#X obj 228 97 table area24;
#X obj 228 117 table area25;
#X obj 228 137 table area26;
#X obj 228 157 table area27;
#X obj 228 177 table area28;
#X obj 228 197 table area29;
#X restore 231 56 pd areas;
#X obj 75 35 t b b b;
#X obj 75 236 unpack s f f s;
#X obj 75 146 counter 100;
#X msg 75 293 read -maxsize 1e+07 -resize /media/sda1/sons/telefone-sem-fio/\$1
\$2;
#X connect 0 0 14 0;
#X connect 1 0 0 0;
#X connect 2 0 13 0;
#X connect 3 0 15 0;
#X connect 4 0 3 0;
#X connect 5 0 4 0;
#X connect 6 0 4 0;
#X connect 8 0 0 0;
#X connect 9 0 16 0;
#X connect 10 0 15 0;
#X connect 11 0 13 0;
#X connect 13 0 5 0;
#X connect 13 1 10 0;
#X connect 13 2 8 0;
#X connect 14 0 9 0;
#X connect 14 3 9 1;
#X connect 15 0 1 0;
#X connect 15 2 6 0;
#X connect 16 0 7 0;
#X restore 269 114 pd loadar-samples;
#X obj 9 19 bng 20 250 50 0 empty empty empty 17 7 0 10 -258113 -4034
-203904;
#X obj 9 44 s carrega;
#X floatatom 79 23 5 0 0 2 bema-ms - -;
#N canvas 0 0 450 300 keey 0;
#X obj 75 18 key;
#X floatatom 75 45 5 0 0 0 - - -;
#X obj 75 231 s keyr;
#X obj 99 211 s keyt;
#X obj 75 74 sel 27;
#X obj 75 118 gate;
#X obj 75 99 tgl 15 0 empty empty empty 17 7 0 10 -262144 -1 -1 1 1
;
#X obj 124 231 s keyR;
#X obj 149 211 s keyT;
#X msg 75 168 1;
#X msg 99 188 1;
#X obj 173 181 s keyg;
#X obj 193 201 s keyG;
#X obj 223 181 s keyf;
#X obj 243 201 s keys;
#X obj 253 221 s keyd;
#X obj 75 141 sel 114 116 82 84 103 71 102 115 100;
#X connect 0 0 1 0;
#X connect 1 0 4 0;
#X connect 4 0 6 0;
#X connect 4 1 5 1;
#X connect 5 0 16 0;
#X connect 6 0 5 0;
#X connect 9 0 2 0;
#X connect 10 0 3 0;
#X connect 16 0 9 0;
#X connect 16 1 10 0;
#X connect 16 2 7 0;
#X connect 16 3 8 0;
#X connect 16 4 11 0;
#X connect 16 5 12 0;
#X connect 16 6 13 0;
#X connect 16 7 14 0;
#X connect 16 8 15 0;
#X restore 269 141 pd keey;
#X obj 640 -23 r keyr;
#X obj 689 -23 r keyR;
#X obj 9 138 nbx 5 30 -1e+37 1e+37 0 0 empty empty empty 0 -8 0 30
-258113 -1 -1 0 256;
#X obj 585 -23 r parte1;
#N canvas 57 200 505 423 segue-partitura 0;
#X obj 168 217 metro 500;
#X obj 230 101 tgl 15 0 empty empty empty 17 7 0 10 -258113 -4032 -66577
0 1;
#X floatatom 168 331 5 0 0 0 - - -;
#X msg 232 217 goto \$1;
#X floatatom 247 101 3 0 0 0 - - -;
#X obj 120 356 outlet;
#N canvas 32 225 450 300 parte-continuo1 0;
#X obj 268 41 r carrega;
#X obj 127 179 print;
#X obj 174 202 route list;
#X obj 174 46 inlet;
#X floatatom 174 85 5 0 0 0 - - -;
#X obj 174 175 pack s f f f f f s;
#X obj 174 138 unpack s f f f f f f f s;
#X obj 332 193 pack f f;
#X obj 377 168 *;
#X obj 392 146 r tempo;
#X obj 174 256 s tocador-cont1;
#X obj 174 229 route tocador-continuo1;
#X obj 332 216 s vol-cont1;
#X msg 268 66 read ./partes-continuo1.txt;
#X obj 174 114 coll ./partes-continuo1.txt;
#C restore;
#X connect 2 0 11 0;
#X connect 3 0 4 0;
#X connect 4 0 14 0;
#X connect 5 0 2 0;
#X connect 6 0 5 0;
#X connect 6 1 7 0;
#X connect 6 2 8 0;
#X connect 6 3 5 1;
#X connect 6 4 5 2;
#X connect 6 5 5 3;
#X connect 6 6 5 4;
#X connect 6 7 5 5;
#X connect 6 8 5 6;
#X connect 7 0 12 0;
#X connect 8 0 7 1;
#X connect 9 0 8 1;
#X connect 11 0 10 0;
#X connect 13 0 14 0;
#X connect 14 0 6 0;
#X restore 310 212 pd parte-continuo1;
#N canvas 32 225 450 300 parte-continuo2 0;
#X obj 268 41 r carrega;
#X obj 127 179 print;
#X obj 174 202 route list;
#X obj 174 46 inlet;
#X floatatom 174 85 5 0 0 0 - - -;
#X obj 174 175 pack s f f f f f s;
#X obj 174 138 unpack s f f f f f f f s;
#X obj 332 193 pack f f;
#X obj 377 168 *;
#X obj 392 146 r tempo;
#X msg 268 66 read ./partes-continuo2.txt;
#X obj 174 114 coll ./partes-continuo2.txt;
#C restore;
#X obj 332 216 s vol-cont2;
#X obj 174 256 s tocador-cont2;
#X obj 174 229 route tocador-continuo2;
#X connect 2 0 14 0;
#X connect 3 0 4 0;
#X connect 4 0 11 0;
#X connect 5 0 2 0;
#X connect 6 0 5 0;
#X connect 6 1 7 0;
#X connect 6 2 8 0;
#X connect 6 3 5 1;
#X connect 6 4 5 2;
#X connect 6 5 5 3;
#X connect 6 6 5 4;
#X connect 6 7 5 5;
#X connect 6 8 5 6;
#X connect 7 0 12 0;
#X connect 8 0 7 1;
#X connect 9 0 8 1;
#X connect 10 0 11 0;
#X connect 11 0 6 0;
#X connect 14 0 13 0;
#X restore 310 232 pd parte-continuo2;
#X obj 185 160 sel 1;
#X obj 232 150 f;
#X obj 219 190 r bema;
#X floatatom 52 221 3 0 0 0 - - -;
#X obj 168 303 +;
#X obj 183 276 * 1000;
#X obj 52 190 + 1;
#X obj 168 133 t f f b b;
#X msg 52 163 1;
#X obj 168 244 counter -1 900000;
#X msg 122 217 goto 0;
#X floatatom 269 101 3 0 0 0 - - -;
#X msg 269 75 1;
#X obj 269 163 t f f;
#X obj 99 25 + 1;
#N canvas 0 0 395 404 partituras-escondidas 0;
#X obj 28 3 inlet;
#X obj 28 109 s parte1;
#X obj 28 27 s partituras-escondidas-interno-\$0;
#X obj 28 65 r partituras-escondidas-interno-\$0;
#X obj 108 235 r partituras-escondidas-interno-\$0;
#X obj 108 115 r partituras-escondidas-interno-\$0;
#X obj 108 159 s parte2;
#X obj 28 185 r partituras-escondidas-interno-\$0;
#X obj 28 229 s parte3;
#X obj 28 207 ler-partitura ../1telefone-CLP/parte3.txt;
#X obj 28 87 ler-partitura ../1telefone-CLP/parte1.txt;
#X obj 108 137 ler-partitura ../1telefone-CLP/parte2.txt;
#X obj 28 305 r partituras-escondidas-interno-\$0;
#X obj 28 327 ler-partitura ../1telefone-CLP/parte-grupo1.txt;
#X obj 28 349 s parte-grupo1;
#X obj 108 279 s parte4;
#X obj 108 257 ler-partitura ../1telefone-CLP/parte4.txt;
#X connect 0 0 2 0;
#X connect 3 0 10 0;
#X connect 4 0 16 0;
#X connect 5 0 11 0;
#X connect 7 0 9 0;
#X connect 9 0 8 0;
#X connect 10 0 1 0;
#X connect 11 0 6 0;
#X connect 12 0 13 0;
#X connect 13 0 14 0;
#X connect 16 0 15 0;
#X restore 168 356 pd partituras-escondidas;
#X obj 269 48 r lob;
#X obj 52 141 r somamil-\$0;
#X obj 261 21 s somamil-\$0;
#X obj 56 48 inlet;
#X obj 96 48 inlet;
#X msg 56 74 1;
#X msg 96 74 0;
#X msg 221 68 0;
#X obj 99 -22 sel 1199 2123 3199 4199 5123 6199 7322 8199 9123 10199
11322 12010;
#X connect 0 0 17 0;
#X connect 1 0 15 0;
#X connect 2 0 5 0;
#X connect 2 0 22 0;
#X connect 2 0 23 0;
#X connect 3 0 17 0;
#X connect 4 0 9 1;
#X connect 8 0 9 0;
#X connect 9 0 3 0;
#X connect 10 0 0 1;
#X connect 11 0 14 1;
#X connect 11 0 21 0;
#X connect 12 0 2 0;
#X connect 13 0 12 1;
#X connect 14 0 11 0;
#X connect 15 0 0 0;
#X connect 15 1 8 0;
#X connect 15 2 4 0;
#X connect 15 3 19 0;
#X connect 16 0 14 0;
#X connect 17 0 12 0;
#X connect 18 0 17 0;
#X connect 19 0 21 0;
#X connect 20 0 19 0;
#X connect 21 0 14 1;
#X connect 21 1 13 0;
#X connect 22 0 32 0;
#X connect 24 0 20 0;
#X connect 25 0 16 0;
#X connect 25 0 18 0;
#X connect 27 0 29 0;
#X connect 28 0 30 0;
#X connect 29 0 1 0;
#X connect 30 0 1 0;
#X connect 31 0 1 0;
#X connect 32 0 26 0;
#X connect 32 1 26 0;
#X connect 32 2 26 0;
#X connect 32 3 26 0;
#X connect 32 4 26 0;
#X connect 32 5 26 0;
#X connect 32 6 26 0;
#X connect 32 7 26 0;
#X connect 32 8 26 0;
#X connect 32 9 26 0;
#X connect 32 10 26 0;
#X connect 32 11 31 0;
#X coords 0 -1 1 1 190 17 1 100 100;
#X restore 9 113 pd segue-partitura;
#N canvas 0 0 450 300 efeitos 0;
#X obj 3 243 dac~;
#X obj 2 108 RM2~;
#X obj 170 159 vcf~ 100 10;
#X floatatom 201 88 5 0 0 0 - - -;
#X floatatom 233 108 5 0 0 0 - - -;
#X obj 169 225 dac~;
#X obj 201 111 sig~;
#X obj 169 60 noise~;
#X obj 78 178 r carrega;
#X msg 78 199 90;
#N canvas 0 0 450 300 randona 0;
#X obj 195 131 random 3000;
#X obj 196 105 metro 3000;
#X obj 195 84 tgl 15 0 empty empty empty 17 7 0 10 -262144 -1 -1 0
1;
#X obj 271 82 random 3000;
#X obj 271 35 tgl 15 0 empty empty empty 17 7 0 10 -262144 -1 -1 0
1;
#X obj 275 111 + 500;
#X obj 205 185 line;
#X msg 206 162 \$1 \$2;
#X obj 270 158 pack 1 2;
#X obj 272 56 metro 1000;
#X obj 320 119 bng 15 250 50 0 empty empty empty 17 7 0 10 -262144
-1 -1;
#X obj 246 222 bng 15 250 50 0 empty empty empty 17 7 0 10 -262144
-1 -1;
#X obj 191 222 outlet;
#X obj 192 25 inlet;
#X obj 259 194 + 500;
#X connect 0 0 14 0;
#X connect 0 0 11 0;
#X connect 1 0 0 0;
#X connect 2 0 1 0;
#X connect 3 0 5 0;
#X connect 3 0 10 0;
#X connect 4 0 9 0;
#X connect 5 0 1 1;
#X connect 5 0 8 1;
#X connect 6 0 12 0;
#X connect 7 0 6 0;
#X connect 8 0 7 0;
#X connect 9 0 3 0;
#X connect 13 0 4 0;
#X connect 13 0 2 0;
#X connect 14 0 8 0;
#X restore 242 83 pd randona;
#X obj 259 60 tgl 15 0 empty empty empty 17 7 0 10 -262144 -1 -1 0
1;
#X obj 2 218 rev3~ 100 90 3000 20;
#X obj 280 142 gate~ 14;
#X obj 75 56 gatt~ 80;
#X obj 2 176 gatt~;
#X obj 169 186 gatt~;
#X obj 169 138 gatt~;
#X connect 1 0 15 0;
#X connect 2 0 16 0;
#X connect 3 0 6 0;
#X connect 4 0 2 2;
#X connect 6 0 2 1;
#X connect 7 0 17 0;
#X connect 8 0 9 0;
#X connect 9 0 15 1;
#X connect 9 0 16 1;
#X connect 10 0 3 0;
#X connect 11 0 10 0;
#X connect 12 0 0 0;
#X connect 12 0 0 1;
#X connect 15 0 12 0;
#X connect 16 0 5 0;
#X connect 16 0 5 1;
#X connect 17 0 2 0;
#X restore 319 141 pd efeitos;
#X obj 79 44 s bema;
#X msg 113 22 125;
#X obj 209 141 s lob;
#X obj 209 114 loadbang;
#X obj 9 66 r keyg;
#X obj 9 88 t b b;
#X obj 59 66 r keyG;
#X obj 59 88 r keyf;
#X obj 581 311 r parte-grupo1;
#X obj 737 -23 r bema;
#X obj 848 310 r bema;
#X obj 581 337 partgrupo1~ ../1telefone-CLP/load-samples.txt;
#X obj 585 -1 part1~ ./load-samples.txt 300;
#X obj 734 78 dac~;
#X obj 870 89 vsl 15 200 50 0.5 1 0 empty empty empty 0 -9 0 10 -262144
-1 -1 0 1;
#X obj 535 207 tgl 15 0 empty empty empty 17 7 0 10 -262144 -1 -1 0
1;
#X floatatom 615 172 5 0 0 0 - - -;
#X obj 585 277 pack b f f f f f f f f f f f;
#X floatatom 600 152 5 0 100 2 vol - -;
#X floatatom 645 252 5 0 0 0 - - -;
#X floatatom 630 212 5 0 100 2 out1 - -;
#X floatatom 675 172 5 0 0 0 - - -;
#X floatatom 660 152 5 0 100 2 space - -;
#X floatatom 705 252 5 0 0 2 som - -;
#X floatatom 690 212 5 0 0 0 - - -;
#X obj 535 182 r keys;
#X floatatom 556 207 5 0 0 0 - - -;
#X floatatom 750 172 5 0 0 0 - - -;
#X obj 535 235 metro 1000;
#X msg 535 257 1;
#X msg 556 155 100;
#X msg 566 135 200;
#X msg 576 115 300;
#X obj 750 196 * -1;
#X floatatom 750 253 10 0 0 0 - - -;
#X msg 526 135 50;
#X floatatom 750 306 5 0 0 0 - - -;
#X obj 750 227 + 50;
#X obj 495 182 r keyd;
#X obj 797 193 gate 2;
#X obj 797 171 + 1;
#X obj 795 134 tgl 15 0 empty empty empty 17 7 0 10 -262144 -1 -1 0
1;
#X obj 807 221 * 10000;
#X obj 622 95 bng 15 250 50 0 empty empty empty 17 7 0 10 -262144 -1
-1;
#X msg 610 121 100;
#X msg 650 121 1;
#X obj 951 73 webcam-funfa;
#X obj 951 159 cdetec-3blob-out-green;
#X obj 1053 141 r lob;
#X floatatom 951 225 5 0 0 0 - - -;
#X floatatom 962 245 5 0 0 0 - - -;
#X floatatom 961 306 5 0 0 0 - - -;
#X obj 962 285 * 50;
#X obj 681 432 dac~;
#X obj 1010 290 s voll1;
#X obj 848 402 gat~;
#X obj 921 375 r voll1;
#X obj 581 402 gat~;
#X obj 654 375 r voll1;
#X obj 1010 249 * -1;
#X obj 1010 270 + 1;
#X obj 426 340 osc~ 100;
#X obj 960 347 line;
#X obj 943 416 nbx 5 50 -1e+37 1e+37 0 0 empty empty empty 0 -8 0 50
-258113 -1 -1 42.4542 256;
#X msg 960 327 \$1 100;
#X connect 1 0 2 0;
#X connect 1 0 12 0;
#X connect 3 0 11 0;
#X connect 5 0 23 1;
#X connect 6 0 23 2;
#X connect 8 0 23 0;
#X connect 9 0 7 0;
#X connect 12 0 3 0;
#X connect 14 0 13 0;
#X connect 15 0 16 0;
#X connect 16 0 9 0;
#X connect 16 1 1 0;
#X connect 17 0 9 1;
#X connect 18 0 9 0;
#X connect 19 0 22 0;
#X connect 20 0 23 4;
#X connect 21 0 22 1;
#X connect 22 0 68 0;
#X connect 22 1 66 0;
#X connect 23 0 24 0;
#X connect 23 1 24 1;
#X connect 25 0 50 1;
#X connect 26 0 39 0;
#X connect 27 0 28 2;
#X connect 28 0 22 0;
#X connect 29 0 28 1;
#X connect 30 0 28 4;
#X connect 31 0 28 3;
#X connect 32 0 28 6;
#X connect 33 0 28 5;
#X connect 34 0 28 8;
#X connect 35 0 28 7;
#X connect 36 0 26 0;
#X connect 37 0 39 1;
#X connect 38 0 44 0;
#X connect 39 0 40 0;
#X connect 40 0 28 0;
#X connect 41 0 37 0;
#X connect 42 0 37 0;
#X connect 43 0 37 0;
#X connect 44 0 48 0;
#X connect 45 0 28 9;
#X connect 46 0 37 0;
#X connect 47 0 28 11;
#X connect 48 0 45 0;
#X connect 49 0 40 0;
#X connect 50 0 45 0;
#X connect 50 1 53 0;
#X connect 51 0 50 0;
#X connect 52 0 51 0;
#X connect 53 0 45 0;
#X connect 54 0 55 0;
#X connect 54 0 56 0;
#X connect 54 0 46 0;
#X connect 55 0 29 0;
#X connect 55 0 31 0;
#X connect 56 0 34 0;
#X connect 57 0 58 0;
#X connect 58 0 60 0;
#X connect 58 1 61 0;
#X connect 58 3 26 0;
#X connect 59 0 58 1;
#X connect 60 0 70 0;
#X connect 61 0 63 0;
#X connect 62 0 75 0;
#X connect 63 0 62 0;
#X connect 66 0 64 1;
#X connect 67 0 66 1;
#X connect 68 0 64 0;
#X connect 69 0 68 1;
#X connect 70 0 71 0;
#X connect 71 0 65 0;
#X connect 73 0 25 0;
#X connect 73 0 74 0;
#X connect 75 0 73 0;
