#N canvas 69 245 1276 521 10;
#X declare -lib iemmatrix;
#X declare -lib iemmatrix;
#X declare -lib iemmatrix;
#N canvas 111 85 450 378 loadar-samples 0;
#X obj 75 199 coll ./load-samples.txt;
#C restore;
#X floatatom 75 173 5 0 0 0 - - -;
#X obj 75 10 r carrega;
#X obj 75 119 metro 10;
#X obj 75 94 tgl 15 0 empty empty empty 17 7 0 10 -262144 -1 -1 0 1
;
#X msg 75 67 1;
#X msg 105 67 0;
#X obj 75 327 soundfiler;
#X msg 165 163 read ./load-samples.txt;
#X obj 75 267 pack s s;
#X msg 34 119 0;
#X obj 50 20 bng 15 250 50 0 empty empty empty 17 7 0 10 -262144 -1
-1;
#N canvas 0 0 450 300 areas 0;
#X obj 48 97 table area04;
#X obj 48 77 table area03;
#X obj 48 57 table area02;
#X obj 48 37 table area01;
#X obj 48 117 table area05;
#X obj 48 137 table area06;
#X obj 48 157 table area07;
#X obj 48 177 table area08;
#X obj 48 197 table area09;
#X obj 48 17 table area00;
#X obj 138 17 table area10;
#X obj 138 37 table area11;
#X obj 138 57 table area12;
#X obj 138 77 table area13;
#X obj 138 97 table area14;
#X obj 138 117 table area15;
#X obj 138 137 table area16;
#X obj 138 157 table area17;
#X obj 138 177 table area18;
#X obj 138 197 table area19;
#X obj 228 17 table area20;
#X obj 228 37 table area21;
#X obj 228 57 table area22;
#X obj 228 77 table area23;
#X obj 228 97 table area24;
#X obj 228 117 table area25;
#X obj 228 137 table area26;
#X obj 228 157 table area27;
#X obj 228 177 table area28;
#X obj 228 197 table area29;
#X restore 231 56 pd areas;
#X obj 75 35 t b b b;
#X obj 75 236 unpack s f f s;
#X obj 75 146 counter 100;
#X msg 75 293 read -maxsize 1e+07 -resize /media/sda1/sons/telefone-sem-fio/\$1
\$2;
#X connect 0 0 14 0;
#X connect 1 0 0 0;
#X connect 2 0 13 0;
#X connect 3 0 15 0;
#X connect 4 0 3 0;
#X connect 5 0 4 0;
#X connect 6 0 4 0;
#X connect 8 0 0 0;
#X connect 9 0 16 0;
#X connect 10 0 15 0;
#X connect 11 0 13 0;
#X connect 13 0 5 0;
#X connect 13 1 10 0;
#X connect 13 2 8 0;
#X connect 14 0 9 0;
#X connect 14 3 9 1;
#X connect 15 0 1 0;
#X connect 15 2 6 0;
#X connect 16 0 7 0;
#X restore 269 114 pd loadar-samples;
#X obj 1012 4 bng 20 250 50 0 empty empty empty 17 7 0 10 -258113 -4034
-203904;
#X obj 1012 29 s carrega;
#X floatatom 1082 8 5 0 0 2 bema-ms - -;
#N canvas 0 0 450 300 keey 0;
#X obj 75 18 key;
#X floatatom 75 45 5 0 0 0 - - -;
#X obj 75 231 s keyr;
#X obj 99 211 s keyt;
#X obj 75 74 sel 27;
#X obj 75 118 gate;
#X obj 75 99 tgl 15 0 empty empty empty 17 7 0 10 -262144 -1 -1 0 1
;
#X obj 124 231 s keyR;
#X obj 149 211 s keyT;
#X msg 75 168 1;
#X msg 99 188 1;
#X obj 173 181 s keyg;
#X obj 193 201 s keyG;
#X obj 223 181 s keyf;
#X obj 243 201 s keys;
#X obj 253 221 s keyd;
#X obj 75 141 sel 114 116 82 84 103 71 102 115 100;
#X connect 0 0 1 0;
#X connect 1 0 4 0;
#X connect 4 0 6 0;
#X connect 4 1 5 1;
#X connect 5 0 16 0;
#X connect 6 0 5 0;
#X connect 9 0 2 0;
#X connect 10 0 3 0;
#X connect 16 0 9 0;
#X connect 16 1 10 0;
#X connect 16 2 7 0;
#X connect 16 3 8 0;
#X connect 16 4 11 0;
#X connect 16 5 12 0;
#X connect 16 6 13 0;
#X connect 16 7 14 0;
#X connect 16 8 15 0;
#X restore 269 141 pd keey;
#X obj 640 -23 r keyr;
#X obj 689 -23 r keyR;
#X obj 1012 123 nbx 5 30 -1e+37 1e+37 0 0 empty empty empty 0 -8 0
30 -258113 -1 -1 0 256;
#X obj 585 -23 r parte1;
#N canvas 57 200 505 423 segue-partitura 0;
#X obj 168 217 metro 500;
#X obj 230 101 tgl 15 0 empty empty empty 17 7 0 10 -258113 -4032 -66577
0 1;
#X floatatom 168 331 5 0 0 0 - - -;
#X msg 232 217 goto \$1;
#X floatatom 247 101 3 0 0 0 - - -;
#X obj 120 356 outlet;
#N canvas 32 225 450 300 parte-continuo1 0;
#X obj 268 41 r carrega;
#X obj 127 179 print;
#X obj 174 202 route list;
#X obj 174 46 inlet;
#X floatatom 174 85 5 0 0 0 - - -;
#X obj 174 175 pack s f f f f f s;
#X obj 174 138 unpack s f f f f f f f s;
#X obj 332 193 pack f f;
#X obj 377 168 *;
#X obj 392 146 r tempo;
#X obj 174 256 s tocador-cont1;
#X obj 174 229 route tocador-continuo1;
#X obj 332 216 s vol-cont1;
#X msg 268 66 read ./partes-continuo1.txt;
#X obj 174 114 coll ./partes-continuo1.txt;
#C restore;
#X connect 2 0 11 0;
#X connect 3 0 4 0;
#X connect 4 0 14 0;
#X connect 5 0 2 0;
#X connect 6 0 5 0;
#X connect 6 1 7 0;
#X connect 6 2 8 0;
#X connect 6 3 5 1;
#X connect 6 4 5 2;
#X connect 6 5 5 3;
#X connect 6 6 5 4;
#X connect 6 7 5 5;
#X connect 6 8 5 6;
#X connect 7 0 12 0;
#X connect 8 0 7 1;
#X connect 9 0 8 1;
#X connect 11 0 10 0;
#X connect 13 0 14 0;
#X connect 14 0 6 0;
#X restore 310 212 pd parte-continuo1;
#N canvas 32 225 450 300 parte-continuo2 0;
#X obj 268 41 r carrega;
#X obj 127 179 print;
#X obj 174 202 route list;
#X obj 174 46 inlet;
#X floatatom 174 85 5 0 0 0 - - -;
#X obj 174 175 pack s f f f f f s;
#X obj 174 138 unpack s f f f f f f f s;
#X obj 332 193 pack f f;
#X obj 377 168 *;
#X obj 392 146 r tempo;
#X msg 268 66 read ./partes-continuo2.txt;
#X obj 174 114 coll ./partes-continuo2.txt;
#C restore;
#X obj 332 216 s vol-cont2;
#X obj 174 256 s tocador-cont2;
#X obj 174 229 route tocador-continuo2;
#X connect 2 0 14 0;
#X connect 3 0 4 0;
#X connect 4 0 11 0;
#X connect 5 0 2 0;
#X connect 6 0 5 0;
#X connect 6 1 7 0;
#X connect 6 2 8 0;
#X connect 6 3 5 1;
#X connect 6 4 5 2;
#X connect 6 5 5 3;
#X connect 6 6 5 4;
#X connect 6 7 5 5;
#X connect 6 8 5 6;
#X connect 7 0 12 0;
#X connect 8 0 7 1;
#X connect 9 0 8 1;
#X connect 10 0 11 0;
#X connect 11 0 6 0;
#X connect 14 0 13 0;
#X restore 310 232 pd parte-continuo2;
#X obj 185 160 sel 1;
#X obj 232 150 f;
#X obj 219 190 r bema;
#X floatatom 52 221 3 0 0 0 - - -;
#X obj 168 303 +;
#X obj 183 276 * 1000;
#X obj 52 190 + 1;
#X obj 168 133 t f f b b;
#X msg 52 163 1;
#X obj 168 244 counter -1 900000;
#X msg 122 217 goto 0;
#X floatatom 269 101 3 0 0 0 - - -;
#X msg 269 75 1;
#X obj 269 163 t f f;
#X obj 99 25 + 1;
#N canvas 0 0 395 404 partituras-escondidas 0;
#X obj 28 3 inlet;
#X obj 28 109 s parte1;
#X obj 28 27 s partituras-escondidas-interno-\$0;
#X obj 28 65 r partituras-escondidas-interno-\$0;
#X obj 108 235 r partituras-escondidas-interno-\$0;
#X obj 108 115 r partituras-escondidas-interno-\$0;
#X obj 108 159 s parte2;
#X obj 28 185 r partituras-escondidas-interno-\$0;
#X obj 28 229 s parte3;
#X obj 28 207 ler-partitura ../1telefone-CLP/parte3.txt;
#X obj 28 87 ler-partitura ../1telefone-CLP/parte1.txt;
#X obj 108 137 ler-partitura ../1telefone-CLP/parte2.txt;
#X obj 28 305 r partituras-escondidas-interno-\$0;
#X obj 28 327 ler-partitura ../1telefone-CLP/parte-grupo1.txt;
#X obj 28 349 s parte-grupo1;
#X obj 108 279 s parte4;
#X obj 108 257 ler-partitura ../1telefone-CLP/parte4.txt;
#X connect 0 0 2 0;
#X connect 3 0 10 0;
#X connect 4 0 16 0;
#X connect 5 0 11 0;
#X connect 7 0 9 0;
#X connect 9 0 8 0;
#X connect 10 0 1 0;
#X connect 11 0 6 0;
#X connect 12 0 13 0;
#X connect 13 0 14 0;
#X connect 16 0 15 0;
#X restore 168 356 pd partituras-escondidas;
#X obj 269 48 r lob;
#X obj 52 141 r somamil-\$0;
#X obj 261 21 s somamil-\$0;
#X obj 56 48 inlet;
#X obj 96 48 inlet;
#X msg 56 74 1;
#X msg 96 74 0;
#X msg 221 68 0;
#X obj 99 -22 sel 1199 2123 3199 4199 5123 6199 7322 8199 9123 10199
11322 12010;
#X connect 0 0 17 0;
#X connect 1 0 15 0;
#X connect 2 0 5 0;
#X connect 2 0 22 0;
#X connect 2 0 23 0;
#X connect 3 0 17 0;
#X connect 4 0 9 1;
#X connect 8 0 9 0;
#X connect 9 0 3 0;
#X connect 10 0 0 1;
#X connect 11 0 14 1;
#X connect 11 0 21 0;
#X connect 12 0 2 0;
#X connect 13 0 12 1;
#X connect 14 0 11 0;
#X connect 15 0 0 0;
#X connect 15 1 8 0;
#X connect 15 2 4 0;
#X connect 15 3 19 0;
#X connect 16 0 14 0;
#X connect 17 0 12 0;
#X connect 18 0 17 0;
#X connect 19 0 21 0;
#X connect 20 0 19 0;
#X connect 21 0 14 1;
#X connect 21 1 13 0;
#X connect 22 0 32 0;
#X connect 24 0 20 0;
#X connect 25 0 16 0;
#X connect 25 0 18 0;
#X connect 27 0 29 0;
#X connect 28 0 30 0;
#X connect 29 0 1 0;
#X connect 30 0 1 0;
#X connect 31 0 1 0;
#X connect 32 0 26 0;
#X connect 32 1 26 0;
#X connect 32 2 26 0;
#X connect 32 3 26 0;
#X connect 32 4 26 0;
#X connect 32 5 26 0;
#X connect 32 6 26 0;
#X connect 32 7 26 0;
#X connect 32 8 26 0;
#X connect 32 9 26 0;
#X connect 32 10 26 0;
#X connect 32 11 31 0;
#X coords 0 -1 1 1 190 17 1 100 100;
#X restore 1012 98 pd segue-partitura;
#N canvas 0 0 450 300 efeitos 0;
#X obj 3 243 dac~;
#X obj 2 108 RM2~;
#X obj 170 159 vcf~ 100 10;
#X floatatom 201 88 5 0 0 0 - - -;
#X floatatom 233 108 5 0 0 0 - - -;
#X obj 169 225 dac~;
#X obj 201 111 sig~;
#X obj 169 60 noise~;
#X obj 78 178 r carrega;
#X msg 78 199 90;
#N canvas 0 0 450 300 randona 0;
#X obj 195 131 random 3000;
#X obj 196 105 metro 3000;
#X obj 195 84 tgl 15 0 empty empty empty 17 7 0 10 -262144 -1 -1 0
1;
#X obj 271 82 random 3000;
#X obj 271 35 tgl 15 0 empty empty empty 17 7 0 10 -262144 -1 -1 0
1;
#X obj 275 111 + 500;
#X obj 205 185 line;
#X msg 206 162 \$1 \$2;
#X obj 270 158 pack 1 2;
#X obj 272 56 metro 1000;
#X obj 320 119 bng 15 250 50 0 empty empty empty 17 7 0 10 -262144
-1 -1;
#X obj 246 222 bng 15 250 50 0 empty empty empty 17 7 0 10 -262144
-1 -1;
#X obj 191 222 outlet;
#X obj 192 25 inlet;
#X obj 259 194 + 500;
#X connect 0 0 14 0;
#X connect 0 0 11 0;
#X connect 1 0 0 0;
#X connect 2 0 1 0;
#X connect 3 0 5 0;
#X connect 3 0 10 0;
#X connect 4 0 9 0;
#X connect 5 0 1 1;
#X connect 5 0 8 1;
#X connect 6 0 12 0;
#X connect 7 0 6 0;
#X connect 8 0 7 0;
#X connect 9 0 3 0;
#X connect 13 0 4 0;
#X connect 13 0 2 0;
#X connect 14 0 8 0;
#X restore 242 83 pd randona;
#X obj 259 60 tgl 15 0 empty empty empty 17 7 0 10 -262144 -1 -1 0
1;
#X obj 2 218 rev3~ 100 90 3000 20;
#X obj 280 142 gate~ 14;
#X obj 75 56 gatt~ 80;
#X obj 2 176 gatt~;
#X obj 169 186 gatt~;
#X obj 169 138 gatt~;
#X connect 1 0 15 0;
#X connect 2 0 16 0;
#X connect 3 0 6 0;
#X connect 4 0 2 2;
#X connect 6 0 2 1;
#X connect 7 0 17 0;
#X connect 8 0 9 0;
#X connect 9 0 15 1;
#X connect 9 0 16 1;
#X connect 10 0 3 0;
#X connect 11 0 10 0;
#X connect 12 0 0 0;
#X connect 12 0 0 1;
#X connect 15 0 12 0;
#X connect 16 0 5 0;
#X connect 16 0 5 1;
#X connect 17 0 2 0;
#X restore 319 141 pd efeitos;
#X obj 1082 29 s bema;
#X msg 1116 7 125;
#X obj 209 141 s lob;
#X obj 209 114 loadbang;
#X obj 1012 51 r keyg;
#X obj 1012 73 t b b;
#X obj 1062 51 r keyG;
#X obj 1062 73 r keyf;
#X obj 737 -23 r bema;
#X obj 585 -1 part1~ ./load-samples.txt 300;
#X obj 734 78 dac~;
#X obj 831 93 webcam-funfa;
#X obj 542 285 dac~;
#X obj 573 326 nbx 5 50 -1e+37 1e+37 0 0 empty empty empty 0 -8 0 50
-258113 -1 -1 0 256;
#X obj 573 386 nbx 5 50 -1e+37 1e+37 0 0 empty empty volume 0 50 0
50 -258113 -1 -1 0 256;
#X obj 597 179 cdetec-3blob-out-green;
#N canvas 567 149 506 558 tocador1 0;
#X obj 87 341 r parte-grupo1;
#X obj 354 340 r bema;
#X obj 87 367 partgrupo1~ ../1telefone-CLP/load-samples.txt;
#X obj 269 118 tgl 15 0 empty empty metro 17 7 0 10 -262144 -1 -1 1
1;
#X floatatom 117 152 5 0 0 0 - - -;
#X obj 87 307 pack b f f f f f f f f f f f;
#X floatatom 102 132 5 0 100 2 vol - -;
#X floatatom 157 152 5 0 0 0 - - -;
#X floatatom 142 132 5 0 100 2 out1 - -;
#X floatatom 162 267 5 0 0 0 - - -;
#X floatatom 182 132 5 0 100 2 space - -;
#X floatatom 237 152 5 0 0 1 som - -;
#X floatatom 192 152 5 0 0 0 - - -;
#X obj 269 62 r keys;
#X floatatom 258 101 5 0 0 1 tempo - -;
#X obj 87 215 metro 1000;
#X msg 87 237 1;
#X msg 238 34 100;
#X msg 248 14 200;
#X msg 258 -6 300;
#X floatatom 222 283 10 0 0 0 - - -;
#X msg 195 41 50;
#X floatatom 252 336 5 0 0 0 - - -;
#X obj 37 215 r keyd;
#X obj 102 42 bng 15 250 50 0 empty empty empty 17 7 0 10 -262144 -1
-1;
#X msg 102 71 100;
#X msg 142 71 1;
#X obj 87 267 spigot;
#X obj 87 477 outlet~;
#X obj 102 13 t b b b;
#X obj 354 477 outlet~;
#X obj 276 387 inlet;
#X obj 126 102 hsl 128 15 30 300 0 0 empty empty empty -2 -8 0 10 -262144
-1 -1 941 1;
#X obj 222 213 * 1;
#X floatatom 237 132 5 0 0 1 multip-vel - -;
#X msg 121 42 1;
#X msg 192 71 20;
#X obj 162 243 f;
#X obj 182 219 t f f;
#X obj 155 50 t b f;
#X obj 102 -11 inlet carrega;
#X obj 155 9 inlet space;
#X obj 222 179 inlet velocidade do sample;
#X obj 338 238 inlet on-off;
#X obj 222 258 line;
#X msg 222 236 \$1 50;
#X obj 87 432 gat~ 50;
#X obj 354 432 gat~ 50;
#X obj 338 271 spigot;
#X msg 296 230 0;
#X obj 269 205 sel 0;
#X obj 155 28 * 100;
#X connect 0 0 2 0;
#X connect 1 0 2 1;
#X connect 2 0 46 0;
#X connect 2 1 47 0;
#X connect 3 0 15 0;
#X connect 3 0 50 0;
#X connect 4 0 5 2;
#X connect 5 0 2 0;
#X connect 6 0 5 1;
#X connect 7 0 5 4;
#X connect 8 0 5 3;
#X connect 9 0 5 5;
#X connect 10 0 38 0;
#X connect 11 0 5 8;
#X connect 12 0 5 7;
#X connect 13 0 3 0;
#X connect 14 0 15 1;
#X connect 15 0 16 0;
#X connect 16 0 27 0;
#X connect 17 0 14 0;
#X connect 18 0 14 0;
#X connect 19 0 14 0;
#X connect 20 0 5 9;
#X connect 21 0 32 0;
#X connect 22 0 5 11;
#X connect 23 0 16 0;
#X connect 24 0 25 0;
#X connect 24 0 26 0;
#X connect 24 0 21 0;
#X connect 25 0 6 0;
#X connect 25 0 8 0;
#X connect 26 0 11 0;
#X connect 27 0 5 0;
#X connect 29 0 24 0;
#X connect 29 1 35 0;
#X connect 29 2 36 0;
#X connect 31 0 46 1;
#X connect 31 0 47 1;
#X connect 32 0 14 0;
#X connect 33 0 45 0;
#X connect 34 0 33 1;
#X connect 35 0 3 0;
#X connect 36 0 12 0;
#X connect 37 0 9 0;
#X connect 38 0 37 1;
#X connect 38 1 5 6;
#X connect 39 0 37 0;
#X connect 39 1 10 0;
#X connect 40 0 29 0;
#X connect 41 0 51 0;
#X connect 42 0 33 0;
#X connect 43 0 27 1;
#X connect 43 0 48 0;
#X connect 44 0 20 0;
#X connect 45 0 44 0;
#X connect 46 0 28 0;
#X connect 47 0 30 0;
#X connect 48 0 5 0;
#X connect 49 0 48 1;
#X connect 50 0 48 1;
#X connect 50 1 49 0;
#X connect 51 0 39 0;
#X coords 0 -1 1 1 230 70 1 100 100;
#X restore 542 256 pd tocador1;
#X obj 542 229 r carrega;
#X obj 541 342 dac~;
#X obj 576 373 hsl 239 15 0 1 0 0 empty empty empty -2 -8 0 10 -262144
-1 -1 0 1;
#X obj 675 161 r carrega;
#X obj 842 285 dac~;
#X obj 873 326 nbx 5 50 -1e+37 1e+37 0 0 empty empty empty 0 -8 0 50
-258113 -1 -1 0.67331 256;
#X obj 873 386 nbx 5 50 -1e+37 1e+37 0 0 empty empty volume 0 50 0
50 -258113 -1 -1 0.897526 256;
#X obj 842 229 r carrega;
#X obj 841 342 dac~;
#X obj 876 373 hsl 239 15 0 1 0 0 empty empty empty -2 -8 0 10 -262144
-1 -1 3735 1;
#X obj 969 161 r carrega;
#X obj 897 179 cdetec-3blob-out-red;
#N canvas 567 149 506 558 tocador2 0;
#X obj 87 341 r parte-grupo1;
#X obj 354 340 r bema;
#X obj 87 367 partgrupo1~ ../1telefone-CLP/load-samples.txt;
#X obj 269 118 tgl 15 0 empty empty metro 17 7 0 10 -262144 -1 -1 1
1;
#X floatatom 117 152 5 0 0 0 - - -;
#X obj 87 307 pack b f f f f f f f f f f f;
#X floatatom 102 132 5 0 100 2 vol - -;
#X floatatom 157 152 5 0 0 0 - - -;
#X floatatom 142 132 5 0 100 2 out1 - -;
#X floatatom 162 267 5 0 0 0 - - -;
#X floatatom 182 132 5 0 100 2 space - -;
#X floatatom 237 152 5 0 0 1 som - -;
#X floatatom 192 152 5 0 0 0 - - -;
#X obj 269 62 r keys;
#X floatatom 258 101 5 0 0 1 tempo - -;
#X obj 87 215 metro 1000;
#X msg 87 237 1;
#X msg 238 34 100;
#X msg 248 14 200;
#X msg 258 -6 300;
#X floatatom 222 283 10 0 0 0 - - -;
#X msg 195 41 50;
#X floatatom 252 336 5 0 0 0 - - -;
#X obj 37 215 r keyd;
#X obj 102 42 bng 15 250 50 0 empty empty empty 17 7 0 10 -262144 -1
-1;
#X msg 102 71 100;
#X msg 142 71 1;
#X obj 87 267 spigot;
#X obj 87 477 outlet~;
#X obj 102 13 t b b b;
#X obj 354 477 outlet~;
#X obj 276 387 inlet;
#X obj 126 102 hsl 128 15 30 300 0 0 empty empty empty -2 -8 0 10 -262144
-1 -1 1341 1;
#X obj 222 213 * 1;
#X floatatom 237 132 5 0 0 1 multip-vel - -;
#X msg 121 42 1;
#X msg 192 71 20;
#X obj 162 243 f;
#X obj 182 219 t f f;
#X obj 155 50 t b f;
#X obj 102 -11 inlet carrega;
#X obj 155 9 inlet space;
#X obj 222 179 inlet velocidade do sample;
#X obj 338 238 inlet on-off;
#X obj 222 258 line;
#X msg 222 236 \$1 50;
#X obj 87 432 gat~ 50;
#X obj 354 432 gat~ 50;
#X obj 338 271 spigot;
#X msg 296 230 0;
#X obj 269 205 sel 0;
#X obj 155 28 * 100;
#X connect 0 0 2 0;
#X connect 1 0 2 1;
#X connect 2 0 46 0;
#X connect 2 1 47 0;
#X connect 3 0 15 0;
#X connect 3 0 50 0;
#X connect 4 0 5 2;
#X connect 5 0 2 0;
#X connect 6 0 5 1;
#X connect 7 0 5 4;
#X connect 8 0 5 3;
#X connect 9 0 5 5;
#X connect 10 0 38 0;
#X connect 11 0 5 8;
#X connect 12 0 5 7;
#X connect 13 0 3 0;
#X connect 14 0 15 1;
#X connect 15 0 16 0;
#X connect 16 0 27 0;
#X connect 17 0 14 0;
#X connect 18 0 14 0;
#X connect 19 0 14 0;
#X connect 20 0 5 9;
#X connect 21 0 32 0;
#X connect 22 0 5 11;
#X connect 23 0 16 0;
#X connect 24 0 25 0;
#X connect 24 0 26 0;
#X connect 24 0 21 0;
#X connect 25 0 6 0;
#X connect 25 0 8 0;
#X connect 26 0 11 0;
#X connect 27 0 5 0;
#X connect 29 0 24 0;
#X connect 29 1 35 0;
#X connect 29 2 36 0;
#X connect 31 0 46 1;
#X connect 31 0 47 1;
#X connect 32 0 14 0;
#X connect 33 0 45 0;
#X connect 34 0 33 1;
#X connect 35 0 3 0;
#X connect 36 0 12 0;
#X connect 37 0 9 0;
#X connect 38 0 37 1;
#X connect 38 1 5 6;
#X connect 39 0 37 0;
#X connect 39 1 10 0;
#X connect 40 0 29 0;
#X connect 41 0 51 0;
#X connect 42 0 33 0;
#X connect 43 0 27 1;
#X connect 43 0 48 0;
#X connect 44 0 20 0;
#X connect 45 0 44 0;
#X connect 46 0 28 0;
#X connect 47 0 30 0;
#X connect 48 0 5 0;
#X connect 49 0 48 1;
#X connect 50 0 48 1;
#X connect 50 1 49 0;
#X connect 51 0 39 0;
#X coords 0 -1 1 1 230 70 1 100 100;
#X restore 842 256 pd tocador2;
#X obj 919 234 * 10;
#X obj 619 234 * 10;
#X connect 1 0 2 0;
#X connect 1 0 12 0;
#X connect 3 0 11 0;
#X connect 5 0 20 1;
#X connect 6 0 20 2;
#X connect 8 0 20 0;
#X connect 9 0 7 0;
#X connect 12 0 3 0;
#X connect 14 0 13 0;
#X connect 15 0 16 0;
#X connect 16 0 9 0;
#X connect 16 1 1 0;
#X connect 17 0 9 1;
#X connect 18 0 9 0;
#X connect 19 0 20 4;
#X connect 20 0 21 0;
#X connect 20 1 21 1;
#X connect 22 0 26 0;
#X connect 22 0 39 0;
#X connect 26 0 27 1;
#X connect 26 0 30 0;
#X connect 26 1 27 2;
#X connect 26 1 24 0;
#X connect 26 2 42 0;
#X connect 26 3 27 4;
#X connect 27 0 29 0;
#X connect 27 1 29 1;
#X connect 28 0 27 0;
#X connect 31 0 26 1;
#X connect 35 0 40 0;
#X connect 38 0 39 1;
#X connect 39 0 40 1;
#X connect 39 0 37 0;
#X connect 39 1 40 2;
#X connect 39 1 33 0;
#X connect 39 2 41 0;
#X connect 39 3 40 4;
#X connect 40 0 36 0;
#X connect 40 1 36 1;
#X connect 41 0 34 0;
#X connect 41 0 40 3;
#X connect 42 0 25 0;
