#N canvas 111 352 450 499 10;
#X declare -lib mrpeach;
#X declare -lib iemmatrix;
#X declare -lib iemmatrix;
#X obj 110 362 osc-manda;
#X floatatom 111 21 5 0 0 0 - - -;
#X msg 162 329 connect 127.0.0.1 9002;
#X msg 110 302 send /obj1 \$1 \$2 \$3 \$4;
#X obj 183 110 webcam-funfa;
#X obj 183 194 cdetec-2blob-out-green;
#X obj 186 249 pack f f f f;
#X connect 1 0 3 0;
#X connect 2 0 0 1;
#X connect 3 0 0 0;
#X connect 4 0 5 0;
#X connect 5 0 6 0;
#X connect 5 1 6 1;
#X connect 5 2 6 2;
#X connect 5 3 6 3;
#X connect 6 0 3 0;
