#N canvas 785 87 761 499 10;
#X declare -lib mrpeach;
#X declare -lib iemmatrix;
#X declare -lib iemmatrix;
#X declare -lib iemmatrix;
#X declare -lib iemmatrix;
#X declare -lib iemmatrix;
#X obj 110 362 osc-manda;
#X floatatom 110 21 5 0 0 0 - - -;
#X obj 183 110 webcam-funfa;
#X obj 133 249 pack f f f f;
#X msg 161 329 connect 192.168.1.11 9002;
#X obj 133 194 cdetec-1blob-out-green;
#X msg 165 42 1 2 3 4;
#X msg 110 305 send /green \$1 \$2 \$3 \$4;
#X obj 313 249 pack f f f f;
#X obj 295 24 bng 15 250 50 0 empty empty empty 17 7 0 10 -262144 -1
-1;
#X obj 298 45 s acionar;
#X obj 133 175 r acionar;
#X obj 161 285 r acionar;
#X obj 437 175 r acionar;
#X obj 313 194 cdetec-1blob-out-red;
#X msg 290 305 send /red \$1 \$2 \$3 \$4;
#X obj 513 249 pack f f f f;
#X obj 637 175 r acionar;
#X obj 513 194 cdetec-1blob-out-blue;
#X msg 490 305 send /blue \$1 \$2 \$3 \$4;
#X obj 647 15 r acionar;
#X obj 523 34 cdetec-3blob-out-yellow;
#X obj 523 109 pack f f f f f f f f f f f f;
#X msg 500 145 send /yellow \$1 \$2 \$3 \$4;
#X connect 1 0 7 0;
#X connect 2 0 5 0;
#X connect 2 0 14 0;
#X connect 3 0 7 0;
#X connect 4 0 0 1;
#X connect 5 0 3 0;
#X connect 5 1 3 1;
#X connect 5 2 3 2;
#X connect 5 3 3 3;
#X connect 6 0 7 0;
#X connect 7 0 0 0;
#X connect 8 0 15 0;
#X connect 9 0 10 0;
#X connect 11 0 5 1;
#X connect 12 0 4 0;
#X connect 13 0 14 1;
#X connect 14 0 8 0;
#X connect 14 1 8 1;
#X connect 14 2 8 2;
#X connect 14 3 8 3;
#X connect 15 0 0 0;
#X connect 16 0 19 0;
#X connect 17 0 18 1;
#X connect 18 0 16 0;
#X connect 18 1 16 1;
#X connect 18 2 16 2;
#X connect 18 3 16 3;
#X connect 19 0 0 0;
#X connect 20 0 21 1;
#X connect 21 0 22 0;
#X connect 21 1 22 1;
#X connect 21 2 22 2;
#X connect 21 3 22 3;
#X connect 21 4 22 4;
#X connect 21 5 22 5;
#X connect 21 6 22 6;
#X connect 21 7 22 7;
#X connect 21 8 22 8;
#X connect 21 9 22 9;
#X connect 21 10 22 10;
#X connect 21 11 22 11;
#X connect 22 0 23 0;
#X connect 23 0 0 0;
