#N canvas 0 54 1280 746 10;
#X declare -lib mrpeach;
#X declare -lib mrpeach;
#N canvas 99 121 450 378 loadar-samples 0;
#X obj 75 199 coll ./load-samples.txt;
#C restore;
#X floatatom 75 173 5 0 0 0 - - -;
#X obj 75 10 r carrega;
#X obj 75 119 metro 10;
#X obj 75 94 tgl 15 0 empty empty empty 17 7 0 10 -262144 -1 -1 0 1
;
#X msg 75 67 1;
#X msg 105 67 0;
#X obj 75 327 soundfiler;
#X msg 165 163 read ./load-samples.txt;
#X obj 75 267 pack s s;
#X msg 34 119 0;
#X obj 50 20 bng 15 250 50 0 empty empty empty 17 7 0 10 -262144 -1
-1;
#N canvas 0 0 450 300 areas 0;
#X obj 48 97 table area04;
#X obj 48 77 table area03;
#X obj 48 57 table area02;
#X obj 48 37 table area01;
#X obj 48 117 table area05;
#X obj 48 137 table area06;
#X obj 48 157 table area07;
#X obj 48 177 table area08;
#X obj 48 197 table area09;
#X obj 48 17 table area00;
#X obj 138 17 table area10;
#X obj 138 37 table area11;
#X obj 138 57 table area12;
#X obj 138 77 table area13;
#X obj 138 97 table area14;
#X obj 138 117 table area15;
#X obj 138 137 table area16;
#X obj 138 157 table area17;
#X obj 138 177 table area18;
#X obj 138 197 table area19;
#X obj 228 17 table area20;
#X obj 228 37 table area21;
#X obj 228 57 table area22;
#X obj 228 77 table area23;
#X obj 228 97 table area24;
#X obj 228 117 table area25;
#X obj 228 137 table area26;
#X obj 228 157 table area27;
#X obj 228 177 table area28;
#X obj 228 197 table area29;
#X restore 231 56 pd areas;
#X obj 75 35 t b b b;
#X obj 75 236 unpack s f f s;
#X obj 75 146 counter 100;
#X msg 75 293 read -maxsize 1e+07 -resize /media/sda1/sons/barquinho/\$1
\$2;
#X connect 0 0 14 0;
#X connect 1 0 0 0;
#X connect 2 0 13 0;
#X connect 3 0 15 0;
#X connect 4 0 3 0;
#X connect 5 0 4 0;
#X connect 6 0 4 0;
#X connect 8 0 0 0;
#X connect 9 0 16 0;
#X connect 10 0 15 0;
#X connect 11 0 13 0;
#X connect 13 0 5 0;
#X connect 13 1 10 0;
#X connect 13 2 8 0;
#X connect 14 0 9 0;
#X connect 14 3 9 1;
#X connect 15 0 1 0;
#X connect 15 2 6 0;
#X connect 16 0 7 0;
#X restore 319 88 pd loadar-samples;
#X obj 9 19 bng 20 250 50 0 empty empty empty 17 7 0 10 -258113 -4034
-203904;
#X obj 9 44 s carrega;
#X floatatom 79 23 5 0 0 2 bema-ms - -;
#N canvas 0 0 450 300 keey 0;
#X obj 75 18 key;
#X floatatom 75 45 5 0 0 0 - - -;
#X obj 75 231 s keyr;
#X obj 99 211 s keyt;
#X obj 75 74 sel 27;
#X obj 75 118 gate;
#X obj 75 99 tgl 15 0 empty empty empty 17 7 0 10 -262144 -1 -1 0 1
;
#X obj 124 231 s keyR;
#X obj 149 211 s keyT;
#X msg 75 168 1;
#X msg 99 188 1;
#X obj 173 181 s keyg;
#X obj 193 201 s keyG;
#X obj 223 181 s keyf;
#X obj 75 141 sel 114 116 82 84 103 71 102;
#X connect 0 0 1 0;
#X connect 1 0 4 0;
#X connect 4 0 6 0;
#X connect 4 1 5 1;
#X connect 5 0 14 0;
#X connect 6 0 5 0;
#X connect 9 0 2 0;
#X connect 10 0 3 0;
#X connect 14 0 9 0;
#X connect 14 1 10 0;
#X connect 14 2 7 0;
#X connect 14 3 8 0;
#X connect 14 4 11 0;
#X connect 14 5 12 0;
#X connect 14 6 13 0;
#X restore 319 115 pd keey;
#X obj 544 12 r keyr;
#X obj 593 12 r keyR;
#X obj 444 297 nbx 5 70 -1e+37 1e+37 0 0 empty empty empty 0 -8 0 70
-258113 -1 -1 2116 256;
#X obj 489 12 r parte1;
#N canvas 533 280 592 474 segue-partitura 0;
#X obj 168 217 metro 500;
#X obj 230 101 tgl 15 0 empty empty empty 17 7 0 10 -258113 -4032 -66577
0 1;
#X floatatom 168 331 5 0 0 0 - - -;
#X msg 232 217 goto \$1;
#X floatatom 247 101 3 0 0 0 - - -;
#X obj 120 356 outlet;
#X obj 185 160 sel 1;
#X obj 232 150 f;
#X obj 219 190 r bema;
#X floatatom 52 221 3 0 0 0 - - -;
#X obj 168 303 +;
#X obj 183 276 * 1000;
#X obj 52 190 + 1;
#X obj 168 133 t f f b b;
#X msg 52 163 1;
#X obj 168 244 counter -1 900000;
#X msg 122 217 goto 0;
#X floatatom 269 101 3 0 0 0 - - -;
#X msg 269 75 1;
#X obj 269 163 t f f;
#X obj 99 25 + 1;
#N canvas 67 179 492 577 partituras-escondidas 0;
#X obj 28 3 inlet;
#X obj 28 109 s parte1;
#X obj 28 27 s partituras-escondidas-interno-\$0;
#X obj 28 65 r partituras-escondidas-interno-\$0;
#X obj 108 235 r partituras-escondidas-interno-\$0;
#X obj 108 115 r partituras-escondidas-interno-\$0;
#X obj 108 159 s parte2;
#X obj 28 185 r partituras-escondidas-interno-\$0;
#X obj 28 229 s parte3;
#X obj 28 305 r partituras-escondidas-interno-\$0;
#X obj 28 349 s parte-grupo1;
#X obj 108 279 s parte4;
#X obj 28 87 ler-partitura ../barquinho/parte1.txt;
#X obj 108 137 ler-partitura ../barquinho/parte2.txt;
#X obj 28 207 ler-partitura ../barquinho/parte3.txt;
#X obj 108 257 ler-partitura ../barquinho/parte4.txt;
#X obj 28 327 ler-partitura ../barquinho/parte-grupo1.txt;
#X obj 128 355 r partituras-escondidas-interno-\$0;
#X obj 28 425 r partituras-escondidas-interno-\$0;
#X obj 168 475 r partituras-escondidas-interno-\$0;
#X obj 28 469 s parte-massa1;
#X obj 28 447 ler-partitura ../barquinho/parte-massa1.txt;
#X obj 302 25 r zerar-tocadores;
#X msg 302 60 0;
#X obj 168 497 ler-partitura ../barquinho/parte-massa2.txt;
#X obj 168 519 s parte-massa2;
#X obj 128 399 s parte5;
#X obj 128 377 ler-partitura ../barquinho/parte5.txt;
#X connect 0 0 2 0;
#X connect 3 0 12 0;
#X connect 4 0 15 0;
#X connect 5 0 13 0;
#X connect 7 0 14 0;
#X connect 9 0 16 0;
#X connect 12 0 1 0;
#X connect 13 0 6 0;
#X connect 14 0 8 0;
#X connect 15 0 11 0;
#X connect 16 0 10 0;
#X connect 17 0 27 0;
#X connect 18 0 21 0;
#X connect 19 0 24 0;
#X connect 21 0 20 0;
#X connect 22 0 23 0;
#X connect 23 0 1 0;
#X connect 23 0 6 0;
#X connect 23 0 8 0;
#X connect 23 0 11 0;
#X connect 23 0 10 0;
#X connect 23 0 20 0;
#X connect 23 0 25 0;
#X connect 23 0 26 0;
#X connect 24 0 25 0;
#X connect 27 0 26 0;
#X restore 168 356 pd partituras-escondidas;
#X obj 269 48 r lob;
#X obj 52 141 r somamil-\$0;
#X obj 261 21 s somamil-\$0;
#X obj 56 48 inlet;
#X obj 96 48 inlet;
#X msg 56 74 1;
#X msg 96 74 0;
#X msg 221 68 0;
#X obj 70 -25 sel 1322 2521 3322 4199 5322 6521 7322 8199 9322 10199
11322 12521 13322 14199 15322 16521 17322 1820;
#X obj 301 291 s green-state;
#X obj 311 321 s blue-state;
#X obj 391 291 s red-state;
#X obj 401 321 s yellow-state;
#X msg 301 256 1;
#X msg 341 256 2;
#X obj 282 326 bng 15 250 50 0 empty empty empty 17 7 0 10 -262144
-1 -1;
#X obj 301 231 sel 1000 5321 16000;
#X connect 0 0 15 0;
#X connect 1 0 13 0;
#X connect 2 0 5 0;
#X connect 2 0 20 0;
#X connect 2 0 21 0;
#X connect 2 0 38 0;
#X connect 3 0 15 0;
#X connect 4 0 7 1;
#X connect 6 0 7 0;
#X connect 7 0 3 0;
#X connect 8 0 0 1;
#X connect 9 0 12 1;
#X connect 9 0 19 0;
#X connect 10 0 2 0;
#X connect 11 0 10 1;
#X connect 12 0 9 0;
#X connect 13 0 0 0;
#X connect 13 1 6 0;
#X connect 13 2 4 0;
#X connect 13 3 17 0;
#X connect 14 0 12 0;
#X connect 15 0 10 0;
#X connect 16 0 15 0;
#X connect 17 0 19 0;
#X connect 18 0 17 0;
#X connect 19 0 12 1;
#X connect 19 1 11 0;
#X connect 20 0 30 0;
#X connect 22 0 18 0;
#X connect 23 0 14 0;
#X connect 23 0 16 0;
#X connect 25 0 27 0;
#X connect 26 0 28 0;
#X connect 27 0 1 0;
#X connect 28 0 1 0;
#X connect 29 0 1 0;
#X connect 30 0 24 0;
#X connect 30 1 24 0;
#X connect 30 2 24 0;
#X connect 30 3 24 0;
#X connect 30 4 24 0;
#X connect 30 5 24 0;
#X connect 30 6 24 0;
#X connect 30 7 24 0;
#X connect 30 8 24 0;
#X connect 30 9 24 0;
#X connect 30 10 24 0;
#X connect 30 11 24 0;
#X connect 30 12 24 0;
#X connect 30 13 24 0;
#X connect 30 14 24 0;
#X connect 30 15 24 0;
#X connect 30 16 24 0;
#X connect 30 17 29 0;
#X connect 35 0 31 0;
#X connect 35 0 32 0;
#X connect 35 0 33 0;
#X connect 35 0 34 0;
#X connect 36 0 31 0;
#X connect 36 0 32 0;
#X connect 36 0 33 0;
#X connect 36 0 34 0;
#X connect 36 0 37 0;
#X connect 38 0 35 0;
#X connect 38 1 36 0;
#X connect 38 2 35 0;
#X coords 0 -1 1 1 190 17 1 100 100;
#X restore 9 113 pd segue-partitura;
#N canvas 0 0 450 300 efeitos 0;
#X obj 3 243 dac~;
#X obj 2 108 RM2~;
#X obj 170 159 vcf~ 100 10;
#X floatatom 201 88 5 0 0 0 - - -;
#X floatatom 233 108 5 0 0 0 - - -;
#X obj 169 225 dac~;
#X obj 201 111 sig~;
#X obj 169 60 noise~;
#X obj 78 178 r carrega;
#X msg 78 199 90;
#N canvas 0 0 450 300 randona 0;
#X obj 195 131 random 3000;
#X obj 196 105 metro 3000;
#X obj 195 84 tgl 15 0 empty empty empty 17 7 0 10 -262144 -1 -1 0
1;
#X obj 271 82 random 3000;
#X obj 271 35 tgl 15 0 empty empty empty 17 7 0 10 -262144 -1 -1 0
1;
#X obj 275 111 + 500;
#X obj 205 185 line;
#X msg 206 162 \$1 \$2;
#X obj 270 158 pack 1 2;
#X obj 272 56 metro 1000;
#X obj 320 119 bng 15 250 50 0 empty empty empty 17 7 0 10 -262144
-1 -1;
#X obj 246 222 bng 15 250 50 0 empty empty empty 17 7 0 10 -262144
-1 -1;
#X obj 191 222 outlet;
#X obj 192 25 inlet;
#X obj 259 194 + 500;
#X connect 0 0 14 0;
#X connect 0 0 11 0;
#X connect 1 0 0 0;
#X connect 2 0 1 0;
#X connect 3 0 5 0;
#X connect 3 0 10 0;
#X connect 4 0 9 0;
#X connect 5 0 1 1;
#X connect 5 0 8 1;
#X connect 6 0 12 0;
#X connect 7 0 6 0;
#X connect 8 0 7 0;
#X connect 9 0 3 0;
#X connect 13 0 4 0;
#X connect 13 0 2 0;
#X connect 14 0 8 0;
#X restore 242 83 pd randona;
#X obj 259 60 tgl 15 0 empty empty empty 17 7 0 10 -262144 -1 -1 0
1;
#X obj 2 218 rev3~ 100 90 3000 20;
#X obj 75 56 gatt~ 80;
#X obj 2 176 gatt~;
#X obj 169 186 gatt~;
#X obj 169 138 gatt~;
#X obj 280 142 gate~ 14;
#X connect 1 0 14 0;
#X connect 2 0 15 0;
#X connect 3 0 6 0;
#X connect 4 0 2 2;
#X connect 6 0 2 1;
#X connect 7 0 16 0;
#X connect 8 0 9 0;
#X connect 9 0 14 1;
#X connect 9 0 15 1;
#X connect 10 0 3 0;
#X connect 11 0 10 0;
#X connect 12 0 0 0;
#X connect 12 0 0 1;
#X connect 14 0 12 0;
#X connect 15 0 5 0;
#X connect 15 0 5 1;
#X connect 16 0 2 0;
#X restore 369 115 pd efeitos;
#X obj 79 44 s bema;
#X obj 259 115 s lob;
#X obj 259 88 loadbang;
#X obj 849 12 r parte2;
#X obj 904 12 r keyxx;
#X obj 953 12 r keyXX;
#X obj 9 66 r keyg;
#X obj 9 88 t b b;
#X obj 59 66 r keyG;
#X obj 59 88 r keyf;
#X obj 1001 12 r bema;
#X obj 641 12 r bema;
#X msg 114 22 100;
#X obj 343 395 unpack f f;
#X obj 339 427 print a;
#X obj 399 427 print b;
#X msg 352 358 2 3;
#X msg 391 356 2 f;
#X obj 110 275 r bema;
#X obj 19 305 partgrupo2~ ../barquinho/load-samples.txt;
#X obj 804 572 r keyxx;
#X obj 853 572 r keyXX;
#X obj 901 572 r bema;
#X obj 901 422 r bema;
#X obj 719 572 r parte-massa2;
#X obj 719 422 r parte-massa1;
#X obj 19 275 r parte-grupo1;
#X obj 804 422 r keyxx;
#X obj 853 422 r keyxx;
#X obj 489 34 part1~ ./load-samples.txt 100;
#X obj 544 152 r keyr;
#X obj 593 152 r keyR;
#X obj 904 152 r keyxx;
#X obj 953 152 r keyXX;
#X obj 1001 152 r bema;
#X obj 641 152 r bema;
#X obj 489 106 gatt-st~ 50;
#X obj 172 50 s car-vol;
#X floatatom 172 24 5 0 0 0 - - -;
#X obj 167 385 r car-vol;
#X obj 637 246 r car-vol;
#X obj 637 106 r car-vol;
#X obj 997 106 r car-vol;
#X obj 997 246 r car-vol;
#X obj 867 516 r car-vol;
#X obj 867 666 r car-vol;
#X obj 19 385 gatt-st~ 50;
#X obj 719 666 gatt-st~ 50;
#X obj 719 516 gatt-st~ 50;
#X obj 849 106 gatt-st~ 50;
#X obj 489 246 gatt-st~ 50;
#X obj 849 246 gatt-st~ 50;
#X msg 209 23 20;
#X msg 312 28 0;
#X obj 312 55 s zerar-tocadores;
#X obj 489 152 r parte3;
#X obj 849 152 r parte4;
#X obj 719 444 part1~ ./load-samples.txt 300;
#X obj 719 594 part1~ ./load-samples.txt 300;
#X obj 849 34 part1~ ./load-samples.txt 100;
#X obj 489 174 part1~ ./load-samples.txt 100;
#X obj 849 174 part1~ ./load-samples.txt 100;
#X obj 904 282 r keyxx;
#X obj 953 282 r keyXX;
#X obj 1001 282 r bema;
#X obj 997 376 r car-vol;
#X obj 849 376 gatt-st~ 50;
#X obj 849 304 part1~ ./load-samples.txt 100;
#X obj 849 282 r parte5;
#X obj 1017 516 s~ m1-fx;
#X obj 1017 666 s~ m2-fx;
#X obj 267 386 s~ f1-fx;
#N canvas 382 120 891 586 fx1 0;
#X obj 747 176 r~ m1-fx;
#X obj 817 176 r~ m2-fx;
#X obj 817 136 r~ f1-fx;
#X obj 73 263 osc~;
#X obj 57 290 *~;
#X obj 73 206 * 1000;
#X obj 58 427 space1~ 20;
#X obj 57 317 gatte-~ 50;
#X obj 293 263 osc~;
#X obj 277 290 *~;
#X obj 278 427 space1~ 20;
#X obj 277 317 gatte-~ 50;
#X obj 293 179 r p3-x;
#X obj 333 270 r p3-size;
#X obj 390 290 r p3-on-off;
#X obj 493 263 osc~;
#X obj 477 290 *~;
#X obj 478 427 space1~ 20;
#X obj 477 317 gatte-~ 50;
#X obj 693 263 osc~;
#X obj 677 290 *~;
#X obj 678 427 space1~ 20;
#X obj 677 317 gatte-~ 50;
#X obj 493 179 r p4-x;
#X obj 533 270 r p4-size;
#X obj 590 290 r p4-on-off;
#X obj 733 270 r p5-size;
#X obj 790 290 r p5-on-off;
#X obj 693 179 r p5-x;
#X obj 293 233 +~ 5;
#X obj 293 206 * 25;
#X obj 493 233 +~ 300;
#X obj 493 206 * 100;
#X obj 693 233 +~ 2500;
#X obj 693 206 * 500;
#X floatatom 104 123 5 0 100 2 B-2 - -;
#X floatatom 144 123 5 0 100 2 R-3 - -;
#X floatatom 184 123 5 0 100 2 Y-4 - -;
#X floatatom 224 123 5 0 100 2 G-5 - -;
#X obj 57 375 gatt~ 50;
#X obj 277 375 gatt~ 50;
#X obj 477 375 gatt~ 50;
#X obj 677 375 gatt~ 50;
#X obj 277 156 r~ p3-fx1;
#X obj 477 156 r~ p4-fx1;
#X obj 58 491 dac~;
#X obj 278 491 dac~;
#X obj 478 491 dac~;
#X obj 678 491 dac~;
#X floatatom 127 201 5 0 0 0 - - -;
#X obj 340 400 r p3-y;
#X obj 540 400 r p4-y;
#X obj 740 400 r p5-y;
#X floatatom 744 207 5 0 0 0 - - -;
#X obj 104 8 r slider1;
#X floatatom 104 47 5 0 0 0 - - -;
#X floatatom 175 48 5 0 0 0 - - -;
#X floatatom 239 49 5 0 0 0 - - -;
#X floatatom 306 49 5 0 0 0 - - -;
#X obj 175 9 r slider2;
#X obj 239 10 r slider3;
#X obj 306 10 r slider4;
#X obj 113 295 * 15;
#X floatatom 264 123 5 0 100 2 *vol - -;
#X obj 333 295 * 15;
#X obj 533 295 * 15;
#X obj 733 295 * 15;
#X obj 352 51 r aciona;
#X msg 352 76 15;
#X obj 73 233 + 3000;
#X floatatom 130 232 5 0 0 0 - - -;
#X obj 73 179 r p2-x;
#X obj 113 270 r p2-size;
#X obj 120 400 r p2-y;
#X obj 57 156 r~ p2-fx1;
#X obj 677 156 r~ p5-fx1;
#X floatatom 327 201 5 0 0 0 - - -;
#X obj 170 290 r p2-on-off;
#X obj 106 351 * 0.1;
#X obj 316 351 * 0.1;
#X obj 516 351 * 0.1;
#X obj 716 351 * 0.1;
#X connect 3 0 4 1;
#X connect 4 0 7 0;
#X connect 5 0 69 0;
#X connect 6 0 45 0;
#X connect 6 1 45 1;
#X connect 7 0 39 0;
#X connect 8 0 9 1;
#X connect 9 0 11 0;
#X connect 10 0 46 0;
#X connect 10 1 46 1;
#X connect 11 0 40 0;
#X connect 12 0 30 0;
#X connect 12 0 76 0;
#X connect 13 0 64 0;
#X connect 14 0 11 2;
#X connect 15 0 16 1;
#X connect 16 0 18 0;
#X connect 17 0 47 0;
#X connect 17 1 47 1;
#X connect 18 0 41 0;
#X connect 19 0 20 1;
#X connect 20 0 22 0;
#X connect 21 0 48 0;
#X connect 21 1 48 1;
#X connect 22 0 42 0;
#X connect 23 0 32 0;
#X connect 24 0 65 0;
#X connect 25 0 18 2;
#X connect 26 0 66 0;
#X connect 27 0 22 2;
#X connect 28 0 34 0;
#X connect 28 0 53 0;
#X connect 29 0 8 0;
#X connect 30 0 29 0;
#X connect 31 0 15 0;
#X connect 32 0 31 0;
#X connect 33 0 19 0;
#X connect 34 0 33 0;
#X connect 35 0 78 0;
#X connect 36 0 79 0;
#X connect 37 0 80 0;
#X connect 38 0 81 0;
#X connect 39 0 6 0;
#X connect 40 0 10 0;
#X connect 41 0 17 0;
#X connect 42 0 21 0;
#X connect 43 0 9 0;
#X connect 44 0 16 0;
#X connect 50 0 10 2;
#X connect 51 0 17 2;
#X connect 52 0 21 2;
#X connect 54 0 55 0;
#X connect 55 0 35 0;
#X connect 56 0 36 0;
#X connect 57 0 37 0;
#X connect 58 0 38 0;
#X connect 59 0 56 0;
#X connect 60 0 57 0;
#X connect 61 0 58 0;
#X connect 62 0 7 1;
#X connect 63 0 62 1;
#X connect 63 0 64 1;
#X connect 63 0 65 1;
#X connect 63 0 66 1;
#X connect 64 0 11 1;
#X connect 65 0 18 1;
#X connect 66 0 22 1;
#X connect 67 0 68 0;
#X connect 68 0 63 0;
#X connect 69 0 3 0;
#X connect 69 0 70 0;
#X connect 71 0 5 0;
#X connect 71 0 49 0;
#X connect 72 0 62 0;
#X connect 73 0 6 2;
#X connect 74 0 4 0;
#X connect 75 0 20 0;
#X connect 77 0 7 2;
#X connect 78 0 39 1;
#X connect 79 0 40 1;
#X connect 80 0 41 1;
#X connect 81 0 42 1;
#X coords 0 -1 1 1 200 40 1 100 100;
#X restore 232 467 pd fx1;
#N canvas 0 54 1280 746 fx2 0;
#X floatatom 104 123 5 0 100 2 R - -;
#X floatatom 206 123 5 0 100 2 Y - -;
#X floatatom 138 123 5 0 100 2 G - -;
#X floatatom 172 123 5 0 100 2 B - -;
#X obj 64 411 dac~;
#X obj 337 119 r bema;
#X obj -21 174 part1~ ./load-samples.txt 100;
#X obj 64 152 r keyxx;
#X obj 150 152 r keyxx;
#X floatatom 240 123 5 0 100 2 xbema=tempo - -;
#X obj 322 147 *;
#X obj 126 240 r b1-on-off-testad;
#X obj -21 -4 no-repet;
#X obj -21 19 sel 1;
#X msg -21 46 1;
#X obj 613 45 gatt~ 50;
#X obj 529 -74 part1~ ./load-samples.txt 100;
#X obj 614 -98 r keyxx;
#X obj 700 -98 r keyxx;
#X obj 529 -214 no-repet;
#X obj 529 -191 sel 1;
#X msg 529 -164 1;
#X obj 473 385 gatt~ 50;
#X obj 389 264 part1~ ./load-samples.txt 100;
#X obj 474 242 r keyxx;
#X obj 560 242 r keyxx;
#X obj 389 126 no-repet;
#X obj 389 149 sel 1;
#X msg 389 176 1;
#X obj 676 -10 r b2-on-off-testad;
#X obj 536 330 r b3-on-off-testad;
#X obj 197 296 r b1-y;
#X obj 536 410 r b3-y;
#X obj 676 70 r b2-y;
#X msg 266 -34 1 \, n-samples tempos;
#X obj 114 -2 r slider1;
#X floatatom 114 37 5 0 0 0 - - -;
#X floatatom 185 38 5 0 0 0 - - -;
#X floatatom 249 39 5 0 0 0 - - -;
#X floatatom 316 39 5 0 0 0 - - -;
#X obj 185 -1 r slider2;
#X obj 249 0 r slider3;
#X obj 316 0 r slider4;
#X msg 303 101 4;
#X obj 887 -131 r bema;
#X obj 872 -103 *;
#X msg 850 -135 7;
#X obj 63 297 gatt~ 50;
#X obj 63 267 gate~ 500;
#X obj 613 17 gate~ 500;
#X obj 473 357 gate~ 500;
#X obj 767 209 r bema;
#X obj 752 237 *;
#X msg 730 205 8;
#X msg 167 286 5;
#X msg 728 26 4;
#X msg 422 358 4;
#X obj 361 58 r zerar-tocadores;
#X obj -21 71 pack 1 5 0 100 0 0 100 0 17 56 0 0;
#X obj 529 -139 pack 1 6 0 100 0 0 100 0 18 48 0 0;
#X obj 116 107 tgl 15 0 empty empty empty 17 7 0 10 -262144 -1 -1 0
1;
#X obj 156 107 tgl 15 0 empty empty empty 17 7 0 10 -262144 -1 -1 0
1;
#X obj 186 107 tgl 15 0 empty empty empty 17 7 0 10 -262144 -1 -1 0
1;
#X obj 303 78 r carrega;
#X obj 195 263 r carrega;
#X obj 850 -158 r carrega;
#X obj 730 182 r carrega;
#X obj 391 200 pack 1 3 0 100 0 0 100 0 19 40 0 0;
#X obj -21 -31 r b1-on-off-testad;
#X obj 529 -241 r b2-on-off-testad;
#X obj 389 99 r b3-on-off-testad;
#X obj 94 241 * 0.2;
#X obj 423 331 * 0.2;
#X obj 572 14 * 0.2;
#X obj 114 369 osc~;
#X obj 85 384 *~;
#X floatatom 190 325 5 0 0 0 - - -;
#X obj 474 531 dac~;
#X obj 524 489 osc~;
#X obj 540 466 + 1000;
#X obj 495 504 *~;
#X obj 546 442 * 500;
#X floatatom 600 445 5 0 0 0 - - -;
#X obj 614 181 dac~;
#X obj 664 139 osc~;
#X obj 635 154 *~;
#X floatatom 740 95 5 0 0 0 - - -;
#X obj 130 346 + 5;
#X obj 136 322 * 25;
#X obj 680 116 + 50;
#X obj 686 92 * 450;
#X obj 495 466 *~ 1;
#X obj 85 346 *~ 1;
#X obj 635 116 *~ 1;
#X connect 0 0 71 0;
#X connect 2 0 73 0;
#X connect 3 0 72 0;
#X connect 5 0 10 1;
#X connect 6 2 48 0;
#X connect 7 0 6 1;
#X connect 8 0 6 2;
#X connect 9 0 10 0;
#X connect 10 0 6 4;
#X connect 10 0 16 4;
#X connect 11 0 48 1;
#X connect 11 0 60 0;
#X connect 12 0 13 0;
#X connect 13 0 14 0;
#X connect 14 0 58 0;
#X connect 15 0 83 0;
#X connect 15 0 93 0;
#X connect 16 2 49 0;
#X connect 17 0 16 1;
#X connect 18 0 16 2;
#X connect 19 0 20 0;
#X connect 20 0 21 0;
#X connect 21 0 59 0;
#X connect 22 0 77 0;
#X connect 22 0 91 0;
#X connect 23 2 50 0;
#X connect 24 0 23 1;
#X connect 25 0 23 2;
#X connect 26 0 27 0;
#X connect 27 0 28 0;
#X connect 28 0 67 0;
#X connect 29 0 49 1;
#X connect 29 0 62 0;
#X connect 30 0 50 1;
#X connect 30 0 61 0;
#X connect 31 0 76 0;
#X connect 32 0 82 0;
#X connect 33 0 86 0;
#X connect 35 0 36 0;
#X connect 36 0 0 0;
#X connect 37 0 2 0;
#X connect 38 0 3 0;
#X connect 39 0 1 0;
#X connect 40 0 37 0;
#X connect 41 0 38 0;
#X connect 42 0 39 0;
#X connect 43 0 9 0;
#X connect 43 0 10 0;
#X connect 44 0 45 1;
#X connect 45 0 16 4;
#X connect 46 0 45 0;
#X connect 47 0 4 0;
#X connect 47 0 92 0;
#X connect 48 0 47 0;
#X connect 49 0 15 0;
#X connect 50 0 22 0;
#X connect 51 0 52 1;
#X connect 52 0 23 4;
#X connect 53 0 52 0;
#X connect 54 0 47 1;
#X connect 55 0 15 1;
#X connect 56 0 22 1;
#X connect 57 0 6 0;
#X connect 57 0 16 0;
#X connect 57 0 23 0;
#X connect 58 0 6 0;
#X connect 59 0 16 0;
#X connect 63 0 43 0;
#X connect 64 0 54 0;
#X connect 64 0 56 0;
#X connect 65 0 46 0;
#X connect 65 0 55 0;
#X connect 66 0 53 0;
#X connect 67 0 23 0;
#X connect 68 0 12 0;
#X connect 69 0 19 0;
#X connect 70 0 26 0;
#X connect 71 0 47 1;
#X connect 72 0 22 1;
#X connect 73 0 15 1;
#X connect 74 0 75 1;
#X connect 75 0 4 1;
#X connect 76 0 88 0;
#X connect 78 0 80 1;
#X connect 79 0 78 0;
#X connect 80 0 77 1;
#X connect 81 0 79 0;
#X connect 82 0 81 0;
#X connect 84 0 85 1;
#X connect 85 0 83 1;
#X connect 86 0 90 0;
#X connect 87 0 74 0;
#X connect 88 0 87 0;
#X connect 89 0 84 0;
#X connect 90 0 89 0;
#X connect 91 0 80 0;
#X connect 92 0 75 0;
#X connect 93 0 85 0;
#X coords 0 -1 1 1 180 40 1 100 100;
#X restore 432 467 pd fx2;
#X obj 787 106 s~ p1-fx1;
#X obj 1147 106 s~ p2-fx1;
#X obj 1147 246 s~ p4-fx1;
#X obj 1147 376 s~ p5-fx1;
#X obj 787 246 s~ p3-fx1;
#X obj 9 242 router-green;
#X obj 131 222 router-blue;
#X obj 9 222 router-red;
#X obj 131 242 router-yellow;
#X obj 412 630 tgl 15 0 empty empty empty 17 7 0 10 -262144 -1 -1 0
1;
#X obj 188 608 * 0.01;
#X floatatom 188 582 5 0 0 0 - - -;
#X floatatom 258 612 5 0 0 0 - - -;
#X obj 328 638 * 0.01;
#X floatatom 328 612 5 0 0 0 - - -;
#X obj 188 638 f;
#X obj 228 582 metro 50;
#X obj 228 557 tgl 15 0 empty empty empty 17 7 0 10 -262144 -1 -1 0
1;
#X obj 188 665 s blue-1-x;
#X obj 258 665 s blue-1-y;
#X obj 328 665 s blue-1-size;
#X obj 412 665 s blue-1-on-off;
#X obj 29 425 r b1-on-off;
#X obj 29 515 r b2-on-off;
#X obj 29 605 r b3-on-off;
#X msg 239 23 80;
#X obj 9 170 osc-recebe 9002;
#X obj 113 170 print;
#X obj 9 197 routeOSC /red /green /blue /yellow;
#X floatatom 110 429 5 0 0 0 - - -;
#X floatatom 110 519 5 0 0 0 - - -;
#X floatatom 110 609 5 0 0 0 - - -;
#X obj 29 452 if-last-3-is-zero red;
#X obj 29 542 if-last-3-is-zero green;
#X obj 29 632 if-last-3-is-zero blue;
#X obj 29 569 s b2-on-off-testad;
#X obj 29 479 s b1-on-off-testad;
#X obj 29 660 s b3-on-off-testad;
#X obj 326 178 roteia;
#X connect 1 0 2 0;
#X connect 1 0 23 0;
#X connect 3 0 11 0;
#X connect 5 0 40 1;
#X connect 6 0 40 2;
#X connect 8 0 40 0;
#X connect 9 0 7 0;
#X connect 13 0 12 0;
#X connect 14 0 70 0;
#X connect 15 0 70 1;
#X connect 16 0 70 2;
#X connect 17 0 18 0;
#X connect 18 0 9 0;
#X connect 18 1 1 0;
#X connect 19 0 9 1;
#X connect 20 0 9 0;
#X connect 21 0 70 4;
#X connect 22 0 40 4;
#X connect 23 0 3 0;
#X connect 24 0 25 0;
#X connect 24 1 26 0;
#X connect 27 0 24 0;
#X connect 28 0 24 0;
#X connect 29 0 30 1;
#X connect 30 0 57 0;
#X connect 30 1 57 1;
#X connect 30 1 82 0;
#X connect 31 0 69 1;
#X connect 32 0 69 2;
#X connect 33 0 69 4;
#X connect 34 0 68 4;
#X connect 35 0 69 0;
#X connect 36 0 68 0;
#X connect 37 0 30 0;
#X connect 38 0 68 1;
#X connect 39 0 68 2;
#X connect 40 0 47 0;
#X connect 40 1 47 1;
#X connect 40 2 85 0;
#X connect 41 0 71 1;
#X connect 42 0 71 2;
#X connect 43 0 72 1;
#X connect 44 0 72 2;
#X connect 45 0 72 4;
#X connect 46 0 71 4;
#X connect 49 0 48 0;
#X connect 50 0 57 2;
#X connect 51 0 61 2;
#X connect 52 0 47 2;
#X connect 53 0 60 2;
#X connect 54 0 62 2;
#X connect 55 0 59 2;
#X connect 56 0 58 2;
#X connect 63 0 49 0;
#X connect 64 0 65 0;
#X connect 64 0 9 1;
#X connect 66 0 71 0;
#X connect 67 0 72 0;
#X connect 68 0 59 0;
#X connect 68 1 59 1;
#X connect 68 2 80 0;
#X connect 69 0 58 0;
#X connect 69 1 58 1;
#X connect 69 2 81 0;
#X connect 70 0 60 0;
#X connect 70 1 60 1;
#X connect 70 2 86 0;
#X connect 71 0 61 0;
#X connect 71 1 61 1;
#X connect 71 2 89 0;
#X connect 72 0 62 0;
#X connect 72 1 62 1;
#X connect 72 2 87 0;
#X connect 73 0 78 1;
#X connect 74 0 78 2;
#X connect 75 0 78 4;
#X connect 76 0 77 2;
#X connect 78 0 77 0;
#X connect 78 1 77 1;
#X connect 78 2 88 0;
#X connect 79 0 78 0;
#X connect 94 0 106 0;
#X connect 95 0 100 0;
#X connect 96 0 95 0;
#X connect 97 0 104 0;
#X connect 98 0 105 0;
#X connect 99 0 98 0;
#X connect 100 0 103 0;
#X connect 101 0 100 0;
#X connect 102 0 101 0;
#X connect 107 0 114 0;
#X connect 107 0 117 0;
#X connect 108 0 115 0;
#X connect 108 0 118 0;
#X connect 109 0 116 0;
#X connect 109 0 119 0;
#X connect 110 0 49 0;
#X connect 111 0 113 0;
#X connect 111 0 112 0;
#X connect 113 0 92 0;
#X connect 113 1 90 0;
#X connect 113 2 91 0;
#X connect 113 3 93 0;
#X connect 117 0 121 0;
#X connect 118 0 120 0;
#X connect 119 0 122 0;
