#N canvas 0 54 1280 746 10;
#X declare -lib iemmatrix;
#N canvas 99 121 450 378 loadar-samples 0;
#X obj 75 199 coll ./load-samples.txt;
#C restore;
#X floatatom 75 173 5 0 0 0 - - -;
#X obj 75 10 r carrega;
#X obj 75 119 metro 10;
#X obj 75 94 tgl 15 0 empty empty empty 17 7 0 10 -262144 -1 -1 0 1
;
#X msg 75 67 1;
#X msg 105 67 0;
#X obj 75 327 soundfiler;
#X msg 165 163 read ./load-samples.txt;
#X obj 75 267 pack s s;
#X msg 34 119 0;
#X obj 50 20 bng 15 250 50 0 empty empty empty 17 7 0 10 -262144 -1
-1;
#N canvas 0 0 450 300 areas 0;
#X obj 48 97 table area04;
#X obj 48 77 table area03;
#X obj 48 57 table area02;
#X obj 48 37 table area01;
#X obj 48 117 table area05;
#X obj 48 137 table area06;
#X obj 48 157 table area07;
#X obj 48 177 table area08;
#X obj 48 197 table area09;
#X obj 48 17 table area00;
#X obj 138 17 table area10;
#X obj 138 37 table area11;
#X obj 138 57 table area12;
#X obj 138 77 table area13;
#X obj 138 97 table area14;
#X obj 138 117 table area15;
#X obj 138 137 table area16;
#X obj 138 157 table area17;
#X obj 138 177 table area18;
#X obj 138 197 table area19;
#X obj 228 17 table area20;
#X obj 228 37 table area21;
#X obj 228 57 table area22;
#X obj 228 77 table area23;
#X obj 228 97 table area24;
#X obj 228 117 table area25;
#X obj 228 137 table area26;
#X obj 228 157 table area27;
#X obj 228 177 table area28;
#X obj 228 197 table area29;
#X restore 231 56 pd areas;
#X obj 75 35 t b b b;
#X obj 75 236 unpack s f f s;
#X obj 75 146 counter 100;
#X msg 75 293 read -maxsize 1e+07 -resize /media/sda1/sons/barquinho/\$1
\$2;
#X connect 0 0 14 0;
#X connect 1 0 0 0;
#X connect 2 0 13 0;
#X connect 3 0 15 0;
#X connect 4 0 3 0;
#X connect 5 0 4 0;
#X connect 6 0 4 0;
#X connect 8 0 0 0;
#X connect 9 0 16 0;
#X connect 10 0 15 0;
#X connect 11 0 13 0;
#X connect 13 0 5 0;
#X connect 13 1 10 0;
#X connect 13 2 8 0;
#X connect 14 0 9 0;
#X connect 14 3 9 1;
#X connect 15 0 1 0;
#X connect 15 2 6 0;
#X connect 16 0 7 0;
#X restore 229 138 pd loadar-samples;
#X obj 9 19 bng 20 250 50 0 empty empty empty 17 7 0 10 -258113 -4034
-203904;
#X obj 9 44 s carrega;
#X floatatom 79 23 5 0 0 2 bema-ms - -;
#N canvas 0 0 450 300 keey 0;
#X obj 75 18 key;
#X floatatom 75 45 5 0 0 0 - - -;
#X obj 75 231 s keyr;
#X obj 99 211 s keyt;
#X obj 75 74 sel 27;
#X obj 75 118 gate;
#X obj 75 99 tgl 15 0 empty empty empty 17 7 0 10 -262144 -1 -1 0 1
;
#X obj 124 231 s keyR;
#X obj 149 211 s keyT;
#X msg 75 168 1;
#X msg 99 188 1;
#X obj 173 181 s keyg;
#X obj 193 201 s keyG;
#X obj 223 181 s keyf;
#X obj 75 141 sel 114 116 82 84 103 71 102;
#X connect 0 0 1 0;
#X connect 1 0 4 0;
#X connect 4 0 6 0;
#X connect 4 1 5 1;
#X connect 5 0 14 0;
#X connect 6 0 5 0;
#X connect 9 0 2 0;
#X connect 10 0 3 0;
#X connect 14 0 9 0;
#X connect 14 1 10 0;
#X connect 14 2 7 0;
#X connect 14 3 8 0;
#X connect 14 4 11 0;
#X connect 14 5 12 0;
#X connect 14 6 13 0;
#X restore 229 165 pd keey;
#X obj 544 12 r keyr;
#X obj 593 12 r keyR;
#X obj 9 138 nbx 5 30 -1e+37 1e+37 0 0 empty empty empty 0 -8 0 30
-258113 -1 -1 1310 256;
#X obj 489 12 r parte1;
#N canvas 559 202 505 423 segue-partitura 0;
#X obj 168 217 metro 500;
#X obj 230 101 tgl 15 0 empty empty empty 17 7 0 10 -258113 -4032 -66577
0 1;
#X floatatom 168 331 5 0 0 0 - - -;
#X msg 232 217 goto \$1;
#X floatatom 247 101 3 0 0 0 - - -;
#X obj 120 356 outlet;
#X obj 185 160 sel 1;
#X obj 232 150 f;
#X obj 219 190 r bema;
#X floatatom 52 221 3 0 0 0 - - -;
#X obj 168 303 +;
#X obj 183 276 * 1000;
#X obj 52 190 + 1;
#X obj 168 133 t f f b b;
#X msg 52 163 1;
#X obj 168 244 counter -1 900000;
#X msg 122 217 goto 0;
#X floatatom 269 101 3 0 0 0 - - -;
#X msg 269 75 1;
#X obj 269 163 t f f;
#X obj 99 25 + 1;
#N canvas 67 155 492 577 partituras-escondidas 0;
#X obj 28 3 inlet;
#X obj 28 109 s parte1;
#X obj 28 27 s partituras-escondidas-interno-\$0;
#X obj 28 65 r partituras-escondidas-interno-\$0;
#X obj 108 235 r partituras-escondidas-interno-\$0;
#X obj 108 115 r partituras-escondidas-interno-\$0;
#X obj 108 159 s parte2;
#X obj 28 185 r partituras-escondidas-interno-\$0;
#X obj 28 229 s parte3;
#X obj 28 305 r partituras-escondidas-interno-\$0;
#X obj 28 349 s parte-grupo1;
#X obj 108 279 s parte4;
#X obj 28 87 ler-partitura ../barquinho/parte1.txt;
#X obj 108 137 ler-partitura ../barquinho/parte2.txt;
#X obj 28 207 ler-partitura ../barquinho/parte3.txt;
#X obj 108 257 ler-partitura ../barquinho/parte4.txt;
#X obj 28 327 ler-partitura ../barquinho/parte-grupo1.txt;
#X obj 128 355 r partituras-escondidas-interno-\$0;
#X obj 128 377 ler-partitura ../barquinho/parte-grupo2.txt;
#X obj 28 425 r partituras-escondidas-interno-\$0;
#X obj 168 475 r partituras-escondidas-interno-\$0;
#X obj 28 469 s parte-massa1;
#X obj 168 519 s parte-massa2;
#X obj 128 399 s parte-grupo2;
#X obj 168 497 ler-partitura ../barquinho/parte-massa2.txt;
#X obj 28 447 ler-partitura ../barquinho/parte-massa1.txt;
#X obj 302 25 r zerar-tocadores;
#X msg 302 60 0;
#X connect 0 0 2 0;
#X connect 3 0 12 0;
#X connect 4 0 15 0;
#X connect 5 0 13 0;
#X connect 7 0 14 0;
#X connect 9 0 16 0;
#X connect 12 0 1 0;
#X connect 13 0 6 0;
#X connect 14 0 8 0;
#X connect 15 0 11 0;
#X connect 16 0 10 0;
#X connect 17 0 18 0;
#X connect 18 0 23 0;
#X connect 19 0 25 0;
#X connect 20 0 24 0;
#X connect 24 0 22 0;
#X connect 25 0 21 0;
#X connect 26 0 27 0;
#X connect 27 0 1 0;
#X connect 27 0 6 0;
#X connect 27 0 8 0;
#X connect 27 0 11 0;
#X connect 27 0 10 0;
#X connect 27 0 23 0;
#X connect 27 0 21 0;
#X connect 27 0 22 0;
#X restore 168 356 pd partituras-escondidas;
#X obj 269 48 r lob;
#X obj 52 141 r somamil-\$0;
#X obj 261 21 s somamil-\$0;
#X obj 56 48 inlet;
#X obj 96 48 inlet;
#X msg 56 74 1;
#X msg 96 74 0;
#X msg 221 68 0;
#X obj 99 -22 sel 1322 2521 3322 4199 5322 6521 7322 8199 9322 10199
11322 12521 13322 14199 15322 16322 17199 18322 1920;
#X connect 0 0 15 0;
#X connect 1 0 13 0;
#X connect 2 0 5 0;
#X connect 2 0 20 0;
#X connect 2 0 21 0;
#X connect 3 0 15 0;
#X connect 4 0 7 1;
#X connect 6 0 7 0;
#X connect 7 0 3 0;
#X connect 8 0 0 1;
#X connect 9 0 12 1;
#X connect 9 0 19 0;
#X connect 10 0 2 0;
#X connect 11 0 10 1;
#X connect 12 0 9 0;
#X connect 13 0 0 0;
#X connect 13 1 6 0;
#X connect 13 2 4 0;
#X connect 13 3 17 0;
#X connect 14 0 12 0;
#X connect 15 0 10 0;
#X connect 16 0 15 0;
#X connect 17 0 19 0;
#X connect 18 0 17 0;
#X connect 19 0 12 1;
#X connect 19 1 11 0;
#X connect 20 0 30 0;
#X connect 22 0 18 0;
#X connect 23 0 14 0;
#X connect 23 0 16 0;
#X connect 25 0 27 0;
#X connect 26 0 28 0;
#X connect 27 0 1 0;
#X connect 28 0 1 0;
#X connect 29 0 1 0;
#X connect 30 0 24 0;
#X connect 30 1 24 0;
#X connect 30 2 24 0;
#X connect 30 3 24 0;
#X connect 30 4 24 0;
#X connect 30 5 24 0;
#X connect 30 6 24 0;
#X connect 30 7 24 0;
#X connect 30 8 24 0;
#X connect 30 9 24 0;
#X connect 30 10 24 0;
#X connect 30 11 24 0;
#X connect 30 12 24 0;
#X connect 30 13 24 0;
#X connect 30 14 24 0;
#X connect 30 15 24 0;
#X connect 30 16 24 0;
#X connect 30 17 24 0;
#X connect 30 18 29 0;
#X coords 0 -1 1 1 190 17 1 100 100;
#X restore 9 113 pd segue-partitura;
#N canvas 0 0 450 300 efeitos 0;
#X obj 3 243 dac~;
#X obj 2 108 RM2~;
#X obj 170 159 vcf~ 100 10;
#X floatatom 201 88 5 0 0 0 - - -;
#X floatatom 233 108 5 0 0 0 - - -;
#X obj 169 225 dac~;
#X obj 201 111 sig~;
#X obj 169 60 noise~;
#X obj 78 178 r carrega;
#X msg 78 199 90;
#N canvas 0 0 450 300 randona 0;
#X obj 195 131 random 3000;
#X obj 196 105 metro 3000;
#X obj 195 84 tgl 15 0 empty empty empty 17 7 0 10 -262144 -1 -1 0
1;
#X obj 271 82 random 3000;
#X obj 271 35 tgl 15 0 empty empty empty 17 7 0 10 -262144 -1 -1 0
1;
#X obj 275 111 + 500;
#X obj 205 185 line;
#X msg 206 162 \$1 \$2;
#X obj 270 158 pack 1 2;
#X obj 272 56 metro 1000;
#X obj 320 119 bng 15 250 50 0 empty empty empty 17 7 0 10 -262144
-1 -1;
#X obj 246 222 bng 15 250 50 0 empty empty empty 17 7 0 10 -262144
-1 -1;
#X obj 191 222 outlet;
#X obj 192 25 inlet;
#X obj 259 194 + 500;
#X connect 0 0 14 0;
#X connect 0 0 11 0;
#X connect 1 0 0 0;
#X connect 2 0 1 0;
#X connect 3 0 5 0;
#X connect 3 0 10 0;
#X connect 4 0 9 0;
#X connect 5 0 1 1;
#X connect 5 0 8 1;
#X connect 6 0 12 0;
#X connect 7 0 6 0;
#X connect 8 0 7 0;
#X connect 9 0 3 0;
#X connect 13 0 4 0;
#X connect 13 0 2 0;
#X connect 14 0 8 0;
#X restore 242 83 pd randona;
#X obj 259 60 tgl 15 0 empty empty empty 17 7 0 10 -262144 -1 -1 0
1;
#X obj 2 218 rev3~ 100 90 3000 20;
#X obj 280 142 gate~ 14;
#X obj 75 56 gatt~ 80;
#X obj 2 176 gatt~;
#X obj 169 186 gatt~;
#X obj 169 138 gatt~;
#X connect 1 0 15 0;
#X connect 2 0 16 0;
#X connect 3 0 6 0;
#X connect 4 0 2 2;
#X connect 6 0 2 1;
#X connect 7 0 17 0;
#X connect 8 0 9 0;
#X connect 9 0 15 1;
#X connect 9 0 16 1;
#X connect 10 0 3 0;
#X connect 11 0 10 0;
#X connect 12 0 0 0;
#X connect 12 0 0 1;
#X connect 15 0 12 0;
#X connect 16 0 5 0;
#X connect 16 0 5 1;
#X connect 17 0 2 0;
#X restore 279 165 pd efeitos;
#X obj 79 44 s bema;
#X obj 169 165 s lob;
#X obj 169 138 loadbang;
#X obj 849 12 r parte2;
#X obj 904 12 r keyxx;
#X obj 953 12 r keyXX;
#X obj 9 66 r keyg;
#X obj 9 88 t b b;
#X obj 59 66 r keyG;
#X obj 59 88 r keyf;
#X obj 1001 12 r bema;
#X obj 641 12 r bema;
#X obj 316 385 r bema;
#X obj 225 415 partgrupo2~ ../barquinho/load-samples.txt;
#X msg 114 22 100;
#X obj 88 484 unpack f f;
#X obj 84 516 print a;
#X obj 144 516 print b;
#X msg 97 447 2 3;
#X msg 136 445 2 f;
#X obj 106 275 r bema;
#X obj 15 305 partgrupo2~ ../barquinho/load-samples.txt;
#X obj 804 492 r keyxx;
#X obj 853 492 r keyXX;
#X obj 901 492 r bema;
#X obj 901 342 r bema;
#X obj 719 492 r parte-massa2;
#X obj 719 342 r parte-massa1;
#X obj 225 385 r parte-grupo2;
#X obj 15 275 r parte-grupo1;
#X obj 804 342 r keyxx;
#X obj 853 342 r keyxx;
#X obj 489 34 part1~ ./load-samples.txt 100;
#X obj 544 152 r keyr;
#X obj 593 152 r keyR;
#X obj 904 152 r keyxx;
#X obj 953 152 r keyXX;
#X obj 1001 152 r bema;
#X obj 641 152 r bema;
#X obj 489 106 gatt-st~ 50;
#X obj 172 50 s car-vol;
#X floatatom 172 24 5 0 0 0 - - -;
#X obj 163 385 r car-vol;
#X obj 373 495 r car-vol;
#X obj 637 246 r car-vol;
#X obj 637 106 r car-vol;
#X obj 997 106 r car-vol;
#X obj 997 246 r car-vol;
#X obj 867 436 r car-vol;
#X obj 867 586 r car-vol;
#X obj 15 385 gatt-st~ 50;
#X obj 225 495 gatt-st~ 50;
#X obj 719 586 gatt-st~ 50;
#X obj 719 436 gatt-st~ 50;
#X obj 849 106 gatt-st~ 50;
#X obj 489 246 gatt-st~ 50;
#X obj 849 246 gatt-st~ 50;
#X msg 209 23 20;
#X msg 312 28 0;
#X obj 312 55 s zerar-tocadores;
#X obj 489 152 r parte3;
#X obj 849 152 r parte4;
#X obj 480 331 *~;
#X obj 496 303 osc~;
#X floatatom 430 245 5 0 0 0 - - -;
#X obj 429 300 *;
#X floatatom 444 272 5 0 0 0 - - -;
#X obj 545 413 dac~;
#X obj 521 370 gatt~ 50;
#X obj 218 207 cdetec-3blob-out-green;
#X obj 493 275 gatt~ 50;
#X obj 719 364 part1~ ./load-samples.txt 300;
#X obj 719 514 part1~ ./load-samples.txt 300;
#X obj 849 34 part1~ ./load-samples.txt 100;
#X obj 489 174 part1~ ./load-samples.txt 100;
#X obj 849 174 part1~ ./load-samples.txt 100;
#X connect 1 0 2 0;
#X connect 1 0 25 0;
#X connect 3 0 11 0;
#X connect 5 0 43 1;
#X connect 6 0 43 2;
#X connect 8 0 43 0;
#X connect 9 0 7 0;
#X connect 13 0 12 0;
#X connect 14 0 84 0;
#X connect 15 0 84 1;
#X connect 16 0 84 2;
#X connect 17 0 18 0;
#X connect 18 0 9 0;
#X connect 18 1 1 0;
#X connect 19 0 9 1;
#X connect 20 0 9 0;
#X connect 21 0 84 4;
#X connect 22 0 43 4;
#X connect 23 0 24 1;
#X connect 24 0 62 0;
#X connect 24 1 62 1;
#X connect 25 0 3 0;
#X connect 26 0 27 0;
#X connect 26 1 28 0;
#X connect 29 0 26 0;
#X connect 30 0 26 0;
#X connect 31 0 32 1;
#X connect 32 0 61 0;
#X connect 32 1 61 1;
#X connect 33 0 83 1;
#X connect 34 0 83 2;
#X connect 35 0 83 4;
#X connect 36 0 82 4;
#X connect 37 0 83 0;
#X connect 38 0 82 0;
#X connect 39 0 24 0;
#X connect 40 0 32 0;
#X connect 41 0 82 1;
#X connect 42 0 82 2;
#X connect 43 0 50 0;
#X connect 43 1 50 1;
#X connect 43 2 81 0;
#X connect 44 0 85 1;
#X connect 45 0 85 2;
#X connect 46 0 86 1;
#X connect 47 0 86 2;
#X connect 48 0 86 4;
#X connect 49 0 85 4;
#X connect 52 0 51 0;
#X connect 53 0 61 2;
#X connect 54 0 62 2;
#X connect 55 0 66 2;
#X connect 56 0 50 2;
#X connect 57 0 65 2;
#X connect 58 0 67 2;
#X connect 59 0 64 2;
#X connect 60 0 63 2;
#X connect 68 0 52 0;
#X connect 69 0 70 0;
#X connect 69 0 9 1;
#X connect 71 0 85 0;
#X connect 72 0 86 0;
#X connect 73 0 79 0;
#X connect 74 0 73 1;
#X connect 75 0 76 0;
#X connect 76 0 74 0;
#X connect 77 0 76 1;
#X connect 79 0 78 0;
#X connect 79 0 78 1;
#X connect 81 0 73 0;
#X connect 82 0 64 0;
#X connect 82 1 64 1;
#X connect 83 0 63 0;
#X connect 83 1 63 1;
#X connect 84 0 65 0;
#X connect 84 1 65 1;
#X connect 85 0 66 0;
#X connect 85 1 66 1;
#X connect 86 0 67 0;
#X connect 86 1 67 1;
#X connect 86 2 81 0;
