#N canvas 253 153 836 566 10;
#X text 600 2 lista vindo das cores;
#X text 20 11 seletores (cores);
#X obj 159 273 gate 3;
#X obj 243 192 pack f f f f f f f f f f f f;
#X obj 51 342 unpack f f f f;
#X obj 304 352 unpack f f f f;
#X text 529 30 nao precisamos dos outros blobs \, soh o primeiro daria
para apagar esses aih embaixo...;
#X text 71 53 estados: 0 - desligado 1 - 2 -;
#X obj 22 33 r red-state;
#X obj 188 34 r red-1-x;
#X obj 259 34 r red-1-y;
#X obj 333 34 r red-1-size;
#X obj 422 34 r red-1-on-off;
#X obj 257 68 r red-2-x;
#X obj 328 67 r red-2-y;
#X obj 402 68 r red-2-size;
#X obj 493 68 r red-2-on-off;
#X obj 334 97 r red-3-x;
#X obj 405 97 r red-3-y;
#X obj 479 97 r red-3-size;
#X obj 569 97 r red-3-on-off;
#X obj 308 416 s b1-x;
#X obj 355 416 s b1-y;
#X obj 399 416 s b1-size;
#X obj 462 415 s b1-on-off;
#X obj 549 415 print estado 3 nao existe para red;
#X obj 192 225 inlet;
#X obj 51 416 s p3-x;
#X obj 99 416 s p3-y;
#X obj 143 416 s p3-size;
#X obj 206 416 s p3-on-off;
#X obj 211 387 tgl 15 0 empty empty empty 17 7 0 10 -262144 -1 -1 0
1;
#X floatatom 171 368 5 0 0 0 - - -;
#X connect 2 0 4 0;
#X connect 2 1 5 0;
#X connect 2 2 25 0;
#X connect 3 0 2 1;
#X connect 4 0 27 0;
#X connect 4 1 28 0;
#X connect 4 2 29 0;
#X connect 4 3 30 0;
#X connect 4 3 32 0;
#X connect 5 0 21 0;
#X connect 5 1 22 0;
#X connect 5 2 23 0;
#X connect 5 3 24 0;
#X connect 8 0 2 0;
#X connect 9 0 3 0;
#X connect 10 0 3 1;
#X connect 11 0 3 2;
#X connect 12 0 3 3;
#X connect 13 0 3 4;
#X connect 14 0 3 5;
#X connect 15 0 3 6;
#X connect 16 0 3 7;
#X connect 17 0 3 8;
#X connect 18 0 3 9;
#X connect 19 0 3 10;
#X connect 20 0 3 11;
#X connect 26 0 2 1;
#X connect 31 0 30 0;
