#N canvas 67 101 952 530 10;
#X text 610 12 lista vindo das cores;
#X text 30 21 seletores (cores);
#X obj 253 202 pack f f f f f f f f f f f f;
#X text 539 40 nao precisamos dos outros blobs \, soh o primeiro daria
para apagar esses aih embaixo...;
#X text 81 63 estados: 0 - desligado 1 - 2 -;
#X obj 32 43 r green-state;
#X obj 556 450 s chuva-1-on-off;
#X obj 590 419 s chuva-2-on-off;
#X obj 625 388 s chuva-3-on-off;
#X obj 507 200 pack f f f;
#X obj 373 287 gate 3;
#X obj 169 283 gate 2;
#X obj 194 44 r yellow-1-x;
#X obj 269 43 r yellow-1-y;
#X obj 343 44 r yellow-1-size;
#X obj 435 44 r yellow-1-on-off;
#X obj 261 78 r yellow-2-x;
#X obj 338 77 r yellow-2-y;
#X obj 412 78 r yellow-2-size;
#X obj 503 78 r yellow-2-on-off;
#X obj 339 107 r yellow-3-x;
#X obj 415 107 r yellow-3-y;
#X obj 489 107 r yellow-3-size;
#X obj 581 107 r yellow-3-on-off;
#X obj 365 450 s yel2-y;
#X obj 318 450 s yel2-x;
#X obj 409 450 s yel2-size;
#X obj 472 449 s yel2-on-off;
#X obj 202 245 inlet;
#X obj 484 256 unpack f f f f;
#X obj 270 375 unpack f f f f f f f f f f f f;
#X obj 488 320 s yel3-x;
#X obj 535 320 s yel3-y;
#X obj 579 320 s yel3-size;
#X obj 642 319 s yel3-on-off;
#X obj 61 450 s p4-x;
#X obj 109 450 s p4-y;
#X obj 153 450 s p4-size;
#X obj 216 450 s p4-on-off;
#X obj 194 356 tgl 15 0 empty empty empty 17 7 0 10 -262144 -1 -1 1
1;
#X connect 2 0 11 1;
#X connect 5 0 10 0;
#X connect 5 0 11 0;
#X connect 9 0 10 1;
#X connect 10 2 29 0;
#X connect 11 0 30 0;
#X connect 12 0 2 0;
#X connect 13 0 2 1;
#X connect 14 0 2 2;
#X connect 15 0 2 3;
#X connect 15 0 9 0;
#X connect 16 0 2 4;
#X connect 17 0 2 5;
#X connect 18 0 2 6;
#X connect 19 0 2 7;
#X connect 19 0 9 1;
#X connect 20 0 2 8;
#X connect 21 0 2 9;
#X connect 22 0 2 10;
#X connect 23 0 2 11;
#X connect 23 0 9 2;
#X connect 28 0 11 1;
#X connect 29 0 31 0;
#X connect 29 1 32 0;
#X connect 29 2 33 0;
#X connect 29 3 34 0;
#X connect 30 0 35 0;
#X connect 30 1 36 0;
#X connect 30 2 37 0;
#X connect 30 3 6 0;
#X connect 30 3 38 0;
#X connect 30 4 25 0;
#X connect 30 5 24 0;
#X connect 30 6 26 0;
#X connect 30 7 27 0;
#X connect 30 7 7 0;
#X connect 30 8 31 0;
#X connect 30 9 32 0;
#X connect 30 10 33 0;
#X connect 30 11 34 0;
#X connect 30 11 8 0;
#X connect 39 0 38 0;
