#N canvas 81 120 836 566 10;
#X text 600 2 lista vindo das cores;
#X text 20 11 seletores (cores);
#X obj 159 273 gate 3;
#X obj 22 33 r blue-state;
#X obj 188 34 r blue-1-x;
#X obj 259 34 r blue-1-y;
#X obj 257 68 r blue-2-x;
#X obj 328 68 r blue-2-y;
#X obj 334 97 r blue-3-x;
#X obj 405 97 r blue-3-y;
#X obj 333 34 r blue-1-size;
#X obj 422 34 r blue-1-on-off;
#X obj 402 68 r blue-2-size;
#X obj 493 68 r blue-2-on-off;
#X obj 569 97 r blue-3-on-off;
#X obj 479 97 r blue-3-size;
#X obj 243 192 pack f f f f f f f f f f f f;
#X obj 549 415 print estado 3 nao existe para blue;
#X obj 51 342 unpack f f f f;
#X obj 304 352 unpack f f f f;
#X obj 308 416 s b3-x;
#X obj 355 416 s b3-y;
#X obj 399 416 s b3-size;
#X obj 462 415 s b3-on-off;
#X text 529 30 nao precisamos dos outros blobs \, soh o primeiro daria
para apagar esses aih embaixo...;
#X text 71 53 estados: 0 - desligado 1 - 2 -;
#X obj 192 245 inlet;
#X obj 51 416 s p2-x;
#X obj 99 416 s p2-y;
#X obj 143 416 s p2-size;
#X obj 206 416 s p2-on-off;
#X obj 204 385 tgl 15 0 empty empty empty 17 7 0 10 -262144 -1 -1 0
1;
#X connect 2 0 18 0;
#X connect 2 1 19 0;
#X connect 2 2 17 0;
#X connect 3 0 2 0;
#X connect 4 0 16 0;
#X connect 5 0 16 1;
#X connect 6 0 16 4;
#X connect 7 0 16 5;
#X connect 8 0 16 8;
#X connect 9 0 16 9;
#X connect 10 0 16 2;
#X connect 11 0 16 3;
#X connect 12 0 16 6;
#X connect 13 0 16 7;
#X connect 14 0 16 11;
#X connect 15 0 16 10;
#X connect 16 0 2 1;
#X connect 18 0 27 0;
#X connect 18 1 28 0;
#X connect 18 2 29 0;
#X connect 18 3 30 0;
#X connect 19 0 20 0;
#X connect 19 1 21 0;
#X connect 19 2 22 0;
#X connect 19 3 23 0;
#X connect 26 0 2 1;
#X connect 31 0 30 0;
