#N canvas 309 162 836 566 10;
#X text 600 2 lista vindo das cores;
#X text 20 11 seletores (cores);
#X obj 243 192 pack f f f f f f f f f f f f;
#X obj 51 366 unpack f f f f;
#X obj 304 376 unpack f f f f;
#X text 529 30 nao precisamos dos outros blobs \, soh o primeiro daria
para apagar esses aih embaixo...;
#X text 71 53 estados: 0 - desligado 1 - 2 -;
#X obj 22 33 r green-state;
#X obj 184 34 r green-1-x;
#X obj 259 33 r green-1-y;
#X obj 333 34 r green-1-size;
#X obj 425 34 r green-1-on-off;
#X obj 251 68 r green-2-x;
#X obj 328 67 r green-2-y;
#X obj 402 68 r green-2-size;
#X obj 493 68 r green-2-on-off;
#X obj 329 97 r green-3-x;
#X obj 405 97 r green-3-y;
#X obj 479 97 r green-3-size;
#X obj 571 97 r green-3-on-off;
#X obj 308 440 s b2-x;
#X obj 355 440 s b2-y;
#X obj 399 440 s b2-size;
#X obj 462 439 s b2-on-off;
#X obj 546 440 s chuva-1-on-off;
#X obj 580 409 s chuva-2-on-off;
#X obj 615 378 s chuva-3-on-off;
#X obj 546 347 unpack f f f;
#X obj 497 190 pack f f f;
#X obj 363 277 gate 3;
#X obj 159 273 gate 2;
#X obj 192 235 inlet;
#X obj 51 440 s p5-x;
#X obj 99 440 s p5-y;
#X obj 143 440 s p5-size;
#X obj 206 440 s p5-on-off;
#X obj 205 406 tgl 15 0 empty empty empty 17 7 0 10 -262144 -1 -1 0
1;
#X connect 2 0 30 1;
#X connect 3 0 32 0;
#X connect 3 1 33 0;
#X connect 3 2 34 0;
#X connect 3 3 35 0;
#X connect 4 0 20 0;
#X connect 4 1 21 0;
#X connect 4 2 22 0;
#X connect 4 3 23 0;
#X connect 7 0 29 0;
#X connect 7 0 30 0;
#X connect 8 0 2 0;
#X connect 9 0 2 1;
#X connect 10 0 2 2;
#X connect 11 0 2 3;
#X connect 11 0 28 0;
#X connect 12 0 2 4;
#X connect 13 0 2 5;
#X connect 14 0 2 6;
#X connect 15 0 2 7;
#X connect 15 0 28 1;
#X connect 16 0 2 8;
#X connect 17 0 2 9;
#X connect 18 0 2 10;
#X connect 19 0 2 11;
#X connect 19 0 28 2;
#X connect 27 0 24 0;
#X connect 27 1 25 0;
#X connect 27 2 26 0;
#X connect 28 0 29 1;
#X connect 29 2 27 0;
#X connect 30 0 3 0;
#X connect 30 1 4 0;
#X connect 31 0 30 1;
#X connect 36 0 35 0;
