#N canvas 54 48 582 494 10;
#X obj 100 276 coll ./load-samples.txt;
#C restore;
#X floatatom 115 119 5 0 0 3 n.som - -;
#X msg 127 254 read ./load-samples.txt;
#X obj 100 232 t f b;
#X obj 126 451 gatt~;
#X obj 127 405 line~;
#X msg 127 383 0 \, \$1 \$2;
#X obj 127 355 pack f f;
#X obj 126 427 tabread4~ area01;
#X obj 100 298 unpack s f f s;
#X msg 181 362 set \$1;
#X obj 100 119 bng 15 250 50 0 empty empty empty 17 7 0 10 -262144
-1 -1;
#X floatatom 191 119 5 0 0 3 dur - -;
#X obj 199 299 r tempo;
#X obj 172 324 * 500;
#X obj 280 241 coll ./load-samples.txt;
#C restore;
#X floatatom 280 216 5 0 0 2 - - -;
#X floatatom 307 318 15 0 0 0 - - -;
#X obj 307 362 / 500;
#X floatatom 307 392 10 0 0 0 - - -;
#X obj 334 337 r tempo;
#X obj 307 296 / 96;
#X obj 280 263 unpack s f f s;
#X obj 100 208 f;
#X obj 46 518 outlet~;
#X floatatom 153 119 5 0 100 3 vol - -;
#X obj 115 186 t f f;
#X floatatom 228 119 7 0 0 3 dur-orig - -;
#X obj 273 120 tgl 15 0 empty empty empty 17 7 0 10 -262144 -1 -1 0
1;
#X obj 208 188 gate;
#X symbolatom 100 102 31 0 0 0 - - -;
#X obj 100 64 inlet;
#X obj 100 135 bng 15 250 50 0 empty empty empty 17 7 0 10 -262144
-1 -1;
#X msg 85 358 0;
#X obj 140 64 inlet;
#X obj 127 518 outlet~;
#X obj 207 518 outlet~;
#X floatatom 116 151 5 0 100 3 out1 - -;
#X obj 46 481 gatt~;
#X obj 126 481 gatt~;
#X obj 206 481 gatt~;
#X floatatom 154 151 5 0 100 3 out2 - -;
#X floatatom 192 151 5 0 100 3 out3 - -;
#X obj 180 34 inlet;
#X obj 180 64 unpack f f f f f f f;
#X connect 0 0 9 0;
#X connect 1 0 26 0;
#X connect 3 0 0 0;
#X connect 3 1 2 0;
#X connect 4 0 38 0;
#X connect 4 0 39 0;
#X connect 4 0 40 0;
#X connect 5 0 8 0;
#X connect 6 0 5 0;
#X connect 7 0 6 0;
#X connect 8 0 4 0;
#X connect 9 1 7 0;
#X connect 9 3 10 0;
#X connect 10 0 8 0;
#X connect 11 0 23 0;
#X connect 12 0 14 0;
#X connect 13 0 14 1;
#X connect 14 0 7 1;
#X connect 15 0 22 0;
#X connect 16 0 15 0;
#X connect 17 0 18 0;
#X connect 18 0 19 0;
#X connect 19 0 27 0;
#X connect 20 0 18 1;
#X connect 21 0 17 0;
#X connect 22 0 30 0;
#X connect 22 1 21 0;
#X connect 22 2 21 1;
#X connect 23 0 3 0;
#X connect 25 0 4 1;
#X connect 26 0 23 1;
#X connect 26 1 16 0;
#X connect 27 0 29 1;
#X connect 28 0 29 0;
#X connect 29 0 12 0;
#X connect 31 0 11 0;
#X connect 32 0 33 0;
#X connect 33 0 5 0;
#X connect 34 0 32 0;
#X connect 37 0 38 1;
#X connect 38 0 24 0;
#X connect 39 0 35 0;
#X connect 40 0 36 0;
#X connect 41 0 39 1;
#X connect 42 0 40 1;
#X connect 43 0 44 0;
#X connect 44 0 11 0;
#X connect 44 1 1 0;
#X connect 44 2 25 0;
#X connect 44 3 12 0;
#X connect 44 4 37 0;
#X connect 44 5 41 0;
#X connect 44 6 42 0;
#X coords 0 -1 1 1 188 80 1 100 100;
