#N canvas 222 83 603 619 10;
#X obj 100 276 coll ./load-samples.txt;
#C restore;
#X floatatom 115 119 5 0 0 3 n.som - -;
#X msg 127 254 read ./load-samples.txt;
#X obj 100 232 t f b;
#X obj 126 521 gatt~;
#X obj 127 475 line~;
#X obj 126 497 tabread4~ area01;
#X obj 100 298 unpack s f f s;
#X msg 181 472 set \$1;
#X floatatom 191 119 5 0 0 3 dur - -;
#X obj 249 299 r tempo;
#X obj 222 324 * 500;
#X obj 400 241 coll ./load-samples.txt;
#C restore;
#X floatatom 400 216 5 0 0 2 - - -;
#X floatatom 427 318 15 0 0 0 - - -;
#X obj 427 362 / 500;
#X floatatom 427 392 10 0 0 0 - - -;
#X obj 454 337 r tempo;
#X obj 427 296 / 96;
#X obj 400 263 unpack s f f s;
#X obj 100 208 f;
#X obj 46 588 outlet~;
#X floatatom 153 119 5 0 100 3 vol - -;
#X obj 115 186 t f f;
#X floatatom 228 119 7 0 0 3 dur-orig - -;
#X obj 273 120 tgl 15 0 empty empty empty 17 7 0 10 -262144 -1 -1 0
1;
#X obj 208 188 gate;
#X symbolatom 100 102 31 0 0 0 - - -;
#X obj 100 64 inlet;
#X obj 100 135 bng 15 250 50 0 empty empty empty 17 7 0 10 -262144
-1 -1;
#X msg 85 428 0;
#X obj 140 64 inlet;
#X obj 127 588 outlet~;
#X obj 207 588 outlet~;
#X floatatom 116 151 5 0 100 3 out1 - -;
#X obj 46 551 gatt~;
#X obj 126 551 gatt~;
#X obj 206 551 gatt~;
#X floatatom 154 151 5 0 100 3 out2 - -;
#X floatatom 192 151 5 0 100 3 out3 - -;
#X obj 180 34 inlet;
#X obj 235 152 tgl 15 0 empty empty inv 17 7 0 10 -262144 -1 -1 0 1
;
#X obj 127 425 pack f f f;
#X msg 127 453 \$1 \, \$2 \$3;
#X obj 48 152 t b b b;
#X obj 100 119 bng 15 250 50 0 empty empty empty 17 7 0 10 -262144
-1 -1;
#N canvas 0 0 450 300 inversor-\$0 0;
#X obj 158 105 + 1;
#X obj 158 138 gate 2;
#X obj 158 185 t b b;
#X msg 158 215 0;
#X obj 208 185 t b b;
#X msg 235 215 0;
#X obj 150 66 inlet;
#X obj 158 279 outlet;
#X obj 235 279 outlet;
#X obj 191 66 inlet;
#X obj 172 254 f;
#X obj 202 254 f;
#X obj 191 103 t b f f;
#X connect 0 0 1 0;
#X connect 1 0 2 0;
#X connect 1 1 4 0;
#X connect 2 0 3 0;
#X connect 2 1 11 0;
#X connect 3 0 7 0;
#X connect 4 0 10 0;
#X connect 4 1 5 0;
#X connect 5 0 8 0;
#X connect 6 0 0 0;
#X connect 9 0 12 0;
#X connect 10 0 7 0;
#X connect 11 0 8 0;
#X connect 12 0 1 1;
#X connect 12 1 10 1;
#X connect 12 2 11 1;
#X restore 127 351 pd inversor-\$0;
#X obj 180 64 unpack f f f f f f f f;
#X floatatom 304 120 5 0 0 0 - - -;
#X obj 274 42 print;
#X obj 60 100 sel 1;
#X msg 20 9 o inlet da esquerda tem que ser 1 \, não pode ser bang
;
#X connect 0 0 7 0;
#X connect 1 0 23 0;
#X connect 3 0 0 0;
#X connect 3 1 2 0;
#X connect 4 0 35 0;
#X connect 4 0 36 0;
#X connect 4 0 37 0;
#X connect 5 0 6 0;
#X connect 6 0 4 0;
#X connect 7 1 46 1;
#X connect 7 3 8 0;
#X connect 8 0 6 0;
#X connect 9 0 11 0;
#X connect 10 0 11 1;
#X connect 11 0 42 2;
#X connect 12 0 19 0;
#X connect 13 0 12 0;
#X connect 14 0 15 0;
#X connect 15 0 16 0;
#X connect 16 0 24 0;
#X connect 17 0 15 1;
#X connect 18 0 14 0;
#X connect 19 0 27 0;
#X connect 19 1 18 0;
#X connect 19 2 18 1;
#X connect 20 0 3 0;
#X connect 22 0 4 1;
#X connect 23 0 20 1;
#X connect 23 1 13 0;
#X connect 24 0 26 1;
#X connect 25 0 26 0;
#X connect 26 0 9 0;
#X connect 28 0 50 0;
#X connect 29 0 30 0;
#X connect 30 0 5 0;
#X connect 31 0 29 0;
#X connect 34 0 35 1;
#X connect 35 0 21 0;
#X connect 36 0 32 0;
#X connect 37 0 33 0;
#X connect 38 0 36 1;
#X connect 39 0 37 1;
#X connect 40 0 47 0;
#X connect 40 0 49 0;
#X connect 41 0 46 0;
#X connect 42 0 43 0;
#X connect 43 0 5 0;
#X connect 44 0 20 0;
#X connect 44 1 41 0;
#X connect 44 2 41 0;
#X connect 45 0 44 0;
#X connect 46 0 42 0;
#X connect 46 1 42 1;
#X connect 47 0 50 0;
#X connect 47 1 1 0;
#X connect 47 2 22 0;
#X connect 47 3 9 0;
#X connect 47 4 34 0;
#X connect 47 5 38 0;
#X connect 47 6 39 0;
#X connect 47 7 48 0;
#X connect 48 0 41 0;
#X connect 50 0 45 0;
#X coords 0 -1 1 1 188 100 1 100 100;
